<svg xmlns="http://www.w3.org/2000/svg" style="display:none">
  <!-- Teletext: solid colour-cell block graphics, built on a coarse pixel
       grid (4-unit cells in a 24x24 box) — no curves, no outlines, no
       anti-aliasing, matching the real service's character-cell display.
       Every shape fills with currentColor and turns its stroke off, since
       block graphics were never drawn as outlines. Ids not listed here
       fall back to the generic outline sprite. -->
  <defs>
    <symbol id="icon-home" viewBox="0 0 24 24">
      <g fill="currentColor" stroke="none">
        <rect x="8" y="0" width="8" height="4"/>
        <rect x="4" y="4" width="16" height="4"/>
        <rect x="0" y="8" width="24" height="8"/>
        <rect x="0" y="16" width="8" height="8"/>
        <rect x="16" y="16" width="8" height="8"/>
      </g>
    </symbol>
    <symbol id="icon-settings" viewBox="0 0 24 24">
      <g fill="currentColor" stroke="none">
        <rect x="8" y="0" width="8" height="8"/>
        <rect x="0" y="8" width="24" height="8"/>
        <rect x="8" y="16" width="8" height="8"/>
      </g>
    </symbol>
    <symbol id="icon-search" viewBox="0 0 24 24">
      <g fill="currentColor" stroke="none">
        <rect x="0" y="0" width="16" height="4"/>
        <rect x="0" y="12" width="16" height="4"/>
        <rect x="0" y="0" width="4" height="16"/>
        <rect x="12" y="0" width="4" height="16"/>
        <rect x="16" y="16" width="8" height="8"/>
      </g>
    </symbol>
    <symbol id="icon-close" viewBox="0 0 24 24">
      <g fill="currentColor" stroke="none">
        <rect x="0" y="0" width="4" height="4"/>
        <rect x="20" y="0" width="4" height="4"/>
        <rect x="4" y="4" width="4" height="4"/>
        <rect x="16" y="4" width="4" height="4"/>
        <rect x="8" y="8" width="8" height="8"/>
        <rect x="4" y="16" width="4" height="4"/>
        <rect x="16" y="16" width="4" height="4"/>
        <rect x="0" y="20" width="4" height="4"/>
        <rect x="20" y="20" width="4" height="4"/>
      </g>
    </symbol>
    <symbol id="icon-user" viewBox="0 0 24 24">
      <g fill="currentColor" stroke="none">
        <rect x="8" y="0" width="8" height="8"/>
        <rect x="2" y="10" width="20" height="4"/>
        <rect x="0" y="14" width="24" height="10"/>
      </g>
    </symbol>
    <symbol id="icon-bell" viewBox="0 0 24 24">
      <g fill="currentColor" stroke="none">
        <rect x="8" y="0" width="8" height="4"/>
        <rect x="4" y="4" width="16" height="4"/>
        <rect x="2" y="8" width="20" height="8"/>
        <rect x="8" y="18" width="8" height="4"/>
      </g>
    </symbol>
    <!-- Extension batch: same block-cell-graphics convention (solid
         currentColor rects on a 4-unit grid, no stroke, no curves,
         diagonals approximated as pixel staircases). -->
    <symbol id="icon-menu" viewBox="0 0 24 24">
      <g fill="currentColor" stroke="none">
        <rect x="0" y="2" width="24" height="4"/>
        <rect x="0" y="10" width="24" height="4"/>
        <rect x="0" y="18" width="24" height="4"/>
      </g>
    </symbol>
    <symbol id="icon-check" viewBox="0 0 24 24">
      <g fill="currentColor" stroke="none">
        <rect x="2" y="14" width="4" height="4"/>
        <rect x="6" y="18" width="4" height="4"/>
        <rect x="10" y="14" width="4" height="4"/>
        <rect x="14" y="10" width="4" height="4"/>
        <rect x="18" y="6" width="4" height="4"/>
        <rect x="22" y="2" width="2" height="4"/>
      </g>
    </symbol>
    <symbol id="icon-plus" viewBox="0 0 24 24">
      <g fill="currentColor" stroke="none">
        <rect x="10" y="2" width="4" height="20"/>
        <rect x="2" y="10" width="20" height="4"/>
      </g>
    </symbol>
    <symbol id="icon-minus" viewBox="0 0 24 24">
      <rect x="2" y="10" width="20" height="4" fill="currentColor" stroke="none"/>
    </symbol>
    <symbol id="icon-arrow-left" viewBox="0 0 24 24">
      <g fill="currentColor" stroke="none">
        <rect x="2" y="10" width="4" height="4"/>
        <rect x="6" y="6" width="4" height="4"/>
        <rect x="6" y="14" width="4" height="4"/>
        <rect x="10" y="2" width="4" height="4"/>
        <rect x="10" y="18" width="4" height="4"/>
        <rect x="10" y="10" width="12" height="4"/>
      </g>
    </symbol>
    <symbol id="icon-arrow-right" viewBox="0 0 24 24">
      <g fill="currentColor" stroke="none">
        <rect x="18" y="10" width="4" height="4"/>
        <rect x="14" y="6" width="4" height="4"/>
        <rect x="14" y="14" width="4" height="4"/>
        <rect x="10" y="2" width="4" height="4"/>
        <rect x="10" y="18" width="4" height="4"/>
        <rect x="2" y="10" width="12" height="4"/>
      </g>
    </symbol>
    <symbol id="icon-arrow-up" viewBox="0 0 24 24">
      <g fill="currentColor" stroke="none">
        <rect x="10" y="2" width="4" height="4"/>
        <rect x="6" y="6" width="4" height="4"/>
        <rect x="14" y="6" width="4" height="4"/>
        <rect x="2" y="10" width="4" height="4"/>
        <rect x="18" y="10" width="4" height="4"/>
        <rect x="10" y="10" width="4" height="12"/>
      </g>
    </symbol>
    <symbol id="icon-arrow-down" viewBox="0 0 24 24">
      <g fill="currentColor" stroke="none">
        <rect x="10" y="18" width="4" height="4"/>
        <rect x="6" y="14" width="4" height="4"/>
        <rect x="14" y="14" width="4" height="4"/>
        <rect x="2" y="10" width="4" height="4"/>
        <rect x="18" y="10" width="4" height="4"/>
        <rect x="10" y="2" width="4" height="12"/>
      </g>
    </symbol>
    <symbol id="icon-chevron-left" viewBox="0 0 24 24">
      <g fill="currentColor" stroke="none">
        <rect x="6" y="10" width="4" height="4"/>
        <rect x="10" y="6" width="4" height="4"/>
        <rect x="10" y="14" width="4" height="4"/>
        <rect x="14" y="2" width="4" height="4"/>
        <rect x="14" y="18" width="4" height="4"/>
      </g>
    </symbol>
    <symbol id="icon-chevron-right" viewBox="0 0 24 24">
      <g fill="currentColor" stroke="none">
        <rect x="14" y="10" width="4" height="4"/>
        <rect x="10" y="6" width="4" height="4"/>
        <rect x="10" y="14" width="4" height="4"/>
        <rect x="6" y="2" width="4" height="4"/>
        <rect x="6" y="18" width="4" height="4"/>
      </g>
    </symbol>
    <symbol id="icon-chevron-up" viewBox="0 0 24 24">
      <g fill="currentColor" stroke="none">
        <rect x="10" y="6" width="4" height="4"/>
        <rect x="6" y="10" width="4" height="4"/>
        <rect x="14" y="10" width="4" height="4"/>
        <rect x="2" y="14" width="4" height="4"/>
        <rect x="18" y="14" width="4" height="4"/>
      </g>
    </symbol>
    <symbol id="icon-chevron-down" viewBox="0 0 24 24">
      <g fill="currentColor" stroke="none">
        <rect x="10" y="14" width="4" height="4"/>
        <rect x="6" y="10" width="4" height="4"/>
        <rect x="14" y="10" width="4" height="4"/>
        <rect x="2" y="6" width="4" height="4"/>
        <rect x="18" y="6" width="4" height="4"/>
      </g>
    </symbol>
    <symbol id="icon-play" viewBox="0 0 24 24">
      <g fill="currentColor" stroke="none">
        <rect x="6" y="2" width="4" height="4"/>
        <rect x="6" y="18" width="4" height="4"/>
        <rect x="6" y="6" width="6" height="4"/>
        <rect x="6" y="14" width="6" height="4"/>
        <rect x="6" y="10" width="10" height="4"/>
      </g>
    </symbol>
    <symbol id="icon-pause" viewBox="0 0 24 24">
      <g fill="currentColor" stroke="none">
        <rect x="6" y="3" width="4" height="18"/>
        <rect x="14" y="3" width="4" height="18"/>
      </g>
    </symbol>
    <symbol id="icon-stop" viewBox="0 0 24 24">
      <rect x="5" y="5" width="14" height="14" fill="currentColor" stroke="none"/>
    </symbol>
    <symbol id="icon-mail" viewBox="0 0 24 24">
      <g fill="currentColor" stroke="none">
        <rect x="2" y="4" width="20" height="3"/>
        <rect x="2" y="17" width="20" height="3"/>
        <rect x="2" y="4" width="3" height="16"/>
        <rect x="19" y="4" width="3" height="16"/>
        <rect x="6" y="6" width="4" height="3"/>
        <rect x="10" y="9" width="4" height="3"/>
        <rect x="14" y="6" width="4" height="3"/>
      </g>
    </symbol>
    <symbol id="icon-calendar" viewBox="0 0 24 24">
      <g fill="currentColor" stroke="none">
        <rect x="3" y="4" width="18" height="3"/>
        <rect x="3" y="7" width="18" height="4"/>
        <rect x="3" y="11" width="3" height="8"/>
        <rect x="18" y="11" width="3" height="8"/>
        <rect x="3" y="19" width="18" height="3"/>
        <rect x="7" y="1" width="3" height="4"/>
        <rect x="14" y="1" width="3" height="4"/>
      </g>
    </symbol>
    <symbol id="icon-clock" viewBox="0 0 24 24">
      <g fill="currentColor" stroke="none">
        <rect x="3" y="3" width="18" height="3"/>
        <rect x="3" y="18" width="18" height="3"/>
        <rect x="3" y="3" width="3" height="18"/>
        <rect x="18" y="3" width="3" height="18"/>
        <rect x="11" y="6" width="3" height="8"/>
        <rect x="12" y="13" width="7" height="3"/>
      </g>
    </symbol>
    <symbol id="icon-folder" viewBox="0 0 24 24">
      <g fill="currentColor" stroke="none">
        <rect x="2" y="5" width="8" height="3"/>
        <rect x="2" y="8" width="20" height="11"/>
      </g>
    </symbol>
    <symbol id="icon-file" viewBox="0 0 24 24">
      <rect x="5" y="2" width="14" height="20" fill="currentColor" stroke="none"/>
    </symbol>
    <symbol id="icon-trash" viewBox="0 0 24 24">
      <g fill="currentColor" stroke="none">
        <rect x="9" y="2" width="6" height="3"/>
        <rect x="2" y="5" width="20" height="3"/>
        <rect x="4" y="8" width="16" height="14"/>
      </g>
    </symbol>
    <symbol id="icon-edit" viewBox="0 0 24 24">
      <g fill="currentColor" stroke="none">
        <rect x="2" y="18" width="4" height="4"/>
        <rect x="6" y="14" width="4" height="4"/>
        <rect x="10" y="10" width="4" height="4"/>
        <rect x="14" y="6" width="4" height="4"/>
        <rect x="18" y="2" width="4" height="4"/>
      </g>
    </symbol>
    <symbol id="icon-download" viewBox="0 0 24 24">
      <g fill="currentColor" stroke="none">
        <rect x="10" y="2" width="4" height="8"/>
        <rect x="6" y="10" width="12" height="4"/>
        <rect x="9" y="14" width="6" height="4"/>
        <rect x="3" y="20" width="18" height="3"/>
      </g>
    </symbol>
    <symbol id="icon-upload" viewBox="0 0 24 24">
      <g fill="currentColor" stroke="none">
        <rect x="9" y="6" width="6" height="4"/>
        <rect x="6" y="10" width="12" height="4"/>
        <rect x="10" y="14" width="4" height="6"/>
        <rect x="3" y="20" width="18" height="3"/>
      </g>
    </symbol>
    <symbol id="icon-star" viewBox="0 0 24 24">
      <g fill="currentColor" stroke="none">
        <rect x="10" y="2" width="4" height="6"/>
        <rect x="10" y="16" width="4" height="6"/>
        <rect x="2" y="10" width="6" height="4"/>
        <rect x="16" y="10" width="6" height="4"/>
        <rect x="9" y="9" width="6" height="6"/>
      </g>
    </symbol>
    <symbol id="icon-lock" viewBox="0 0 24 24">
      <g fill="currentColor" stroke="none">
        <rect x="4" y="11" width="16" height="11"/>
        <rect x="6" y="4" width="3" height="8"/>
        <rect x="15" y="4" width="3" height="8"/>
        <rect x="6" y="4" width="12" height="3"/>
      </g>
    </symbol>
    <symbol id="icon-unlock" viewBox="0 0 24 24">
      <g fill="currentColor" stroke="none">
        <rect x="4" y="11" width="16" height="11"/>
        <rect x="4" y="3" width="3" height="8"/>
        <rect x="4" y="3" width="10" height="3"/>
      </g>
    </symbol>
    <symbol id="icon-phone" viewBox="0 0 24 24">
      <g fill="currentColor" stroke="none">
        <rect x="2" y="2" width="6" height="6"/>
        <rect x="16" y="16" width="6" height="6"/>
        <rect x="8" y="8" width="3" height="3"/>
        <rect x="13" y="13" width="3" height="3"/>
      </g>
    </symbol>
    <symbol id="icon-wifi" viewBox="0 0 24 24">
      <g fill="currentColor" stroke="none">
        <rect x="10" y="18" width="4" height="4"/>
        <rect x="6" y="12" width="12" height="4"/>
        <rect x="2" y="6" width="20" height="4"/>
      </g>
    </symbol>
    <symbol id="icon-battery" viewBox="0 0 24 24">
      <g fill="currentColor" stroke="none">
        <rect x="2" y="7" width="18" height="3"/>
        <rect x="2" y="14" width="18" height="3"/>
        <rect x="2" y="7" width="3" height="10"/>
        <rect x="6" y="10" width="10" height="4"/>
        <rect x="20" y="10" width="3" height="4"/>
      </g>
    </symbol>
    <symbol id="icon-power" viewBox="0 0 24 24">
      <g fill="currentColor" stroke="none">
        <rect x="10" y="2" width="4" height="8"/>
        <rect x="6" y="6" width="3" height="4"/>
        <rect x="15" y="6" width="3" height="4"/>
        <rect x="3" y="10" width="3" height="6"/>
        <rect x="18" y="10" width="3" height="6"/>
        <rect x="6" y="16" width="3" height="4"/>
        <rect x="15" y="16" width="3" height="4"/>
        <rect x="9" y="19" width="6" height="3"/>
      </g>
    </symbol>
    <symbol id="icon-volume" viewBox="0 0 24 24">
      <g fill="currentColor" stroke="none">
        <rect x="2" y="9" width="6" height="6"/>
        <rect x="8" y="5" width="4" height="14"/>
        <rect x="14" y="10" width="3" height="4"/>
        <rect x="18" y="7" width="3" height="10"/>
      </g>
    </symbol>
    <symbol id="icon-info" viewBox="0 0 24 24">
      <g fill="currentColor" stroke="none">
        <rect x="3" y="3" width="18" height="3"/>
        <rect x="3" y="18" width="18" height="3"/>
        <rect x="3" y="3" width="3" height="18"/>
        <rect x="18" y="3" width="3" height="18"/>
        <rect x="10" y="6" width="4" height="3"/>
        <rect x="10" y="11" width="4" height="7"/>
      </g>
    </symbol>
    <symbol id="icon-warning" viewBox="0 0 24 24">
      <g fill="currentColor" stroke="none">
        <rect x="11" y="2" width="2" height="4"/>
        <rect x="9" y="6" width="6" height="4"/>
        <rect x="7" y="10" width="10" height="4"/>
        <rect x="3" y="14" width="18" height="4"/>
        <rect x="1" y="18" width="22" height="3"/>
        <rect x="11" y="18" width="2" height="3"/>
      </g>
    </symbol>
    <symbol id="icon-help-circle" viewBox="0 0 24 24">
      <g fill="currentColor" stroke="none">
        <rect x="3" y="3" width="18" height="3"/>
        <rect x="3" y="18" width="18" height="3"/>
        <rect x="3" y="3" width="3" height="18"/>
        <rect x="18" y="3" width="3" height="18"/>
        <rect x="9" y="7" width="8" height="3"/>
        <rect x="14" y="10" width="3" height="4"/>
        <rect x="10" y="14" width="4" height="3"/>
        <rect x="10" y="18" width="4" height="3"/>
      </g>
    </symbol>
    <symbol id="icon-logout" viewBox="0 0 24 24">
      <g fill="currentColor" stroke="none">
        <rect x="3" y="3" width="3" height="18"/>
        <rect x="3" y="3" width="9" height="3"/>
        <rect x="3" y="18" width="9" height="3"/>
        <rect x="16" y="8" width="3" height="3"/>
        <rect x="16" y="13" width="3" height="3"/>
        <rect x="19" y="10.5" width="3" height="3"/>
        <rect x="12" y="10.5" width="8" height="3"/>
      </g>
    </symbol>
    <symbol id="icon-refresh" viewBox="0 0 24 24">
      <g fill="currentColor" stroke="none">
        <rect x="9" y="2" width="6" height="3"/>
        <rect x="4" y="4" width="3" height="4"/>
        <rect x="17" y="4" width="3" height="4"/>
        <rect x="2" y="9" width="3" height="6"/>
        <rect x="19" y="9" width="3" height="6"/>
        <rect x="4" y="16" width="3" height="4"/>
        <rect x="17" y="16" width="3" height="4"/>
        <rect x="9" y="19" width="6" height="3"/>
        <rect x="19" y="1" width="4" height="4"/>
      </g>
    </symbol>
  </defs>
</svg>
