<svg xmlns="http://www.w3.org/2000/svg" style="display:none">
  <!-- International Rescue: bold rounded-geometric 1960s pictograms. Thick
       round-capped strokes (core's .icon supplies caps/joins; the theme
       raises its icon-stroke-width token to 2.8), circles and rounded rectangles
       as enclosures, no fills or colours: everything inherits currentColor.
       Only a subset of ids is drawn; the rest fall back to the generic set. -->
  <defs>
    <symbol id="icon-home" viewBox="0 0 24 24"><path d="M3.5 11 12 4l8.5 7"/><path d="M6 10v10h12V10"/><rect x="10" y="14" width="4" height="6" rx="1"/></symbol>
    <symbol id="icon-settings" viewBox="0 0 24 24"><circle cx="12" cy="12" r="4"/><circle cx="12" cy="12" r="9"/><path d="M12 3v3M12 18v3M3 12h3M18 12h3"/></symbol>
    <symbol id="icon-search" viewBox="0 0 24 24"><circle cx="10.5" cy="10.5" r="6.5"/><path d="m16 16 5 5"/></symbol>
    <symbol id="icon-close" viewBox="0 0 24 24"><circle cx="12" cy="12" r="9"/><path d="m8.5 8.5 7 7M15.5 8.5l-7 7"/></symbol>
    <symbol id="icon-menu" viewBox="0 0 24 24"><rect x="3" y="4" width="18" height="16" rx="3"/><path d="M7 9h10M7 12h10M7 15h10"/></symbol>
    <symbol id="icon-check" viewBox="0 0 24 24"><circle cx="12" cy="12" r="9"/><path d="m7.5 12.5 3 3 6-7"/></symbol>
    <symbol id="icon-warning" viewBox="0 0 24 24"><path d="M12 3.5 21 19.5H3z"/><path d="M12 10v4.5"/><circle cx="12" cy="17" r=".6"/></symbol>
    <symbol id="icon-info" viewBox="0 0 24 24"><circle cx="12" cy="12" r="9"/><path d="M12 11v6"/><circle cx="12" cy="7.6" r=".6"/></symbol>
    <symbol id="icon-chevron-down" viewBox="0 0 24 24"><path d="m5 8 7 7 7-7"/></symbol>
    <symbol id="icon-chevron-up" viewBox="0 0 24 24"><path d="m5 16 7-7 7 7"/></symbol>
    <symbol id="icon-chevron-left" viewBox="0 0 24 24"><path d="m16 5-7 7 7 7"/></symbol>
    <symbol id="icon-chevron-right" viewBox="0 0 24 24"><path d="m8 5 7 7-7 7"/></symbol>
    <symbol id="icon-play" viewBox="0 0 24 24"><path d="M7 4.5v15l12-7.5z"/></symbol>
    <symbol id="icon-pause" viewBox="0 0 24 24"><rect x="6" y="4.5" width="4" height="15" rx="1.5"/><rect x="14" y="4.5" width="4" height="15" rx="1.5"/></symbol>
    <symbol id="icon-stop" viewBox="0 0 24 24"><rect x="5" y="5" width="14" height="14" rx="3"/></symbol>
    <symbol id="icon-refresh" viewBox="0 0 24 24"><path d="M19.5 12a7.5 7.5 0 1 1-2.2-5.3"/><path d="M19.5 4v4.5H15"/></symbol>
    <symbol id="icon-download" viewBox="0 0 24 24"><path d="M12 3.5v11"/><path d="m7 10 5 5 5-5"/><path d="M4.5 20h15"/></symbol>
    <symbol id="icon-upload" viewBox="0 0 24 24"><path d="M12 15.5v-11"/><path d="m7 9 5-5 5 5"/><path d="M4.5 20h15"/></symbol>
    <symbol id="icon-user" viewBox="0 0 24 24"><circle cx="12" cy="8" r="4"/><path d="M4.5 20.5a7.5 7 0 0 1 15 0z"/></symbol>
    <symbol id="icon-bell" viewBox="0 0 24 24"><path d="M6 17V11a6 6 0 0 1 12 0v6l1.5 2h-15z"/><path d="M10 21.5h4"/></symbol>
    <symbol id="icon-star" viewBox="0 0 24 24"><path d="m12 3.5 2.6 5.6 6 .7-4.5 4.1 1.3 6L12 16.9l-5.4 3 1.3-6L3.4 9.8l6-.7z"/></symbol>
    <symbol id="icon-trash" viewBox="0 0 24 24"><path d="M4 7h16"/><path d="M9 7V4h6v3"/><path d="M6 7l1 13h10l1-13"/><path d="M10 11v5M14 11v5"/></symbol>
    <symbol id="icon-edit" viewBox="0 0 24 24"><path d="M4 20l1-5L16 4l4 4L9 19z"/><path d="m13.5 6.5 4 4"/></symbol>
    <symbol id="icon-plus" viewBox="0 0 24 24"><circle cx="12" cy="12" r="9"/><path d="M12 7.5v9M7.5 12h9"/></symbol>
    <symbol id="icon-minus" viewBox="0 0 24 24"><circle cx="12" cy="12" r="9"/><path d="M7.5 12h9"/></symbol>
    <symbol id="icon-arrow-right" viewBox="0 0 24 24"><path d="M4 12h15"/><path d="m13 6 6 6-6 6"/></symbol>
    <symbol id="icon-arrow-left" viewBox="0 0 24 24"><path d="M20 12H5"/><path d="m11 6-6 6 6 6"/></symbol>
    <symbol id="icon-arrow-up" viewBox="0 0 24 24"><path d="M12 20V5"/><path d="m6 11 6-6 6 6"/></symbol>
    <symbol id="icon-arrow-down" viewBox="0 0 24 24"><path d="M12 4v15"/><path d="m6 13 6 6 6-6"/></symbol>
    <symbol id="icon-calendar" viewBox="0 0 24 24"><rect x="3.5" y="5" width="17" height="15" rx="3"/><path d="M3.5 10h17M8 3v4M16 3v4"/></symbol>
    <symbol id="icon-clock" viewBox="0 0 24 24"><circle cx="12" cy="12" r="9"/><path d="M12 6.5V12l3.5 2"/></symbol>
    <symbol id="icon-mail" viewBox="0 0 24 24"><rect x="3" y="5.5" width="18" height="13" rx="3"/><path d="m4 8 8 6 8-6"/></symbol>
    <symbol id="icon-folder" viewBox="0 0 24 24"><path d="M3.5 7.5a2 2 0 0 1 2-2H10l2 2.5h6.5a2 2 0 0 1 2 2V17a2 2 0 0 1-2 2h-13a2 2 0 0 1-2-2z"/></symbol>
    <symbol id="icon-file" viewBox="0 0 24 24"><path d="M6 3.5h8l4.5 4.5v12.5H6z"/><path d="M14 3.5V8h4.5"/></symbol>
    <symbol id="icon-lock" viewBox="0 0 24 24"><rect x="5" y="10.5" width="14" height="10" rx="2.5"/><path d="M8 10.5V8a4 4 0 0 1 8 0v2.5"/></symbol>
    <symbol id="icon-unlock" viewBox="0 0 24 24"><rect x="5" y="10.5" width="14" height="10" rx="2.5"/><path d="M8 10.5V8a4 4 0 0 1 7.5-1.8"/></symbol>
    <symbol id="icon-power" viewBox="0 0 24 24"><path d="M12 3.5v8"/><path d="M6.5 6.8a8 8 0 1 0 11 0"/></symbol>
    <symbol id="icon-volume" viewBox="0 0 24 24"><path d="M4 9.5h3.5L12 5.5v13l-4.5-4H4z"/><path d="M16 9a4 4 0 0 1 0 6M18.8 6.5a8 8 0 0 1 0 11"/></symbol>
    <symbol id="icon-wifi" viewBox="0 0 24 24"><path d="M3.5 9.5a12 12 0 0 1 17 0"/><path d="M6.8 13a7.5 7.5 0 0 1 10.4 0"/><circle cx="12" cy="17" r="1"/></symbol>
    <symbol id="icon-battery" viewBox="0 0 24 24"><rect x="3" y="7" width="16" height="10" rx="2.5"/><path d="M21.5 10.5v3"/><path d="M7 10.5v3M11 10.5v3"/></symbol>
    <symbol id="icon-globe" viewBox="0 0 24 24"><circle cx="12" cy="12" r="9"/><path d="M3 12h18"/><path d="M12 3c-3.5 3.5-3.5 14.500 0 18M12 3c3.500 3.500 3.500 14.500 0 18"/></symbol>
    <symbol id="icon-map-pin" viewBox="0 0 24 24"><path d="M12 21.5c-4-4.500-6.500-8-6.500-11a6.500 6.500 0 0 1 13 0c0 3-2.500 6.500-6.500 11z"/><circle cx="12" cy="10.500" r="2.200"/></symbol>
    <symbol id="icon-compass" viewBox="0 0 24 24"><circle cx="12" cy="12" r="9"/><path d="m15.500 8.500-2 5-5 2 2-5z"/></symbol>
    <symbol id="icon-activity" viewBox="0 0 24 24"><path d="M3 12h4l2.500-6 4 12 2.500-6H21"/></symbol>
    <symbol id="icon-rocket" viewBox="0 0 24 24"><path d="M12 3c3 2.500 4.500 6 4.500 10L12 17.500 7.500 13C7.500 9 9 5.500 12 3z"/><circle cx="12" cy="10" r="1.600"/><path d="M7.500 13 4.500 15v4l3.500-1.500M16.500 13l3 2v4L16 17.500"/></symbol>
    <symbol id="icon-plane" viewBox="0 0 24 24"><path d="M12 3c1 0 1.500 1 1.500 2.500V9l7 4.500v2.500l-7-2v4l2 1.500V21L12 20l-3.500 1v-1.500l2-1.500v-4l-7 2v-2.500L10.500 9V5.500C10.500 4 11 3 12 3z"/></symbol>
    <symbol id="icon-terminal" viewBox="0 0 24 24"><rect x="3" y="4.500" width="18" height="15" rx="3"/><path d="m7 9.500 3 2.500-3 2.500M12.500 15h4.500"/></symbol>
    <symbol id="icon-eye" viewBox="0 0 24 24"><path d="M2.500 12S6 5.500 12 5.500 21.500 12 21.500 12 18 18.500 12 18.500 2.500 12 2.500 12z"/><circle cx="12" cy="12" r="3"/></symbol>
    <symbol id="icon-help-circle" viewBox="0 0 24 24"><circle cx="12" cy="12" r="9"/><path d="M9.300 9.500a2.800 2.800 0 1 1 3.900 2.600c-.8.400-1.200 1-1.200 1.900"/><circle cx="12" cy="17" r=".6"/></symbol>
    <symbol id="icon-headphones" viewBox="0 0 24 24"><path d="M4 15v-3a8 8 0 0 1 16 0v3"/><rect x="3.500" y="14" width="4" height="6.500" rx="1.500"/><rect x="16.500" y="14" width="4" height="6.500" rx="1.500"/></symbol>
    <symbol id="icon-shield" viewBox="0 0 24 24"><path d="M12 3.500 19.500 6v5.500c0 4.500-3 7.500-7.500 9-4.500-1.500-7.500-4.500-7.500-9V6z"/></symbol>
    <symbol id="icon-link" viewBox="0 0 24 24"><path d="M10 14a4.500 4.500 0 0 0 6.400 0l3-3a4.500 4.500 0 0 0-6.400-6.400l-1 1"/><path d="M14 10a4.500 4.500 0 0 0-6.400 0l-3 3A4.500 4.500 0 0 0 11 19.400l1-1"/></symbol>
    <symbol id="icon-grid" viewBox="0 0 24 24"><rect x="4" y="4" width="6.500" height="6.500" rx="1.800"/><rect x="13.500" y="4" width="6.500" height="6.500" rx="1.800"/><rect x="4" y="13.500" width="6.500" height="6.500" rx="1.800"/><rect x="13.500" y="13.500" width="6.500" height="6.500" rx="1.800"/></symbol>
    <symbol id="icon-list" viewBox="0 0 24 24"><path d="M9.500 6.500H20M9.500 12H20M9.500 17.500H20"/><circle cx="4.800" cy="6.500" r=".8"/><circle cx="4.800" cy="12" r=".8"/><circle cx="4.800" cy="17.500" r=".8"/></symbol>
  </defs>
</svg>
