<svg xmlns="http://www.w3.org/2000/svg" style="display:none">
  <!-- Tokie: fine gold-tooling line glyphs, as a binder's fillet and roll lay
       a line into leather. 24 grid, 1.4 hairline, round caps and joins,
       true curves, small solid round stamps for dots. currentColor only.
       Generated; ids not listed fall back to the generic sprite. -->
  <defs>
    <symbol id="icon-accessible" viewBox="0 0 24 24" stroke-width="1.4" stroke-linecap="round" stroke-linejoin="round"><path d="M3 12a9 9 0 1 0 18 0a9 9 0 1 0 -18 0M8 10.5L12 11.5L16 10.5M12 11.5L12 13.5M9.5 17L12 13.5L14.5 17"/><circle cx="12" cy="7.5" r="1.4" fill="currentColor" stroke="none"/></symbol>
    <symbol id="icon-activity" viewBox="0 0 24 24" stroke-width="1.4" stroke-linecap="round" stroke-linejoin="round"><path d="M3 12L7 12L9 5L13 19L15 12L21 12"/></symbol>
    <symbol id="icon-album" viewBox="0 0 24 24" stroke-width="1.4" stroke-linecap="round" stroke-linejoin="round"><path d="M4 3H20A1 1 0 0 1 21 4V20A1 1 0 0 1 20 21H4A1 1 0 0 1 3 20V4A1 1 0 0 1 4 3ZM7 12a5 5 0 1 0 10 0a5 5 0 1 0 -10 0"/><circle cx="12" cy="12" r="1.2" fill="currentColor" stroke="none"/></symbol>
    <symbol id="icon-archive" viewBox="0 0 24 24" stroke-width="1.4" stroke-linecap="round" stroke-linejoin="round"><path d="M4 4H20A1 1 0 0 1 21 5V7A1 1 0 0 1 20 8H4A1 1 0 0 1 3 7V5A1 1 0 0 1 4 4ZM5 8L5 20L19 20L19 8M10 12L14 12"/></symbol>
    <symbol id="icon-arrow-down" viewBox="0 0 24 24" stroke-width="1.4" stroke-linecap="round" stroke-linejoin="round"><path d="M12 4L12 20M6 14L12 20L18 14"/></symbol>
    <symbol id="icon-arrow-left" viewBox="0 0 24 24" stroke-width="1.4" stroke-linecap="round" stroke-linejoin="round"><path d="M20 12L4 12M10 6L4 12L10 18"/></symbol>
    <symbol id="icon-arrow-right" viewBox="0 0 24 24" stroke-width="1.4" stroke-linecap="round" stroke-linejoin="round"><path d="M4 12L20 12M14 6L20 12L14 18"/></symbol>
    <symbol id="icon-arrow-up" viewBox="0 0 24 24" stroke-width="1.4" stroke-linecap="round" stroke-linejoin="round"><path d="M12 20L12 4M6 10L12 4L18 10"/></symbol>
    <symbol id="icon-at-sign" viewBox="0 0 24 24" stroke-width="1.4" stroke-linecap="round" stroke-linejoin="round"><path d="M8 12a4 4 0 1 0 8 0a4 4 0 1 0 -8 0M16 8L16 13.5M21 13.5A2.5 2.5 0 0 1 16 13.5M15.66 20.22A9 9 0 1 1 21 12M21 12L21 13.5"/></symbol>
    <symbol id="icon-bar-chart" viewBox="0 0 24 24" stroke-width="1.4" stroke-linecap="round" stroke-linejoin="round"><path d="M3 21L21 21M7 17L7 11M12 17L12 5M17 17L17 14"/></symbol>
    <symbol id="icon-battery" viewBox="0 0 24 24" stroke-width="1.4" stroke-linecap="round" stroke-linejoin="round"><path d="M3 7H18A1 1 0 0 1 19 8V16A1 1 0 0 1 18 17H3A1 1 0 0 1 2 16V8A1 1 0 0 1 3 7ZM21.5 10L21.5 14"/><path d="M5 10L12 10L12 14L5 14Z" fill="currentColor"/></symbol>
    <symbol id="icon-battery-charging" viewBox="0 0 24 24" stroke-width="1.4" stroke-linecap="round" stroke-linejoin="round"><path d="M3 7H18A1 1 0 0 1 19 8V16A1 1 0 0 1 18 17H3A1 1 0 0 1 2 16V8A1 1 0 0 1 3 7ZM21.5 10L21.5 14M11.5 8.5L8 12.5L12 11.5L8.5 15.5"/></symbol>
    <symbol id="icon-bell" viewBox="0 0 24 24" stroke-width="1.4" stroke-linecap="round" stroke-linejoin="round"><path d="M6 10A6 6 0 0 1 18 10M6 10L6 15L4.5 17L19.5 17L18 15L18 10M10 20L14 20M12 2.5L12 4"/></symbol>
    <symbol id="icon-bike" viewBox="0 0 24 24" stroke-width="1.4" stroke-linecap="round" stroke-linejoin="round"><path d="M2 16a3.5 3.5 0 1 0 7 0a3.5 3.5 0 1 0 -7 0M15 16a3.5 3.5 0 1 0 7 0a3.5 3.5 0 1 0 -7 0M5.5 16L9 9L12 16L5.5 16M9 9L16 9L18.5 16M12 16L16 9M16 9L15 5.5L17.5 5.5M7.5 7.5L10.5 7.5"/></symbol>
    <symbol id="icon-bluetooth" viewBox="0 0 24 24" stroke-width="1.4" stroke-linecap="round" stroke-linejoin="round"><path d="M7 7.5L17 16.5L12 21L12 3L17 7.5L7 16.5"/></symbol>
    <symbol id="icon-bookmark" viewBox="0 0 24 24" stroke-width="1.4" stroke-linecap="round" stroke-linejoin="round"><path d="M6 3L18 3L18 21L12 16L6 21Z"/></symbol>
    <symbol id="icon-bus" viewBox="0 0 24 24" stroke-width="1.4" stroke-linecap="round" stroke-linejoin="round"><path d="M6 3H18A2 2 0 0 1 20 5V16A2 2 0 0 1 18 18H6A2 2 0 0 1 4 16V5A2 2 0 0 1 6 3ZM4 10L20 10M7 18L7 21M17 18L17 21"/><circle cx="8" cy="14" r="1.2" fill="currentColor" stroke="none"/><circle cx="16" cy="14" r="1.2" fill="currentColor" stroke="none"/></symbol>
    <symbol id="icon-calendar" viewBox="0 0 24 24" stroke-width="1.4" stroke-linecap="round" stroke-linejoin="round"><path d="M4 5H20A1 1 0 0 1 21 6V20A1 1 0 0 1 20 21H4A1 1 0 0 1 3 20V6A1 1 0 0 1 4 5ZM3 10L21 10M8 3L8 7M16 3L16 7"/><path d="M7 13L10 13L10 16L7 16Z" fill="currentColor"/></symbol>
    <symbol id="icon-camera" viewBox="0 0 24 24" stroke-width="1.4" stroke-linecap="round" stroke-linejoin="round"><path d="M4.5 7H19.5A1.5 1.5 0 0 1 21 8.5V18.5A1.5 1.5 0 0 1 19.5 20H4.5A1.5 1.5 0 0 1 3 18.5V8.5A1.5 1.5 0 0 1 4.5 7ZM8 7L9.5 4L14.5 4L16 7M8.5 13.5a3.5 3.5 0 1 0 7 0a3.5 3.5 0 1 0 -7 0"/></symbol>
    <symbol id="icon-car" viewBox="0 0 24 24" stroke-width="1.4" stroke-linecap="round" stroke-linejoin="round"><path d="M3 17L3 12L6 11L8 6L16 6L18 11L21 12L21 17ZM6 11L18 11M5.5 17a2 2 0 1 0 4 0a2 2 0 1 0 -4 0M14.5 17a2 2 0 1 0 4 0a2 2 0 1 0 -4 0"/></symbol>
    <symbol id="icon-caret-down" viewBox="0 0 24 24" stroke-width="1.4" stroke-linecap="round" stroke-linejoin="round"><path d="M6 9L18 9L12 16Z" fill="currentColor"/></symbol>
    <symbol id="icon-caret-right" viewBox="0 0 24 24" stroke-width="1.4" stroke-linecap="round" stroke-linejoin="round"><path d="M9 6L16 12L9 18Z" fill="currentColor"/></symbol>
    <symbol id="icon-caret-up" viewBox="0 0 24 24" stroke-width="1.4" stroke-linecap="round" stroke-linejoin="round"><path d="M6 15L18 15L12 8Z" fill="currentColor"/></symbol>
    <symbol id="icon-cash" viewBox="0 0 24 24" stroke-width="1.4" stroke-linecap="round" stroke-linejoin="round"><path d="M3 6H21A1 1 0 0 1 22 7V17A1 1 0 0 1 21 18H3A1 1 0 0 1 2 17V7A1 1 0 0 1 3 6ZM9 12a3 3 0 1 0 6 0a3 3 0 1 0 -6 0"/><circle cx="6" cy="12" r="1.2" fill="currentColor" stroke="none"/><circle cx="18" cy="12" r="1.2" fill="currentColor" stroke="none"/></symbol>
    <symbol id="icon-chart-histogram" viewBox="0 0 24 24" stroke-width="1.4" stroke-linecap="round" stroke-linejoin="round"><path d="M3 3L3 21L21 21M7 21L7 17M11 21L11 13M15 21L15 15M19 21L19 18M3.84 11.2A9 9 0 0 1 20.16 11.2"/></symbol>
    <symbol id="icon-check" viewBox="0 0 24 24" stroke-width="1.4" stroke-linecap="round" stroke-linejoin="round"><path d="M5 12L10 17L19 7"/></symbol>
    <symbol id="icon-chevron-down" viewBox="0 0 24 24" stroke-width="1.4" stroke-linecap="round" stroke-linejoin="round"><path d="M6 9L12 15L18 9"/></symbol>
    <symbol id="icon-chevron-left" viewBox="0 0 24 24" stroke-width="1.4" stroke-linecap="round" stroke-linejoin="round"><path d="M15 6L9 12L15 18"/></symbol>
    <symbol id="icon-chevron-right" viewBox="0 0 24 24" stroke-width="1.4" stroke-linecap="round" stroke-linejoin="round"><path d="M9 6L15 12L9 18"/></symbol>
    <symbol id="icon-chevron-up" viewBox="0 0 24 24" stroke-width="1.4" stroke-linecap="round" stroke-linejoin="round"><path d="M6 15L12 9L18 15"/></symbol>
    <symbol id="icon-clipboard" viewBox="0 0 24 24" stroke-width="1.4" stroke-linecap="round" stroke-linejoin="round"><path d="M9 4L5 4L5 21L19 21L19 4L15 4M9.5 2.5H14.5A.5 .5 0 0 1 15 3V5.5A.5 .5 0 0 1 14.5 6H9.5A.5 .5 0 0 1 9 5.5V3A.5 .5 0 0 1 9.5 2.5ZM9 11L15 11M9 15L13 15"/></symbol>
    <symbol id="icon-clipboard-check" viewBox="0 0 24 24" stroke-width="1.4" stroke-linecap="round" stroke-linejoin="round"><path d="M9 4L5 4L5 21L19 21L19 4L15 4M9.5 2.5H14.5A.5 .5 0 0 1 15 3V5.5A.5 .5 0 0 1 14.5 6H9.5A.5 .5 0 0 1 9 5.5V3A.5 .5 0 0 1 9.5 2.5ZM8.5 13.5L11 16L15.5 11"/></symbol>
    <symbol id="icon-clock" viewBox="0 0 24 24" stroke-width="1.4" stroke-linecap="round" stroke-linejoin="round"><path d="M3 12a9 9 0 1 0 18 0a9 9 0 1 0 -18 0M12 7L12 12L15.5 14"/></symbol>
    <symbol id="icon-close" viewBox="0 0 24 24" stroke-width="1.4" stroke-linecap="round" stroke-linejoin="round"><path d="M6 6L18 18M18 6L6 18"/></symbol>
    <symbol id="icon-cloud" viewBox="0 0 24 24" stroke-width="1.4" stroke-linecap="round" stroke-linejoin="round"><path d="M8 18A4 4 0 0 1 8 10M8.08 9.63A5 5 0 0 1 17.98 10.06M17.5 10A4 4 0 0 1 17.5 18M8 18L17.5 18"/></symbol>
    <symbol id="icon-cloud-bolt" viewBox="0 0 24 24" stroke-width="1.4" stroke-linecap="round" stroke-linejoin="round"><path d="M8 15A4 4 0 0 1 8 7M8.08 6.63A5 5 0 0 1 17.98 7.06M17.5 7A4 4 0 0 1 17.5 15M8 15L17.5 15M13 16L10.5 19.5L13.5 19.5L11 23"/></symbol>
    <symbol id="icon-cloud-off" viewBox="0 0 24 24" stroke-width="1.4" stroke-linecap="round" stroke-linejoin="round"><path d="M8 18A4 4 0 0 1 8 10M8.08 9.63A5 5 0 0 1 17.98 10.06M17.5 10A4 4 0 0 1 17.5 18M8 18L17.5 18M3 3L21 21"/></symbol>
    <symbol id="icon-cloud-rain" viewBox="0 0 24 24" stroke-width="1.4" stroke-linecap="round" stroke-linejoin="round"><path d="M8 15A4 4 0 0 1 8 7M8.08 6.63A5 5 0 0 1 17.98 7.06M17.5 7A4 4 0 0 1 17.5 15M8 15L17.5 15M8.5 18L7.5 21M12.5 18L11.5 21M16.5 18L15.5 21"/></symbol>
    <symbol id="icon-cloud-snow" viewBox="0 0 24 24" stroke-width="1.4" stroke-linecap="round" stroke-linejoin="round"><path d="M8 15A4 4 0 0 1 8 7M8.08 6.63A5 5 0 0 1 17.98 7.06M17.5 7A4 4 0 0 1 17.5 15M8 15L17.5 15"/><circle cx="8" cy="19" r="1.2" fill="currentColor" stroke="none"/><circle cx="12" cy="21" r="1.2" fill="currentColor" stroke="none"/><circle cx="16" cy="19" r="1.2" fill="currentColor" stroke="none"/></symbol>
    <symbol id="icon-code" viewBox="0 0 24 24" stroke-width="1.4" stroke-linecap="round" stroke-linejoin="round"><path d="M8 7L3 12L8 17M16 7L21 12L16 17M14 5L10 19"/></symbol>
    <symbol id="icon-coin" viewBox="0 0 24 24" stroke-width="1.4" stroke-linecap="round" stroke-linejoin="round"><path d="M3 12a9 9 0 1 0 18 0a9 9 0 1 0 -18 0M12 12A2 2 0 1 1 13.73 9M12 12A2 2 0 1 1 10.27 15M12 6.5L12 8M12 16L12 17.5"/></symbol>
    <symbol id="icon-coins" viewBox="0 0 24 24" stroke-width="1.4" stroke-linecap="round" stroke-linejoin="round"><path d="M3 9a6 6 0 1 0 12 0a6 6 0 1 0 -12 0M17.05 9.36A6 6 0 1 1 9.36 17.05"/></symbol>
    <symbol id="icon-columns" viewBox="0 0 24 24" stroke-width="1.4" stroke-linecap="round" stroke-linejoin="round"><path d="M4 4H20A1 1 0 0 1 21 5V19A1 1 0 0 1 20 20H4A1 1 0 0 1 3 19V5A1 1 0 0 1 4 4ZM9 4L9 20M15 4L15 20"/></symbol>
    <symbol id="icon-compass" viewBox="0 0 24 24" stroke-width="1.4" stroke-linecap="round" stroke-linejoin="round"><path d="M3 12a9 9 0 1 0 18 0a9 9 0 1 0 -18 0M15.5 8.5L13.5 13.5L8.5 15.5L10.5 10.5Z"/><circle cx="12" cy="12" r="1" fill="currentColor" stroke="none"/></symbol>
    <symbol id="icon-copy" viewBox="0 0 24 24" stroke-width="1.4" stroke-linecap="round" stroke-linejoin="round"><path d="M9 8H20A1 1 0 0 1 21 9V20A1 1 0 0 1 20 21H9A1 1 0 0 1 8 20V9A1 1 0 0 1 9 8ZM16 8L16 3L3 3L3 16L8 16"/></symbol>
    <symbol id="icon-cpu" viewBox="0 0 24 24" stroke-width="1.4" stroke-linecap="round" stroke-linejoin="round"><path d="M7 6H17A1 1 0 0 1 18 7V17A1 1 0 0 1 17 18H7A1 1 0 0 1 6 17V7A1 1 0 0 1 7 6ZM9.5 9.5L14.5 9.5L14.5 14.5L9.5 14.5ZM9 3L9 6M15 3L15 6M9 18L9 21M15 18L15 21M3 9L6 9M3 15L6 15M18 9L21 9M18 15L21 15"/></symbol>
    <symbol id="icon-credit-card" viewBox="0 0 24 24" stroke-width="1.4" stroke-linecap="round" stroke-linejoin="round"><path d="M3 5H21A1 1 0 0 1 22 6V18A1 1 0 0 1 21 19H3A1 1 0 0 1 2 18V6A1 1 0 0 1 3 5ZM2 9.5L22 9.5M5 15L10 15"/></symbol>
    <symbol id="icon-database" viewBox="0 0 24 24" stroke-width="1.4" stroke-linecap="round" stroke-linejoin="round"><path d="M4 6a8 3 0 1 0 16 0a8 3 0 1 0 -16 0M4 6L4 18M20 6L20 18M20 18A8 3 0 0 1 4 18M20 12A8 3 0 0 1 4 12"/></symbol>
    <symbol id="icon-device-desktop" viewBox="0 0 24 24" stroke-width="1.4" stroke-linecap="round" stroke-linejoin="round"><path d="M3 4H21A1 1 0 0 1 22 5V16A1 1 0 0 1 21 17H3A1 1 0 0 1 2 16V5A1 1 0 0 1 3 4ZM8 21L16 21M12 17L12 21"/></symbol>
    <symbol id="icon-device-gamepad" viewBox="0 0 24 24" stroke-width="1.4" stroke-linecap="round" stroke-linejoin="round"><path d="M6 6H18A4 4 0 0 1 22 10V14A4 4 0 0 1 18 18H6A4 4 0 0 1 2 14V10A4 4 0 0 1 6 6ZM5.5 12L10.5 12M8 9.5L8 14.5"/><circle cx="15.5" cy="10.5" r="1.2" fill="currentColor" stroke="none"/><circle cx="17.5" cy="13.5" r="1.2" fill="currentColor" stroke="none"/></symbol>
    <symbol id="icon-device-laptop" viewBox="0 0 24 24" stroke-width="1.4" stroke-linecap="round" stroke-linejoin="round"><path d="M5 5H19A1 1 0 0 1 20 6V15A1 1 0 0 1 19 16H5A1 1 0 0 1 4 15V6A1 1 0 0 1 5 5ZM2 19L22 19"/></symbol>
    <symbol id="icon-device-mobile" viewBox="0 0 24 24" stroke-width="1.4" stroke-linecap="round" stroke-linejoin="round"><path d="M8 2H16A2 2 0 0 1 18 4V20A2 2 0 0 1 16 22H8A2 2 0 0 1 6 20V4A2 2 0 0 1 8 2ZM11 18L13 18"/></symbol>
    <symbol id="icon-device-tablet" viewBox="0 0 24 24" stroke-width="1.4" stroke-linecap="round" stroke-linejoin="round"><path d="M6 3H18A2 2 0 0 1 20 5V19A2 2 0 0 1 18 21H6A2 2 0 0 1 4 19V5A2 2 0 0 1 6 3Z"/><circle cx="12" cy="18" r="1.2" fill="currentColor" stroke="none"/></symbol>
    <symbol id="icon-device-watch" viewBox="0 0 24 24" stroke-width="1.4" stroke-linecap="round" stroke-linejoin="round"><path d="M9 6H15A2 2 0 0 1 17 8V16A2 2 0 0 1 15 18H9A2 2 0 0 1 7 16V8A2 2 0 0 1 9 6ZM9 6L9.5 2.5L14.5 2.5L15 6M9 18L9.5 21.5L14.5 21.5L15 18M12 9.5L12 12L14 12"/></symbol>
    <symbol id="icon-disc" viewBox="0 0 24 24" stroke-width="1.4" stroke-linecap="round" stroke-linejoin="round"><path d="M3 12a9 9 0 1 0 18 0a9 9 0 1 0 -18 0M9.5 12a2.5 2.5 0 1 0 5 0a2.5 2.5 0 1 0 -5 0M6.69 10.58A5.5 5.5 0 0 1 10.58 6.69"/></symbol>
    <symbol id="icon-discount" viewBox="0 0 24 24" stroke-width="1.4" stroke-linecap="round" stroke-linejoin="round"><path d="M3 12a9 9 0 1 0 18 0a9 9 0 1 0 -18 0M9 15L15 9"/><circle cx="9.5" cy="9.5" r="1.2" fill="currentColor" stroke="none"/><circle cx="14.5" cy="14.5" r="1.2" fill="currentColor" stroke="none"/></symbol>
    <symbol id="icon-download" viewBox="0 0 24 24" stroke-width="1.4" stroke-linecap="round" stroke-linejoin="round"><path d="M12 3L12 15M7 10L12 15L17 10M4 17L4 20L20 20L20 17"/></symbol>
    <symbol id="icon-droplet-heart" viewBox="0 0 24 24" stroke-width="1.4" stroke-linecap="round" stroke-linejoin="round"><path d="M16.85 10.97A6 6 0 1 1 7.15 10.97M7.15 10.97L12 3L16.85 10.97"/><path d="M12 18.5L9.3 15.5L9.3 13.8L10.5 12.6L12 14L13.5 12.6L14.7 13.8L14.7 15.5Z" fill="currentColor"/></symbol>
    <symbol id="icon-edit" viewBox="0 0 24 24" stroke-width="1.4" stroke-linecap="round" stroke-linejoin="round"><path d="M4 20L4 16L15 5L19 9L8 20ZM13 7L17 11M13 20L20 20"/></symbol>
    <symbol id="icon-external-link" viewBox="0 0 24 24" stroke-width="1.4" stroke-linecap="round" stroke-linejoin="round"><path d="M14 4L20 4L20 10M20 4L11 13M18 14L18 20L4 20L4 6L10 6"/></symbol>
    <symbol id="icon-eye" viewBox="0 0 24 24" stroke-width="1.4" stroke-linecap="round" stroke-linejoin="round"><path d="M2 12.01A11.33 11.33 0 0 1 22 12.01M22 11.99A11.33 11.33 0 0 1 2 11.99M9 12a3 3 0 1 0 6 0a3 3 0 1 0 -6 0"/></symbol>
    <symbol id="icon-eye-off" viewBox="0 0 24 24" stroke-width="1.4" stroke-linecap="round" stroke-linejoin="round"><path d="M2 12.01A11.33 11.33 0 0 1 22 12.01M22 11.99A11.33 11.33 0 0 1 2 11.99M9 12a3 3 0 1 0 6 0a3 3 0 1 0 -6 0M3 3L21 21"/></symbol>
    <symbol id="icon-file" viewBox="0 0 24 24" stroke-width="1.4" stroke-linecap="round" stroke-linejoin="round"><path d="M6 3L14 3L18 7L18 21L6 21ZM14 3L14 7L18 7"/></symbol>
    <symbol id="icon-file-alert" viewBox="0 0 24 24" stroke-width="1.4" stroke-linecap="round" stroke-linejoin="round"><path d="M6 3L14 3L18 7L18 21L6 21ZM14 3L14 7L18 7M12 10L12 14"/><circle cx="12" cy="17" r="1.2" fill="currentColor" stroke="none"/></symbol>
    <symbol id="icon-file-check" viewBox="0 0 24 24" stroke-width="1.4" stroke-linecap="round" stroke-linejoin="round"><path d="M6 3L14 3L18 7L18 21L6 21ZM14 3L14 7L18 7M9 14L11 16L15 12"/></symbol>
    <symbol id="icon-file-code" viewBox="0 0 24 24" stroke-width="1.4" stroke-linecap="round" stroke-linejoin="round"><path d="M6 3L14 3L18 7L18 21L6 21ZM14 3L14 7L18 7M10.5 11L8.5 14L10.5 17M13.5 11L15.5 14L13.5 17"/></symbol>
    <symbol id="icon-file-music" viewBox="0 0 24 24" stroke-width="1.4" stroke-linecap="round" stroke-linejoin="round"><path d="M6 3L14 3L18 7L18 21L6 21ZM14 3L14 7L18 7M9 16.5a1.5 1.5 0 1 0 3 0a1.5 1.5 0 1 0 -3 0M12 16.5L12 10L15 11"/></symbol>
    <symbol id="icon-file-plus" viewBox="0 0 24 24" stroke-width="1.4" stroke-linecap="round" stroke-linejoin="round"><path d="M6 3L14 3L18 7L18 21L6 21ZM14 3L14 7L18 7M12 11L12 17M9 14L15 14"/></symbol>
    <symbol id="icon-files" viewBox="0 0 24 24" stroke-width="1.4" stroke-linecap="round" stroke-linejoin="round"><path d="M8 2L15 2L19 6L19 17L8 17ZM15 2L15 6L19 6M5 6L5 21L15 21"/></symbol>
    <symbol id="icon-file-spreadsheet" viewBox="0 0 24 24" stroke-width="1.4" stroke-linecap="round" stroke-linejoin="round"><path d="M6 3L14 3L18 7L18 21L6 21ZM14 3L14 7L18 7M8.5 11L15.5 11L15.5 18L8.5 18ZM8.5 14.5L15.5 14.5M12 11L12 18"/></symbol>
    <symbol id="icon-file-text" viewBox="0 0 24 24" stroke-width="1.4" stroke-linecap="round" stroke-linejoin="round"><path d="M6 3L14 3L18 7L18 21L6 21ZM14 3L14 7L18 7M9 11L15 11M9 14.5L15 14.5M9 18L13 18"/></symbol>
    <symbol id="icon-file-type-pdf" viewBox="0 0 24 24" stroke-width="1.4" stroke-linecap="round" stroke-linejoin="round"><path d="M6 3L14 3L18 7L18 21L6 21ZM14 3L14 7L18 7M9.5 18L9.5 10.5L12.5 10.5L14 12L14 13L12.5 14.5L9.5 14.5"/></symbol>
    <symbol id="icon-file-type-png" viewBox="0 0 24 24" stroke-width="1.4" stroke-linecap="round" stroke-linejoin="round"><path d="M6 3L14 3L18 7L18 21L6 21ZM14 3L14 7L18 7M8.5 18L11.5 14L14 16.5L15.5 15L16 15.5"/><circle cx="13" cy="10.5" r="1.3" fill="currentColor" stroke="none"/></symbol>
    <symbol id="icon-file-zip" viewBox="0 0 24 24" stroke-width="1.4" stroke-linecap="round" stroke-linejoin="round"><path d="M6 3L14 3L18 7L18 21L6 21ZM14 3L14 7L18 7M11 3L11 10M9 5L11 5M11 7.5L13 7.5M9.5 10L12.5 10L12.5 14L9.5 14Z"/></symbol>
    <symbol id="icon-filter" viewBox="0 0 24 24" stroke-width="1.4" stroke-linecap="round" stroke-linejoin="round"><path d="M3 4L21 4L14 12.5L14 19L10 21L10 12.5Z"/></symbol>
    <symbol id="icon-fingerprint" viewBox="0 0 24 24" stroke-width="1.4" stroke-linecap="round" stroke-linejoin="round"><path d="M3.5 12A8.5 8.5 0 0 1 20.5 12M3.5 12L3.5 14.5M20.5 12L20.5 15M6.5 12A5.5 5.5 0 0 1 17.5 12M6.5 12L6.5 18M17.5 12L17.5 20M9.5 12A2.5 2.5 0 0 1 14.5 12M9.5 12L9.5 21M14.5 12L14.5 17"/></symbol>
    <symbol id="icon-folder" viewBox="0 0 24 24" stroke-width="1.4" stroke-linecap="round" stroke-linejoin="round"><path d="M3 5L9 5L11 7.5L21 7.5L21 19L3 19Z"/></symbol>
    <symbol id="icon-frame" viewBox="0 0 24 24" stroke-width="1.4" stroke-linecap="round" stroke-linejoin="round"><path d="M4 7L20 7M4 17L20 17M7 4L7 20M17 4L17 20"/></symbol>
    <symbol id="icon-gift" viewBox="0 0 24 24" stroke-width="1.4" stroke-linecap="round" stroke-linejoin="round"><path d="M3 8L21 8L21 12L3 12ZM5 12L5 21L19 21L19 12M12 8L12 21M12 8L9 4L6.5 5.5L8 8M12 8L15 4L17.5 5.5L16 8"/></symbol>
    <symbol id="icon-globe" viewBox="0 0 24 24" stroke-width="1.4" stroke-linecap="round" stroke-linejoin="round"><path d="M3 12a9 9 0 1 0 18 0a9 9 0 1 0 -18 0M3 12L21 12M8 12a4 9 0 1 0 8 0a4 9 0 1 0 -8 0"/></symbol>
    <symbol id="icon-gps" viewBox="0 0 24 24" stroke-width="1.4" stroke-linecap="round" stroke-linejoin="round"><path d="M3 12a9 9 0 1 0 18 0a9 9 0 1 0 -18 0M12 17L11 13L7 12L16 8Z"/></symbol>
    <symbol id="icon-grid" viewBox="0 0 24 24" stroke-width="1.4" stroke-linecap="round" stroke-linejoin="round"><path d="M4 3H10A1 1 0 0 1 11 4V10A1 1 0 0 1 10 11H4A1 1 0 0 1 3 10V4A1 1 0 0 1 4 3ZM14 3H20A1 1 0 0 1 21 4V10A1 1 0 0 1 20 11H14A1 1 0 0 1 13 10V4A1 1 0 0 1 14 3ZM4 13H10A1 1 0 0 1 11 14V20A1 1 0 0 1 10 21H4A1 1 0 0 1 3 20V14A1 1 0 0 1 4 13ZM14 13H20A1 1 0 0 1 21 14V20A1 1 0 0 1 20 21H14A1 1 0 0 1 13 20V14A1 1 0 0 1 14 13Z"/></symbol>
    <symbol id="icon-hard-drive" viewBox="0 0 24 24" stroke-width="1.4" stroke-linecap="round" stroke-linejoin="round"><path d="M4 13H20A1 1 0 0 1 21 14V19A1 1 0 0 1 20 20H4A1 1 0 0 1 3 19V14A1 1 0 0 1 4 13ZM3 13L6 5L18 5L21 13M6 16.5L11 16.5"/><circle cx="17" cy="16.5" r="1.2" fill="currentColor" stroke="none"/></symbol>
    <symbol id="icon-hash" viewBox="0 0 24 24" stroke-width="1.4" stroke-linecap="round" stroke-linejoin="round"><path d="M4 9L20 9M4 15L20 15M10 3L8 21M16 3L14 21"/></symbol>
    <symbol id="icon-headphones" viewBox="0 0 24 24" stroke-width="1.4" stroke-linecap="round" stroke-linejoin="round"><path d="M4 13A8 8 0 0 1 20 13M5 13H7A1 1 0 0 1 8 14V19A1 1 0 0 1 7 20H5A1 1 0 0 1 4 19V14A1 1 0 0 1 5 13ZM17 13H19A1 1 0 0 1 20 14V19A1 1 0 0 1 19 20H17A1 1 0 0 1 16 19V14A1 1 0 0 1 17 13Z"/></symbol>
    <symbol id="icon-heart" viewBox="0 0 24 24" stroke-width="1.4" stroke-linecap="round" stroke-linejoin="round"><path d="M5.03 11.97A4.2 4.2 0 1 1 12 7.72M12 7.72A4.2 4.2 0 1 1 18.97 11.97M5.03 11.97L12 19L18.97 11.97"/></symbol>
    <symbol id="icon-help-circle" viewBox="0 0 24 24" stroke-width="1.4" stroke-linecap="round" stroke-linejoin="round"><path d="M3 12a9 9 0 1 0 18 0a9 9 0 1 0 -18 0M9.5 9.5A2.5 2.5 0 1 1 13.25 11.67M13.25 11.67L12 12.8L12 14"/><circle cx="12" cy="17" r="1.2" fill="currentColor" stroke="none"/></symbol>
    <symbol id="icon-home" viewBox="0 0 24 24" stroke-width="1.4" stroke-linecap="round" stroke-linejoin="round"><path d="M3 11L12 3L21 11M5 9.5L5 21L19 21L19 9.5M10 21L10 15L14 15L14 21"/></symbol>
    <symbol id="icon-hourglass" viewBox="0 0 24 24" stroke-width="1.4" stroke-linecap="round" stroke-linejoin="round"><path d="M7 3L17 3L17 6L12 12L7 6ZM7 21L17 21L17 18L12 12L7 18Z"/><path d="M9.5 20L14.5 20L12 17Z" fill="currentColor"/></symbol>
    <symbol id="icon-image" viewBox="0 0 24 24" stroke-width="1.4" stroke-linecap="round" stroke-linejoin="round"><path d="M4 4H20A1 1 0 0 1 21 5V19A1 1 0 0 1 20 20H4A1 1 0 0 1 3 19V5A1 1 0 0 1 4 4ZM7.2 9.5a1.8 1.8 0 1 0 3.6 0a1.8 1.8 0 1 0 -3.6 0M3 18L9 12L13 16L16 13L21 17"/></symbol>
    <symbol id="icon-info" viewBox="0 0 24 24" stroke-width="1.4" stroke-linecap="round" stroke-linejoin="round"><path d="M3 12a9 9 0 1 0 18 0a9 9 0 1 0 -18 0M12 11L12 17"/><circle cx="12" cy="7.5" r="1.2" fill="currentColor" stroke="none"/></symbol>
    <symbol id="icon-invoice" viewBox="0 0 24 24" stroke-width="1.4" stroke-linecap="round" stroke-linejoin="round"><path d="M6 3L14 3L18 7L18 21L6 21ZM14 3L14 7L18 7M9 9L11.5 9M9 12L15 12L15 15L9 15ZM12.5 18L15 18"/></symbol>
    <symbol id="icon-key" viewBox="0 0 24 24" stroke-width="1.4" stroke-linecap="round" stroke-linejoin="round"><path d="M3.5 15a4.5 4.5 0 1 0 9 0a4.5 4.5 0 1 0 -9 0M11.2 11.8L20 3M15.5 7.5L18 10M18 5L20.5 7.5"/></symbol>
    <symbol id="icon-keyboard" viewBox="0 0 24 24" stroke-width="1.4" stroke-linecap="round" stroke-linejoin="round"><path d="M3 6H21A1 1 0 0 1 22 7V17A1 1 0 0 1 21 18H3A1 1 0 0 1 2 17V7A1 1 0 0 1 3 6ZM7.5 14L16.5 14"/><circle cx="6" cy="10" r="1.1" fill="currentColor" stroke="none"/><circle cx="10" cy="10" r="1.1" fill="currentColor" stroke="none"/><circle cx="14" cy="10" r="1.1" fill="currentColor" stroke="none"/><circle cx="18" cy="10" r="1.1" fill="currentColor" stroke="none"/></symbol>
    <symbol id="icon-layers" viewBox="0 0 24 24" stroke-width="1.4" stroke-linecap="round" stroke-linejoin="round"><path d="M12 3L21 8L12 13L3 8ZM3 12L12 17L21 12M3 16L12 21L21 16"/></symbol>
    <symbol id="icon-layout" viewBox="0 0 24 24" stroke-width="1.4" stroke-linecap="round" stroke-linejoin="round"><path d="M4 3H20A1 1 0 0 1 21 4V20A1 1 0 0 1 20 21H4A1 1 0 0 1 3 20V4A1 1 0 0 1 4 3ZM3 9L21 9M9 9L9 21"/></symbol>
    <symbol id="icon-link" viewBox="0 0 24 24" stroke-width="1.4" stroke-linecap="round" stroke-linejoin="round"><path d="M6.5 16A4 4 0 0 1 6.5 8M6.5 8L10 8M6.5 16L10 16M17.5 8A4 4 0 0 1 17.5 16M17.5 8L14 8M17.5 16L14 16M8 12L16 12"/></symbol>
    <symbol id="icon-list" viewBox="0 0 24 24" stroke-width="1.4" stroke-linecap="round" stroke-linejoin="round"><path d="M9 6L20 6M9 12L20 12M9 18L20 18"/><circle cx="5" cy="6" r="1.3" fill="currentColor" stroke="none"/><circle cx="5" cy="12" r="1.3" fill="currentColor" stroke="none"/><circle cx="5" cy="18" r="1.3" fill="currentColor" stroke="none"/></symbol>
    <symbol id="icon-lock" viewBox="0 0 24 24" stroke-width="1.4" stroke-linecap="round" stroke-linejoin="round"><path d="M6 11H18A1 1 0 0 1 19 12V20A1 1 0 0 1 18 21H6A1 1 0 0 1 5 20V12A1 1 0 0 1 6 11ZM8 11L8 7.5M8 7.5A4 4 0 0 1 16 7.5M16 7.5L16 11"/><circle cx="12" cy="16" r="1.3" fill="currentColor" stroke="none"/></symbol>
    <symbol id="icon-logout" viewBox="0 0 24 24" stroke-width="1.4" stroke-linecap="round" stroke-linejoin="round"><path d="M10 3L4 3L4 21L10 21M16 7L21 12L16 17M21 12L9 12"/></symbol>
    <symbol id="icon-mail" viewBox="0 0 24 24" stroke-width="1.4" stroke-linecap="round" stroke-linejoin="round"><path d="M4 5H20A1 1 0 0 1 21 6V18A1 1 0 0 1 20 19H4A1 1 0 0 1 3 18V6A1 1 0 0 1 4 5ZM3 7L12 13L21 7"/></symbol>
    <symbol id="icon-mailbox" viewBox="0 0 24 24" stroke-width="1.4" stroke-linecap="round" stroke-linejoin="round"><path d="M3 14A3.5 3.5 0 0 1 10 14M3 14L3 21L21 21L21 14.5M6.5 10.5L17 10.5M17 10.5A4 4 0 0 1 21 14.5M10 14L10 21M13 10.5L13 3.5L17 3.5L17 6.5L13 6.5M5 15.5L8 15.5"/></symbol>
    <symbol id="icon-mail-forward" viewBox="0 0 24 24" stroke-width="1.4" stroke-linecap="round" stroke-linejoin="round"><path d="M13 18L3 18L3 5L21 5L21 12M3 7L12 13L21 7M15 19L21 19M18 16L21 19L18 22"/></symbol>
    <symbol id="icon-mail-opened" viewBox="0 0 24 24" stroke-width="1.4" stroke-linecap="round" stroke-linejoin="round"><path d="M3 9L12 3L21 9L21 20L3 20ZM3 9L12 15L21 9M3 20L10 14M21 20L14 14"/></symbol>
    <symbol id="icon-map" viewBox="0 0 24 24" stroke-width="1.4" stroke-linecap="round" stroke-linejoin="round"><path d="M3 6L9 3L15 6L21 3L21 18L15 21L9 18L3 21ZM9 3L9 18M15 6L15 21"/></symbol>
    <symbol id="icon-map-pin" viewBox="0 0 24 24" stroke-width="1.4" stroke-linecap="round" stroke-linejoin="round"><path d="M7.05 14.95A7 7 0 1 1 16.95 14.95M7.05 14.95L12 21L16.95 14.95M9.5 10a2.5 2.5 0 1 0 5 0a2.5 2.5 0 1 0 -5 0"/></symbol>
    <symbol id="icon-map-question" viewBox="0 0 24 24" stroke-width="1.4" stroke-linecap="round" stroke-linejoin="round"><path d="M15 20L9 17L3 20L3 7L9 4L15 7L21 4L21 11M9 4L9 17M15 7L15 13M17 15.5A2 2 0 1 1 20 17.23M20 17.23L19 18L19 19"/><circle cx="19" cy="21.5" r="1.1" fill="currentColor" stroke="none"/></symbol>
    <symbol id="icon-maximize" viewBox="0 0 24 24" stroke-width="1.4" stroke-linecap="round" stroke-linejoin="round"><path d="M3 8L3 3L8 3M16 3L21 3L21 8M21 16L21 21L16 21M8 21L3 21L3 16"/></symbol>
    <symbol id="icon-menu" viewBox="0 0 24 24" stroke-width="1.4" stroke-linecap="round" stroke-linejoin="round"><path d="M4 6L20 6M4 12L20 12M4 18L20 18"/></symbol>
    <symbol id="icon-message" viewBox="0 0 24 24" stroke-width="1.4" stroke-linecap="round" stroke-linejoin="round"><path d="M3 4L21 4L21 17L12 17L7 21L7 17L3 17ZM7 8.5L17 8.5M7 12.5L14 12.5"/></symbol>
    <symbol id="icon-message-circle" viewBox="0 0 24 24" stroke-width="1.4" stroke-linecap="round" stroke-linejoin="round"><path d="M5.04 15.88A8.5 8.5 0 1 1 7.12 17.96M5.04 15.88L3.5 20.5L7.12 17.96"/></symbol>
    <symbol id="icon-message-reply" viewBox="0 0 24 24" stroke-width="1.4" stroke-linecap="round" stroke-linejoin="round"><path d="M3 4L21 4L21 17L12 17L7 21L7 17L3 17ZM11 7.5L8 10.5L11 13.5M8 10.5L16 10.5"/></symbol>
    <symbol id="icon-microphone" viewBox="0 0 24 24" stroke-width="1.4" stroke-linecap="round" stroke-linejoin="round"><path d="M12 3H12A3 3 0 0 1 15 6V11A3 3 0 0 1 12 14H12A3 3 0 0 1 9 11V6A3 3 0 0 1 12 3ZM18.5 11A6.5 6.5 0 0 1 5.5 11M12 17.5L12 21M9 21L15 21"/></symbol>
    <symbol id="icon-minimize" viewBox="0 0 24 24" stroke-width="1.4" stroke-linecap="round" stroke-linejoin="round"><path d="M8 3L8 8L3 8M16 3L16 8L21 8M21 16L16 16L16 21M3 16L8 16L8 21"/></symbol>
    <symbol id="icon-minus" viewBox="0 0 24 24" stroke-width="1.4" stroke-linecap="round" stroke-linejoin="round"><path d="M5 12L19 12"/></symbol>
    <symbol id="icon-moon" viewBox="0 0 24 24" stroke-width="1.4" stroke-linecap="round" stroke-linejoin="round"><path d="M20.89 13.41A9 9 0 1 1 10.59 3.11M20.89 13.42A7.5 7.5 0 0 1 10.58 3.11"/></symbol>
    <symbol id="icon-moon-stars" viewBox="0 0 24 24" stroke-width="1.4" stroke-linecap="round" stroke-linejoin="round"><path d="M17.44 14.91A7.5 7.5 0 1 1 9.09 6.56M17.44 14.91A6 6 0 0 1 9.09 6.56M18 2.5L18 7.5M15.5 5L20.5 5"/><circle cx="20.5" cy="11" r="1.1" fill="currentColor" stroke="none"/></symbol>
    <symbol id="icon-more-horizontal" viewBox="0 0 24 24" stroke-width="1.4" stroke-linecap="round" stroke-linejoin="round"><circle cx="5" cy="12" r="1.6" fill="currentColor" stroke="none"/><circle cx="12" cy="12" r="1.6" fill="currentColor" stroke="none"/><circle cx="19" cy="12" r="1.6" fill="currentColor" stroke="none"/></symbol>
    <symbol id="icon-mouse" viewBox="0 0 24 24" stroke-width="1.4" stroke-linecap="round" stroke-linejoin="round"><path d="M12 3H12A6 6 0 0 1 18 9V15A6 6 0 0 1 12 21H12A6 6 0 0 1 6 15V9A6 6 0 0 1 12 3ZM12 7L12 10"/></symbol>
    <symbol id="icon-movie" viewBox="0 0 24 24" stroke-width="1.4" stroke-linecap="round" stroke-linejoin="round"><path d="M4 3H20A1 1 0 0 1 21 4V20A1 1 0 0 1 20 21H4A1 1 0 0 1 3 20V4A1 1 0 0 1 4 3ZM8 3L8 21M16 3L16 21M3 8L8 8M3 16L8 16M16 8L21 8M16 16L21 16M3 12L21 12"/></symbol>
    <symbol id="icon-music" viewBox="0 0 24 24" stroke-width="1.4" stroke-linecap="round" stroke-linejoin="round"><path d="M9 17L9 5L20 3L20 15M9 9L20 7M4 17a2.5 2.5 0 1 0 5 0a2.5 2.5 0 1 0 -5 0M15 15a2.5 2.5 0 1 0 5 0a2.5 2.5 0 1 0 -5 0"/></symbol>
    <symbol id="icon-music-note" viewBox="0 0 24 24" stroke-width="1.4" stroke-linecap="round" stroke-linejoin="round"><path d="M8 17a3 3 0 1 0 6 0a3 3 0 1 0 -6 0M14 17L14 3L19 5.5"/></symbol>
    <symbol id="icon-network" viewBox="0 0 24 24" stroke-width="1.4" stroke-linecap="round" stroke-linejoin="round"><path d="M6 9a6 6 0 1 0 12 0a6 6 0 1 0 -12 0M6 9L18 9M9.5 9a2.5 6 0 1 0 5 0a2.5 6 0 1 0 -5 0M12 15L12 18M3 20L10 20M14 20L21 20M10 20a2 2 0 1 0 4 0a2 2 0 1 0 -4 0"/></symbol>
    <symbol id="icon-palette" viewBox="0 0 24 24" stroke-width="1.4" stroke-linecap="round" stroke-linejoin="round"><path d="M15.08 20.46A9 9 0 1 1 20.46 15.08M20.46 15.08L17 14.5L15 16.5L15.08 20.46"/><circle cx="7.5" cy="10.5" r="1.2" fill="currentColor" stroke="none"/><circle cx="11" cy="7" r="1.2" fill="currentColor" stroke="none"/><circle cx="15.5" cy="8" r="1.2" fill="currentColor" stroke="none"/><circle cx="7.5" cy="15" r="1.2" fill="currentColor" stroke="none"/></symbol>
    <symbol id="icon-parking" viewBox="0 0 24 24" stroke-width="1.4" stroke-linecap="round" stroke-linejoin="round"><path d="M4 3H20A1 1 0 0 1 21 4V20A1 1 0 0 1 20 21H4A1 1 0 0 1 3 20V4A1 1 0 0 1 4 3ZM10 17L10 7L13.5 7M13.5 7A2.5 2.5 0 0 1 13.5 12M13.5 12L10 12"/></symbol>
    <symbol id="icon-pause" viewBox="0 0 24 24" stroke-width="1.4" stroke-linecap="round" stroke-linejoin="round"><path d="M6 4L10 4L10 20L6 20ZM14 4L18 4L18 20L14 20Z"/></symbol>
    <symbol id="icon-phone" viewBox="0 0 24 24" stroke-width="1.4" stroke-linecap="round" stroke-linejoin="round"><path d="M4 5L6 3L9 3L11 8L8.5 10L14 15.5L16 13L21 15L21 18L19 20M18.99 20A16.03 16.03 0 0 1 4 5.01"/></symbol>
    <symbol id="icon-pie-chart" viewBox="0 0 24 24" stroke-width="1.4" stroke-linecap="round" stroke-linejoin="round"><path d="M19 13A8 8 0 1 1 11 5M11 5L11 13L19 13M14 3L14 10L21 10M14 3A7 7 0 0 1 21 10"/></symbol>
    <symbol id="icon-pin" viewBox="0 0 24 24" stroke-width="1.4" stroke-linecap="round" stroke-linejoin="round"><path d="M9 3L15 3L14 9L17 13L7 13L10 9ZM12 13L12 21"/></symbol>
    <symbol id="icon-plane" viewBox="0 0 24 24" stroke-width="1.4" stroke-linecap="round" stroke-linejoin="round"><path d="M12 2.5L13.5 4L13.5 9.5L21 14L21 15.5L13.5 13.5L13.5 18.5L16 20.5L16 21.5L12 20.5L8 21.5L8 20.5L10.5 18.5L10.5 13.5L3 15.5L3 14L10.5 9.5L10.5 4Z"/></symbol>
    <symbol id="icon-play" viewBox="0 0 24 24" stroke-width="1.4" stroke-linecap="round" stroke-linejoin="round"><path d="M7 4L7 20L20 12Z"/></symbol>
    <symbol id="icon-player-play" viewBox="0 0 24 24" stroke-width="1.4" stroke-linecap="round" stroke-linejoin="round"><path d="M7 4L7 20L20 12Z" fill="currentColor"/></symbol>
    <symbol id="icon-playlist" viewBox="0 0 24 24" stroke-width="1.4" stroke-linecap="round" stroke-linejoin="round"><path d="M3 6L15 6M3 11L15 11M3 16L10 16M13 17.5a2.5 2.5 0 1 0 5 0a2.5 2.5 0 1 0 -5 0M18 17.5L18 4L21 4"/></symbol>
    <symbol id="icon-plus" viewBox="0 0 24 24" stroke-width="1.4" stroke-linecap="round" stroke-linejoin="round"><path d="M12 5L12 19M5 12L19 12"/></symbol>
    <symbol id="icon-power" viewBox="0 0 24 24" stroke-width="1.4" stroke-linecap="round" stroke-linejoin="round"><path d="M16 6.07A8 8 0 1 1 8 6.07M12 3L12 12"/></symbol>
    <symbol id="icon-print" viewBox="0 0 24 24" stroke-width="1.4" stroke-linecap="round" stroke-linejoin="round"><path d="M6 8L6 3L18 3L18 8M4 8H20A1 1 0 0 1 21 9V16A1 1 0 0 1 20 17H4A1 1 0 0 1 3 16V9A1 1 0 0 1 4 8ZM7 14L17 14L17 21L7 21Z"/><circle cx="17.5" cy="11" r="1" fill="currentColor" stroke="none"/></symbol>
    <symbol id="icon-rainbow" viewBox="0 0 24 24" stroke-width="1.4" stroke-linecap="round" stroke-linejoin="round"><path d="M2 18A10 10 0 0 1 22 18M5.5 18A6.5 6.5 0 0 1 18.5 18M9 18A3 3 0 0 1 15 18"/></symbol>
    <symbol id="icon-receipt" viewBox="0 0 24 24" stroke-width="1.4" stroke-linecap="round" stroke-linejoin="round"><path d="M5 3L19 3L19 21L16.5 19L14 21L12 19L10 21L7.5 19L5 21ZM9 8L15 8M9 12L15 12M11 16L15 16"/></symbol>
    <symbol id="icon-refresh" viewBox="0 0 24 24" stroke-width="1.4" stroke-linecap="round" stroke-linejoin="round"><path d="M20 12A8 8 0 1 1 12 4M9 1L12 4L9 7"/></symbol>
    <symbol id="icon-repeat" viewBox="0 0 24 24" stroke-width="1.4" stroke-linecap="round" stroke-linejoin="round"><path d="M4 12L4 7L20 7M17 4L20 7L17 10M20 12L20 17L4 17M7 14L4 17L7 20"/></symbol>
    <symbol id="icon-road" viewBox="0 0 24 24" stroke-width="1.4" stroke-linecap="round" stroke-linejoin="round"><path d="M4 20L9 4M15 4L20 20M12 6L12 8M12 11L12 13M12 16L12 18"/></symbol>
    <symbol id="icon-rocket" viewBox="0 0 24 24" stroke-width="1.4" stroke-linecap="round" stroke-linejoin="round"><path d="M12 2.5L15.5 6.5L15.5 15L8.5 15L8.5 6.5ZM8.5 11L5.5 14L5.5 17L8.5 15M15.5 11L18.5 14L18.5 17L15.5 15M10.4 9a1.6 1.6 0 1 0 3.2 0a1.6 1.6 0 1 0 -3.2 0M10.5 18L12 21.5L13.5 18"/></symbol>
    <symbol id="icon-save" viewBox="0 0 24 24" stroke-width="1.4" stroke-linecap="round" stroke-linejoin="round"><path d="M3 3L17 3L21 7L21 21L3 21ZM7 3L7 8L15 8L15 3M7 13L17 13L17 21L7 21Z"/></symbol>
    <symbol id="icon-search" viewBox="0 0 24 24" stroke-width="1.4" stroke-linecap="round" stroke-linejoin="round"><path d="M3.5 10.5a7 7 0 1 0 14 0a7 7 0 1 0 -14 0M15.5 15.5L21 21"/></symbol>
    <symbol id="icon-server" viewBox="0 0 24 24" stroke-width="1.4" stroke-linecap="round" stroke-linejoin="round"><path d="M4 3H20A1 1 0 0 1 21 4V10A1 1 0 0 1 20 11H4A1 1 0 0 1 3 10V4A1 1 0 0 1 4 3ZM4 13H20A1 1 0 0 1 21 14V20A1 1 0 0 1 20 21H4A1 1 0 0 1 3 20V14A1 1 0 0 1 4 13ZM11 7L17 7M11 17L17 17"/><circle cx="7" cy="7" r="1.2" fill="currentColor" stroke="none"/><circle cx="7" cy="17" r="1.2" fill="currentColor" stroke="none"/></symbol>
    <symbol id="icon-settings" viewBox="0 0 24 24" stroke-width="1.4" stroke-linecap="round" stroke-linejoin="round"><path d="M10.51 2.62L13.49 2.62L13.63 5.19L15.66 6.03L17.58 4.31L19.69 6.42L17.97 8.34L18.81 10.37L21.38 10.51L21.38 13.49L18.81 13.63L17.97 15.66L19.69 17.58L17.58 19.69L15.66 17.97L13.63 18.81L13.49 21.38L10.51 21.38L10.37 18.81L8.34 17.97L6.42 19.69L4.31 17.58L6.03 15.66L5.19 13.63L2.62 13.49L2.62 10.51L5.19 10.37L6.03 8.34L4.31 6.42L6.42 4.31L8.34 6.03L10.37 5.19ZM9 12a3 3 0 1 0 6 0a3 3 0 1 0 -6 0"/></symbol>
    <symbol id="icon-share" viewBox="0 0 24 24" stroke-width="1.4" stroke-linecap="round" stroke-linejoin="round"><path d="M15.5 5a2.5 2.5 0 1 0 5 0a2.5 2.5 0 1 0 -5 0M3.5 12a2.5 2.5 0 1 0 5 0a2.5 2.5 0 1 0 -5 0M15.5 19a2.5 2.5 0 1 0 5 0a2.5 2.5 0 1 0 -5 0M8.2 10.8L15.8 6.2M8.2 13.2L15.8 17.8"/></symbol>
    <symbol id="icon-shield" viewBox="0 0 24 24" stroke-width="1.4" stroke-linecap="round" stroke-linejoin="round"><path d="M12 3L20 6L20 12L12 21L4 12L4 6Z"/></symbol>
    <symbol id="icon-shopping-bag" viewBox="0 0 24 24" stroke-width="1.4" stroke-linecap="round" stroke-linejoin="round"><path d="M5 8L19 8L20 21L4 21ZM8.5 11L8.5 6.5M8.5 6.5A3.5 3.5 0 0 1 15.5 6.5M15.5 6.5L15.5 11"/></symbol>
    <symbol id="icon-shopping-cart" viewBox="0 0 24 24" stroke-width="1.4" stroke-linecap="round" stroke-linejoin="round"><path d="M2 3L5 3L7.5 15L18.5 15L21 7L6 7M7.4 19a1.6 1.6 0 1 0 3.2 0a1.6 1.6 0 1 0 -3.2 0M15.4 19a1.6 1.6 0 1 0 3.2 0a1.6 1.6 0 1 0 -3.2 0"/></symbol>
    <symbol id="icon-shuffle" viewBox="0 0 24 24" stroke-width="1.4" stroke-linecap="round" stroke-linejoin="round"><path d="M3 7L7 7L15 17L21 17M3 17L7 17L15 7L21 7M18 4L21 7L18 10M18 14L21 17L18 20"/></symbol>
    <symbol id="icon-sidebar" viewBox="0 0 24 24" stroke-width="1.4" stroke-linecap="round" stroke-linejoin="round"><path d="M4 3H20A1 1 0 0 1 21 4V20A1 1 0 0 1 20 21H4A1 1 0 0 1 3 20V4A1 1 0 0 1 4 3ZM9 3L9 21"/></symbol>
    <symbol id="icon-skip-back" viewBox="0 0 24 24" stroke-width="1.4" stroke-linecap="round" stroke-linejoin="round"><path d="M19 5L9 12L19 19ZM5 5L5 19"/></symbol>
    <symbol id="icon-skip-forward" viewBox="0 0 24 24" stroke-width="1.4" stroke-linecap="round" stroke-linejoin="round"><path d="M5 5L15 12L5 19ZM19 5L19 19"/></symbol>
    <symbol id="icon-snowflake" viewBox="0 0 24 24" stroke-width="1.4" stroke-linecap="round" stroke-linejoin="round"><path d="M12 3L12 21M19.79 7.5L4.21 16.5M19.79 16.5L4.21 7.5M10.33 7.99L12 6L13.67 7.99M14.64 8.55L17.2 9L16.31 11.44M16.31 12.56L17.2 15L14.64 15.45M13.67 16.01L12 18L10.33 16.01M9.36 15.45L6.8 15L7.69 12.56M7.69 11.44L6.8 9L9.36 8.55"/></symbol>
    <symbol id="icon-sort" viewBox="0 0 24 24" stroke-width="1.4" stroke-linecap="round" stroke-linejoin="round"><path d="M6 4L6 20M3 7L6 4L9 7M18 20L18 4M15 17L18 20L21 17"/></symbol>
    <symbol id="icon-star" viewBox="0 0 24 24" stroke-width="1.4" stroke-linecap="round" stroke-linejoin="round"><path d="M12 3L14.35 9.26L21.04 9.56L15.8 13.74L17.58 20.19L12 16.5L6.42 20.19L8.2 13.74L2.96 9.56L9.65 9.26Z"/></symbol>
    <symbol id="icon-stop" viewBox="0 0 24 24" stroke-width="1.4" stroke-linecap="round" stroke-linejoin="round"><path d="M6 5H18A1 1 0 0 1 19 6V18A1 1 0 0 1 18 19H6A1 1 0 0 1 5 18V6A1 1 0 0 1 6 5Z"/></symbol>
    <symbol id="icon-storm" viewBox="0 0 24 24" stroke-width="1.4" stroke-linecap="round" stroke-linejoin="round"><path d="M9.5 12a2.5 2.5 0 1 0 5 0a2.5 2.5 0 1 0 -5 0M5.5 12a6.5 6.5 0 1 0 13 0a6.5 6.5 0 1 0 -13 0M15.5 6.4L12 3.5L6 3M8.5 17.6L12 20.5L18 21"/></symbol>
    <symbol id="icon-sun" viewBox="0 0 24 24" stroke-width="1.4" stroke-linecap="round" stroke-linejoin="round"><path d="M8 12a4 4 0 1 0 8 0a4 4 0 1 0 -8 0M12 5L12 2.5M16.95 7.05L18.72 5.28M19 12L21.5 12M16.95 16.95L18.72 18.72M12 19L12 21.5M7.05 16.95L5.28 18.72M5 12L2.5 12M7.05 7.05L5.28 5.28"/></symbol>
    <symbol id="icon-table" viewBox="0 0 24 24" stroke-width="1.4" stroke-linecap="round" stroke-linejoin="round"><path d="M4 4H20A1 1 0 0 1 21 5V19A1 1 0 0 1 20 20H4A1 1 0 0 1 3 19V5A1 1 0 0 1 4 4ZM3 9L21 9M3 14.5L21 14.5M9 4L9 20"/></symbol>
    <symbol id="icon-tag" viewBox="0 0 24 24" stroke-width="1.4" stroke-linecap="round" stroke-linejoin="round"><path d="M3 3L12 3L21 12L12 21L3 12Z"/><circle cx="7.5" cy="7.5" r="1.5" fill="currentColor" stroke="none"/></symbol>
    <symbol id="icon-temperature" viewBox="0 0 24 24" stroke-width="1.4" stroke-linecap="round" stroke-linejoin="round"><path d="M10 13.6L10 5M10 5A2 2 0 0 1 14 5M14 5L14 13.6M14 13.54A4 4 0 1 1 10 13.54M12 15L12 9M16.9 5a1.6 1.6 0 1 0 3.2 0a1.6 1.6 0 1 0 -3.2 0"/></symbol>
    <symbol id="icon-terminal" viewBox="0 0 24 24" stroke-width="1.4" stroke-linecap="round" stroke-linejoin="round"><path d="M3 4H21A1 1 0 0 1 22 5V19A1 1 0 0 1 21 20H3A1 1 0 0 1 2 19V5A1 1 0 0 1 3 4ZM6 9L10 12L6 15M12 16L17 16"/></symbol>
    <symbol id="icon-thermometer" viewBox="0 0 24 24" stroke-width="1.4" stroke-linecap="round" stroke-linejoin="round"><path d="M10 13.6L10 5M10 5A2 2 0 0 1 14 5M14 5L14 13.6M14 13.54A4 4 0 1 1 10 13.54M12 15L12 9M16.5 6L19 6M16.5 9L19 9M16.5 12L19 12"/></symbol>
    <symbol id="icon-trash" viewBox="0 0 24 24" stroke-width="1.4" stroke-linecap="round" stroke-linejoin="round"><path d="M4 6L20 6M9 6L9 3L15 3L15 6M6 6L7 21L17 21L18 6M10 10L10 17M14 10L14 17"/></symbol>
    <symbol id="icon-trending-up" viewBox="0 0 24 24" stroke-width="1.4" stroke-linecap="round" stroke-linejoin="round"><path d="M3 17L9 11L13 15L21 7M15 7L21 7L21 13"/></symbol>
    <symbol id="icon-unlock" viewBox="0 0 24 24" stroke-width="1.4" stroke-linecap="round" stroke-linejoin="round"><path d="M6 11H18A1 1 0 0 1 19 12V20A1 1 0 0 1 18 21H6A1 1 0 0 1 5 20V12A1 1 0 0 1 6 11ZM8 11L8 7.5M8 7.5A4 4 0 0 1 15.46 5.5"/><circle cx="12" cy="16" r="1.3" fill="currentColor" stroke="none"/></symbol>
    <symbol id="icon-upload" viewBox="0 0 24 24" stroke-width="1.4" stroke-linecap="round" stroke-linejoin="round"><path d="M12 15L12 3M7 8L12 3L17 8M4 17L4 20L20 20L20 17"/></symbol>
    <symbol id="icon-usb" viewBox="0 0 24 24" stroke-width="1.4" stroke-linecap="round" stroke-linejoin="round"><path d="M12 4.5L12 18M10 19.5a2 2 0 1 0 4 0a2 2 0 1 0 -4 0M12 15L7 12L7 9M12 13L17 10L17 8M15.5 5.5L18.5 5.5L18.5 8L15.5 8ZM5.5 7.5a1.5 1.5 0 1 0 3 0a1.5 1.5 0 1 0 -3 0"/><path d="M10 5L14 5L12 2Z" fill="currentColor"/></symbol>
    <symbol id="icon-user" viewBox="0 0 24 24" stroke-width="1.4" stroke-linecap="round" stroke-linejoin="round"><path d="M8 8a4 4 0 1 0 8 0a4 4 0 1 0 -8 0M5 21A7 7 0 0 1 19 21"/></symbol>
    <symbol id="icon-video" viewBox="0 0 24 24" stroke-width="1.4" stroke-linecap="round" stroke-linejoin="round"><path d="M3 6H14A1 1 0 0 1 15 7V17A1 1 0 0 1 14 18H3A1 1 0 0 1 2 17V7A1 1 0 0 1 3 6ZM15 10L22 6.5L22 17.5L15 14Z"/></symbol>
    <symbol id="icon-volume" viewBox="0 0 24 24" stroke-width="1.4" stroke-linecap="round" stroke-linejoin="round"><path d="M3 9L7 9L12 4.5L12 19.5L7 15L3 15ZM15.83 9.17A4 4 0 0 1 15.83 14.83M18.66 6.34A8 8 0 0 1 18.66 17.66"/></symbol>
    <symbol id="icon-volume-mute" viewBox="0 0 24 24" stroke-width="1.4" stroke-linecap="round" stroke-linejoin="round"><path d="M3 9L7 9L12 4.5L12 19.5L7 15L3 15ZM16 9L22 15M22 9L16 15"/></symbol>
    <symbol id="icon-warning" viewBox="0 0 24 24" stroke-width="1.4" stroke-linecap="round" stroke-linejoin="round"><path d="M12 3L22 20L2 20ZM12 9L12 14"/><circle cx="12" cy="17" r="1.2" fill="currentColor" stroke="none"/></symbol>
    <symbol id="icon-wifi" viewBox="0 0 24 24" stroke-width="1.4" stroke-linecap="round" stroke-linejoin="round"><path d="M3.3 9.34A13 13 0 0 1 20.7 9.34M5.99 12.99A8.5 8.5 0 0 1 18.01 12.99M9.17 16.17A4 4 0 0 1 14.83 16.17"/><circle cx="12" cy="19" r="1.3" fill="currentColor" stroke="none"/></symbol>
    <symbol id="icon-zoom-in" viewBox="0 0 24 24" stroke-width="1.4" stroke-linecap="round" stroke-linejoin="round"><path d="M3.5 10.5a7 7 0 1 0 14 0a7 7 0 1 0 -14 0M15.5 15.5L21 21M10.5 7.5L10.5 13.5M7.5 10.5L13.5 10.5"/></symbol>
    <symbol id="icon-zoom-out" viewBox="0 0 24 24" stroke-width="1.4" stroke-linecap="round" stroke-linejoin="round"><path d="M3.5 10.5a7 7 0 1 0 14 0a7 7 0 1 0 -14 0M15.5 15.5L21 21M7.5 10.5L13.5 10.5"/></symbol>
  </defs>
</svg>
