<svg xmlns="http://www.w3.org/2000/svg" style="display:none">
  <!-- LEGO Classic: thick, uniform 3px stroke, round caps/joins, flat and
       chunky like a moulded brick outline. Mostly stroke-only (fill: none)
       so the shape reads as an outlined toy piece rather than a naturalistic
       icon. A couple of icons (grid, trash) pick up a small filled circular
       "stud" accent where a brick's nub logically belongs. Ids not listed
       here fall back to the generic sprite. -->
  <defs>
    <symbol id="icon-home" viewBox="0 0 24 24">
      <g fill="none" stroke="currentColor" stroke-width="3" stroke-linecap="round" stroke-linejoin="round">
        <path d="M4 11.5 12 5l8 6.5"/>
        <path d="M6 11v8a1 1 0 0 0 1 1h10a1 1 0 0 0 1-1v-8"/>
        <path d="M10 20v-5h4v5"/>
      </g>
    </symbol>
    <symbol id="icon-settings" viewBox="0 0 24 24">
      <g fill="none" stroke="currentColor" stroke-width="3" stroke-linecap="round" stroke-linejoin="round">
        <circle cx="12" cy="12" r="3.2"/>
        <path d="M12 2.5v4M12 17.5v4M2.5 12h4M17.5 12h4M5.6 5.6l2.8 2.8M15.6 15.6l2.8 2.8M18.4 5.6l-2.8 2.8M8.4 15.6l-2.8 2.8"/>
      </g>
    </symbol>
    <symbol id="icon-search" viewBox="0 0 24 24">
      <g fill="none" stroke="currentColor" stroke-width="3" stroke-linecap="round">
        <circle cx="10.5" cy="10.5" r="6.5"/>
        <path d="m19.5 19.5-4-4"/>
      </g>
    </symbol>
    <symbol id="icon-close" viewBox="0 0 24 24">
      <path d="M6 6l12 12M18 6 6 18" fill="none" stroke="currentColor" stroke-width="3" stroke-linecap="round"/>
    </symbol>
    <symbol id="icon-user" viewBox="0 0 24 24">
      <g fill="none" stroke="currentColor" stroke-width="3" stroke-linecap="round" stroke-linejoin="round">
        <circle cx="12" cy="8" r="4"/>
        <path d="M4 21c0-4 3.6-7 8-7s8 3 8 7"/>
      </g>
    </symbol>
    <symbol id="icon-bell" viewBox="0 0 24 24">
      <g fill="none" stroke="currentColor" stroke-width="3" stroke-linecap="round" stroke-linejoin="round">
        <path d="M6 10a6 6 0 0 1 12 0c0 5 2 6 2 6H4s2-1 2-6"/>
        <path d="M10 20a2 2 0 0 0 4 0"/>
      </g>
    </symbol>
    <symbol id="icon-plus" viewBox="0 0 24 24">
      <path d="M12 4v16M4 12h16" fill="none" stroke="currentColor" stroke-width="3" stroke-linecap="round"/>
    </symbol>
    <symbol id="icon-minus" viewBox="0 0 24 24">
      <path d="M4 12h16" fill="none" stroke="currentColor" stroke-width="3" stroke-linecap="round"/>
    </symbol>
    <symbol id="icon-check" viewBox="0 0 24 24">
      <path d="M4 13l5 5 11-11" fill="none" stroke="currentColor" stroke-width="3.4" stroke-linecap="round" stroke-linejoin="round"/>
    </symbol>
    <symbol id="icon-warning" viewBox="0 0 24 24">
      <g fill="none" stroke="currentColor" stroke-width="3" stroke-linecap="round" stroke-linejoin="round">
        <path d="M12 3 22 20H2Z"/>
        <path d="M12 9v4"/>
        <path d="M12 16.5h.01"/>
      </g>
    </symbol>
    <symbol id="icon-info" viewBox="0 0 24 24">
      <g fill="none" stroke="currentColor" stroke-width="3" stroke-linecap="round">
        <circle cx="12" cy="12" r="9"/>
        <path d="M12 11v6"/>
        <path d="M12 7h.01"/>
      </g>
    </symbol>
    <symbol id="icon-menu" viewBox="0 0 24 24">
      <path d="M4 6h16M4 12h16M4 18h16" fill="none" stroke="currentColor" stroke-width="3" stroke-linecap="round"/>
    </symbol>
    <symbol id="icon-chevron-down" viewBox="0 0 24 24">
      <path d="M5 9l7 7 7-7" fill="none" stroke="currentColor" stroke-width="3.4" stroke-linecap="round" stroke-linejoin="round"/>
    </symbol>
    <symbol id="icon-chevron-up" viewBox="0 0 24 24">
      <path d="M5 15l7-7 7 7" fill="none" stroke="currentColor" stroke-width="3.4" stroke-linecap="round" stroke-linejoin="round"/>
    </symbol>
    <symbol id="icon-chevron-left" viewBox="0 0 24 24">
      <path d="M15 5l-7 7 7 7" fill="none" stroke="currentColor" stroke-width="3.4" stroke-linecap="round" stroke-linejoin="round"/>
    </symbol>
    <symbol id="icon-chevron-right" viewBox="0 0 24 24">
      <path d="M9 5l7 7-7 7" fill="none" stroke="currentColor" stroke-width="3.4" stroke-linecap="round" stroke-linejoin="round"/>
    </symbol>
    <symbol id="icon-arrow-left" viewBox="0 0 24 24">
      <path d="M20 12H5M10 6l-6 6 6 6" fill="none" stroke="currentColor" stroke-width="3" stroke-linecap="round" stroke-linejoin="round"/>
    </symbol>
    <symbol id="icon-arrow-right" viewBox="0 0 24 24">
      <path d="M4 12h15M14 6l6 6-6 6" fill="none" stroke="currentColor" stroke-width="3" stroke-linecap="round" stroke-linejoin="round"/>
    </symbol>
    <symbol id="icon-arrow-up" viewBox="0 0 24 24">
      <path d="M12 20V5M6 10l6-6 6 6" fill="none" stroke="currentColor" stroke-width="3" stroke-linecap="round" stroke-linejoin="round"/>
    </symbol>
    <symbol id="icon-arrow-down" viewBox="0 0 24 24">
      <path d="M12 4v15M6 14l6 6 6-6" fill="none" stroke="currentColor" stroke-width="3" stroke-linecap="round" stroke-linejoin="round"/>
    </symbol>
    <symbol id="icon-trash" viewBox="0 0 24 24">
      <g fill="none" stroke="currentColor" stroke-width="3" stroke-linecap="round" stroke-linejoin="round">
        <path d="M4 7h16"/>
        <path d="M9 7V4h6v3"/>
        <path d="M6 7l1 13h10l1-13"/>
      </g>
      <circle cx="12" cy="2.5" r="1.3" fill="currentColor"/>
    </symbol>
    <symbol id="icon-edit" viewBox="0 0 24 24">
      <g fill="none" stroke="currentColor" stroke-width="3" stroke-linecap="round" stroke-linejoin="round">
        <path d="M4 20h4l11-11-4-4L4 16z"/>
        <path d="M13.5 6.5l4 4"/>
      </g>
    </symbol>
    <symbol id="icon-save" viewBox="0 0 24 24">
      <g fill="none" stroke="currentColor" stroke-width="3" stroke-linecap="round" stroke-linejoin="round">
        <path d="M5 3h11l3 3v15H5z"/>
        <path d="M8 3v6h8V3"/>
        <path d="M8 21v-7h8v7"/>
      </g>
    </symbol>
    <symbol id="icon-download" viewBox="0 0 24 24">
      <g fill="none" stroke="currentColor" stroke-width="3" stroke-linecap="round" stroke-linejoin="round">
        <path d="M12 3v13"/>
        <path d="m6 11 6 6 6-6"/>
        <path d="M5 21h14"/>
      </g>
    </symbol>
    <symbol id="icon-upload" viewBox="0 0 24 24">
      <g fill="none" stroke="currentColor" stroke-width="3" stroke-linecap="round" stroke-linejoin="round">
        <path d="M12 21V8"/>
        <path d="m6 13 6-6 6 6"/>
        <path d="M5 21h14"/>
      </g>
    </symbol>
    <symbol id="icon-refresh" viewBox="0 0 24 24">
      <g fill="none" stroke="currentColor" stroke-width="3" stroke-linecap="round">
        <path d="M20 11A8 8 0 1 0 8.5 19.36"/>
        <path d="M20 5v6h-6"/>
      </g>
    </symbol>
    <symbol id="icon-lock" viewBox="0 0 24 24">
      <g fill="none" stroke="currentColor" stroke-width="3" stroke-linecap="round" stroke-linejoin="round">
        <rect x="4" y="11" width="16" height="10" rx="2"/>
        <path d="M8 11V7a4 4 0 0 1 8 0v4"/>
      </g>
    </symbol>
    <symbol id="icon-unlock" viewBox="0 0 24 24">
      <g fill="none" stroke="currentColor" stroke-width="3" stroke-linecap="round" stroke-linejoin="round">
        <rect x="4" y="11" width="16" height="10" rx="2"/>
        <path d="M8 11V7a4 4 0 0 1 7.5-2"/>
      </g>
    </symbol>
    <symbol id="icon-star" viewBox="0 0 24 24">
      <path d="m12 3 2.7 5.9 6.3.6-4.8 4.3 1.4 6.2L12 16.9 6.4 20l1.4-6.2L3 9.5l6.3-.6z" fill="none" stroke="currentColor" stroke-width="3" stroke-linecap="round" stroke-linejoin="round"/>
    </symbol>
    <symbol id="icon-folder" viewBox="0 0 24 24">
      <path d="M3 7a2 2 0 0 1 2-2h4l2 2h8a2 2 0 0 1 2 2v8a2 2 0 0 1-2 2H5a2 2 0 0 1-2-2z" fill="none" stroke="currentColor" stroke-width="3" stroke-linejoin="round"/>
    </symbol>
    <symbol id="icon-file" viewBox="0 0 24 24">
      <g fill="none" stroke="currentColor" stroke-width="3" stroke-linecap="round" stroke-linejoin="round">
        <path d="M6 3h8l4 4v14a1 1 0 0 1-1 1H6a1 1 0 0 1-1-1V4a1 1 0 0 1 1-1z"/>
        <path d="M14 3v4h4"/>
      </g>
    </symbol>
    <symbol id="icon-mail" viewBox="0 0 24 24">
      <g fill="none" stroke="currentColor" stroke-width="3" stroke-linecap="round" stroke-linejoin="round">
        <rect x="3" y="5" width="18" height="14" rx="2"/>
        <path d="m3 7 9 6 9-6"/>
      </g>
    </symbol>
    <symbol id="icon-calendar" viewBox="0 0 24 24">
      <g fill="none" stroke="currentColor" stroke-width="3" stroke-linecap="round" stroke-linejoin="round">
        <rect x="3" y="5" width="18" height="16" rx="2"/>
        <path d="M3 9h18"/>
        <path d="M8 3v4"/>
        <path d="M16 3v4"/>
      </g>
    </symbol>
    <symbol id="icon-clock" viewBox="0 0 24 24">
      <g fill="none" stroke="currentColor" stroke-width="3" stroke-linecap="round" stroke-linejoin="round">
        <circle cx="12" cy="12" r="9"/>
        <path d="M12 7v5l4 2"/>
      </g>
    </symbol>
    <symbol id="icon-list" viewBox="0 0 24 24">
      <g fill="none" stroke="currentColor" stroke-width="3" stroke-linecap="round">
        <path d="M9 6h12"/>
        <path d="M9 12h12"/>
        <path d="M9 18h12"/>
        <path d="M4 6h.01"/>
        <path d="M4 12h.01"/>
        <path d="M4 18h.01"/>
      </g>
    </symbol>
    <symbol id="icon-grid" viewBox="0 0 24 24">
      <g fill="none" stroke="currentColor" stroke-width="3" stroke-linecap="round" stroke-linejoin="round">
        <rect x="3" y="3" width="8" height="8" rx="1.5"/>
        <rect x="13" y="3" width="8" height="8" rx="1.5"/>
        <rect x="3" y="13" width="8" height="8" rx="1.5"/>
        <rect x="13" y="13" width="8" height="8" rx="1.5"/>
      </g>
      <circle cx="7" cy="7" r="1.1" fill="currentColor"/>
      <circle cx="17" cy="17" r="1.1" fill="currentColor"/>
    </symbol>
    <symbol id="icon-file-text" viewBox="0 0 24 24">
      <g fill="none" stroke="currentColor" stroke-width="3" stroke-linecap="round" stroke-linejoin="round"><path d="M14 3v4a1 1 0 0 0 1 1h4" /><path d="M17 21h-10a2 2 0 0 1 -2 -2v-14a2 2 0 0 1 2 -2h7l5 5v11a2 2 0 0 1 -2 2" /><path d="M9 9l1 0" /><path d="M9 13l6 0" /><path d="M9 17l6 0" /></g>
    </symbol>
    <symbol id="icon-file-code" viewBox="0 0 24 24">
      <g fill="none" stroke="currentColor" stroke-width="3" stroke-linecap="round" stroke-linejoin="round"><path d="M14 3v4a1 1 0 0 0 1 1h4" /><path d="M17 21h-10a2 2 0 0 1 -2 -2v-14a2 2 0 0 1 2 -2h7l5 5v11a2 2 0 0 1 -2 2" /><path d="M10 13l-1 2l1 2" /><path d="M14 13l1 2l-1 2" /></g>
    </symbol>
    <symbol id="icon-file-type-pdf" viewBox="0 0 24 24">
      <g fill="none" stroke="currentColor" stroke-width="3" stroke-linecap="round" stroke-linejoin="round"><path d="M14 3v4a1 1 0 0 0 1 1h4" /><path d="M5 12v-7a2 2 0 0 1 2 -2h7l5 5v4" /><path d="M5 18h1.5a1.5 1.5 0 0 0 0 -3h-1.5v6" /><path d="M17 18h2" /><path d="M20 15h-3v6" /><path d="M11 15v6h1a2 2 0 0 0 2 -2v-2a2 2 0 0 0 -2 -2h-1" /></g>
    </symbol>
    <symbol id="icon-file-zip" viewBox="0 0 24 24">
      <g fill="none" stroke="currentColor" stroke-width="3" stroke-linecap="round" stroke-linejoin="round"><path d="M6 20.735a2 2 0 0 1 -1 -1.735v-14a2 2 0 0 1 2 -2h7l5 5v11a2 2 0 0 1 -2 2h-1" /><path d="M11 17a2 2 0 0 1 2 2v2a1 1 0 0 1 -1 1h-2a1 1 0 0 1 -1 -1v-2a2 2 0 0 1 2 -2" /><path d="M11 5l-1 0" /><path d="M13 7l-1 0" /><path d="M11 9l-1 0" /><path d="M13 11l-1 0" /><path d="M11 13l-1 0" /><path d="M13 15l-1 0" /></g>
    </symbol>
    <symbol id="icon-file-music" viewBox="0 0 24 24">
      <g fill="none" stroke="currentColor" stroke-width="3" stroke-linecap="round" stroke-linejoin="round"><path d="M14 3v4a1 1 0 0 0 1 1h4" /><path d="M17 21h-10a2 2 0 0 1 -2 -2v-14a2 2 0 0 1 2 -2h7l5 5v11a2 2 0 0 1 -2 2" /><path d="M10 16a1 1 0 1 0 2 0a1 1 0 1 0 -2 0" /><path d="M12 16l0 -5l2 1" /></g>
    </symbol>
    <symbol id="icon-file-check" viewBox="0 0 24 24">
      <g fill="none" stroke="currentColor" stroke-width="3" stroke-linecap="round" stroke-linejoin="round"><path d="M14 3v4a1 1 0 0 0 1 1h4" /><path d="M17 21h-10a2 2 0 0 1 -2 -2v-14a2 2 0 0 1 2 -2h7l5 5v11a2 2 0 0 1 -2 2" /><path d="M9 15l2 2l4 -4" /></g>
    </symbol>
    <symbol id="icon-file-x" viewBox="0 0 24 24">
      <g fill="none" stroke="currentColor" stroke-width="3" stroke-linecap="round" stroke-linejoin="round"><path d="M14 3v4a1 1 0 0 0 1 1h4" /><path d="M17 21h-10a2 2 0 0 1 -2 -2v-14a2 2 0 0 1 2 -2h7l5 5v11a2 2 0 0 1 -2 2" /><path d="M10 12l4 4m0 -4l-4 4" /></g>
    </symbol>
    <symbol id="icon-file-plus" viewBox="0 0 24 24">
      <g fill="none" stroke="currentColor" stroke-width="3" stroke-linecap="round" stroke-linejoin="round"><path d="M14 3v4a1 1 0 0 0 1 1h4" /><path d="M17 21h-10a2 2 0 0 1 -2 -2v-14a2 2 0 0 1 2 -2h7l5 5v11a2 2 0 0 1 -2 2" /><path d="M12 11l0 6" /><path d="M9 14l6 0" /></g>
    </symbol>
    <symbol id="icon-files" viewBox="0 0 24 24">
      <g fill="none" stroke="currentColor" stroke-width="3" stroke-linecap="round" stroke-linejoin="round"><path d="M15 3v4a1 1 0 0 0 1 1h4" /><path d="M18 17h-7a2 2 0 0 1 -2 -2v-10a2 2 0 0 1 2 -2h4l5 5v7a2 2 0 0 1 -2 2" /><path d="M16 17v2a2 2 0 0 1 -2 2h-7a2 2 0 0 1 -2 -2v-10a2 2 0 0 1 2 -2h2" /></g>
    </symbol>
    <symbol id="icon-clipboard" viewBox="0 0 24 24">
      <g fill="none" stroke="currentColor" stroke-width="3" stroke-linecap="round" stroke-linejoin="round"><rect x="6" y="4" width="12" height="17" rx="1.5"/><rect x="9" y="2" width="6" height="4" rx="1"/></g>
    </symbol>
    <symbol id="icon-clipboard-check" viewBox="0 0 24 24">
      <g fill="none" stroke="currentColor" stroke-width="3" stroke-linecap="round" stroke-linejoin="round"><path d="M9 5h-2a2 2 0 0 0 -2 2v12a2 2 0 0 0 2 2h10a2 2 0 0 0 2 -2v-12a2 2 0 0 0 -2 -2h-2" /><path d="M9 5a2 2 0 0 1 2 -2h2a2 2 0 0 1 2 2a2 2 0 0 1 -2 2h-2a2 2 0 0 1 -2 -2" /><path d="M9 14l2 2l4 -4" /></g>
    </symbol>
    <symbol id="icon-music" viewBox="0 0 24 24">
      <g fill="none" stroke="currentColor" stroke-width="3" stroke-linecap="round" stroke-linejoin="round"><path d="M3 17a3 3 0 1 0 6 0a3 3 0 0 0 -6 0" /><path d="M13 17a3 3 0 1 0 6 0a3 3 0 0 0 -6 0" /><path d="M9 17v-13h10v13" /><path d="M9 8h10" /></g>
      <circle cx="19.5" cy="4.5" r="1.3" fill="currentColor"/>
    </symbol>
    <symbol id="icon-headphones" viewBox="0 0 24 24">
      <g fill="none" stroke="currentColor" stroke-width="3" stroke-linecap="round" stroke-linejoin="round"><path d="M4 14v-2a8 8 0 0 1 16 0v2"/><rect x="2" y="14" width="5" height="7" rx="1.5"/><rect x="17" y="14" width="5" height="7" rx="1.5"/></g>
    </symbol>
    <symbol id="icon-video" viewBox="0 0 24 24">
      <g fill="none" stroke="currentColor" stroke-width="3" stroke-linecap="round" stroke-linejoin="round"><rect x="2" y="6" width="14" height="12" rx="2"/><path d="m16 10 6-3v10l-6-3z"/></g>
    </symbol>
    <symbol id="icon-volume" viewBox="0 0 24 24">
      <g fill="none" stroke="currentColor" stroke-width="3" stroke-linecap="round" stroke-linejoin="round"><path d="M4 9v6h4l5 4V5L8 9z"/><path d="M17 8a5 5 0 0 1 0 8"/><path d="M19.5 5.5a9 9 0 0 1 0 13"/></g>
      <circle cx="19.5" cy="4.5" r="1.3" fill="currentColor"/>
    </symbol>
    <symbol id="icon-volume-mute" viewBox="0 0 24 24">
      <g fill="none" stroke="currentColor" stroke-width="3" stroke-linecap="round" stroke-linejoin="round"><path d="M4 9v6h4l5 4V5L8 9z"/><path d="m17 9 5 6"/><path d="m22 9-5 6"/></g>
    </symbol>
    <symbol id="icon-play" viewBox="0 0 24 24">
      <g fill="none" stroke="currentColor" stroke-width="3" stroke-linecap="round" stroke-linejoin="round"><path d="M6 4v16l14-8z"/></g>
    </symbol>
    <symbol id="icon-pause" viewBox="0 0 24 24">
      <g fill="none" stroke="currentColor" stroke-width="3" stroke-linecap="round" stroke-linejoin="round"><path d="M7 4h3v16H7z"/><path d="M14 4h3v16h-3z"/></g>
    </symbol>
    <symbol id="icon-stop" viewBox="0 0 24 24">
      <g fill="none" stroke="currentColor" stroke-width="3" stroke-linecap="round" stroke-linejoin="round"><rect x="5" y="5" width="14" height="14" rx="1"/></g>
    </symbol>
    <symbol id="icon-skip-back" viewBox="0 0 24 24">
      <g fill="none" stroke="currentColor" stroke-width="3" stroke-linecap="round" stroke-linejoin="round"><path d="M19 4v16L8 12z"/><path d="M6 4v16"/></g>
    </symbol>
    <symbol id="icon-skip-forward" viewBox="0 0 24 24">
      <g fill="none" stroke="currentColor" stroke-width="3" stroke-linecap="round" stroke-linejoin="round"><path d="M5 4v16l11-8z"/><path d="M18 4v16"/></g>
    </symbol>
    <symbol id="icon-camera" viewBox="0 0 24 24">
      <g fill="none" stroke="currentColor" stroke-width="3" stroke-linecap="round" stroke-linejoin="round"><path d="M5 7h1a2 2 0 0 0 2 -2a1 1 0 0 1 1 -1h6a1 1 0 0 1 1 1a2 2 0 0 0 2 2h1a2 2 0 0 1 2 2v9a2 2 0 0 1 -2 2h-14a2 2 0 0 1 -2 -2v-9a2 2 0 0 1 2 -2" /><path d="M9 13a3 3 0 1 0 6 0a3 3 0 0 0 -6 0" /></g>
      <circle cx="19.5" cy="4.5" r="1.3" fill="currentColor"/>
    </symbol>
    <symbol id="icon-image" viewBox="0 0 24 24">
      <g fill="none" stroke="currentColor" stroke-width="3" stroke-linecap="round" stroke-linejoin="round"><rect x="3" y="4" width="18" height="16" rx="2"/><circle cx="9" cy="10" r="2"/><path d="m21 16-5.5-5.5L9 17"/></g>
    </symbol>
    <symbol id="icon-print" viewBox="0 0 24 24">
      <g fill="none" stroke="currentColor" stroke-width="3" stroke-linecap="round" stroke-linejoin="round"><path d="M6 9V3h12v6"/><rect x="4" y="9" width="16" height="8" rx="1.5"/><path d="M6 17v4h12v-4"/></g>
    </symbol>
    <symbol id="icon-device-desktop" viewBox="0 0 24 24">
      <g fill="none" stroke="currentColor" stroke-width="3" stroke-linecap="round" stroke-linejoin="round"><path d="M3 5a1 1 0 0 1 1 -1h16a1 1 0 0 1 1 1v10a1 1 0 0 1 -1 1h-16a1 1 0 0 1 -1 -1v-10" /><path d="M7 20h10" /><path d="M9 16v4" /><path d="M15 16v4" /></g>
    </symbol>
    <symbol id="icon-device-laptop" viewBox="0 0 24 24">
      <g fill="none" stroke="currentColor" stroke-width="3" stroke-linecap="round" stroke-linejoin="round"><path d="M3 19l18 0" /><path d="M5 7a1 1 0 0 1 1 -1h12a1 1 0 0 1 1 1v8a1 1 0 0 1 -1 1h-12a1 1 0 0 1 -1 -1l0 -8" /></g>
    </symbol>
    <symbol id="icon-device-mobile" viewBox="0 0 24 24">
      <g fill="none" stroke="currentColor" stroke-width="3" stroke-linecap="round" stroke-linejoin="round"><path d="M6 5a2 2 0 0 1 2 -2h8a2 2 0 0 1 2 2v14a2 2 0 0 1 -2 2h-8a2 2 0 0 1 -2 -2v-14" /><path d="M11 4h2" /><path d="M12 17v.01" /></g>
    </symbol>
    <symbol id="icon-device-tablet" viewBox="0 0 24 24">
      <g fill="none" stroke="currentColor" stroke-width="3" stroke-linecap="round" stroke-linejoin="round"><path d="M5 4a1 1 0 0 1 1 -1h12a1 1 0 0 1 1 1v16a1 1 0 0 1 -1 1h-12a1 1 0 0 1 -1 -1v-16" /><path d="M11 17a1 1 0 1 0 2 0a1 1 0 0 0 -2 0" /></g>
    </symbol>
    <symbol id="icon-device-watch" viewBox="0 0 24 24">
      <g fill="none" stroke="currentColor" stroke-width="3" stroke-linecap="round" stroke-linejoin="round"><path d="M6 9a3 3 0 0 1 3 -3h6a3 3 0 0 1 3 3v6a3 3 0 0 1 -3 3h-6a3 3 0 0 1 -3 -3v-6" /><path d="M9 18v3h6v-3" /><path d="M9 6v-3h6v3" /></g>
    </symbol>
    <symbol id="icon-keyboard" viewBox="0 0 24 24">
      <g fill="none" stroke="currentColor" stroke-width="3" stroke-linecap="round" stroke-linejoin="round"><path d="M2 8a2 2 0 0 1 2 -2h16a2 2 0 0 1 2 2v8a2 2 0 0 1 -2 2h-16a2 2 0 0 1 -2 -2l0 -8" /><path d="M6 10l0 .01" /><path d="M10 10l0 .01" /><path d="M14 10l0 .01" /><path d="M18 10l0 .01" /><path d="M6 14l0 .01" /><path d="M18 14l0 .01" /><path d="M10 14l4 .01" /></g>
    </symbol>
    <symbol id="icon-mouse" viewBox="0 0 24 24">
      <g fill="none" stroke="currentColor" stroke-width="3" stroke-linecap="round" stroke-linejoin="round"><path d="M6 7a4 4 0 0 1 4 -4h4a4 4 0 0 1 4 4v10a4 4 0 0 1 -4 4h-4a4 4 0 0 1 -4 -4l0 -10" /><path d="M12 7l0 4" /></g>
    </symbol>
    <symbol id="icon-cpu" viewBox="0 0 24 24">
      <g fill="none" stroke="currentColor" stroke-width="3" stroke-linecap="round" stroke-linejoin="round"><path d="M5 6a1 1 0 0 1 1 -1h12a1 1 0 0 1 1 1v12a1 1 0 0 1 -1 1h-12a1 1 0 0 1 -1 -1l0 -12" /><path d="M9 9h6v6h-6l0 -6" /><path d="M3 10h2" /><path d="M3 14h2" /><path d="M10 3v2" /><path d="M14 3v2" /><path d="M21 10h-2" /><path d="M21 14h-2" /><path d="M14 21v-2" /><path d="M10 21v-2" /></g>
      <circle cx="19.5" cy="4.5" r="1.3" fill="currentColor"/>
    </symbol>
    <symbol id="icon-hard-drive" viewBox="0 0 24 24">
      <g fill="none" stroke="currentColor" stroke-width="3" stroke-linecap="round" stroke-linejoin="round"><rect x="2" y="10" width="20" height="8" rx="2"/><path d="M6 14h.01"/><path d="M10 14h4"/><path d="m4 10 3-6h10l3 6"/></g>
    </symbol>
    <symbol id="icon-server" viewBox="0 0 24 24">
      <g fill="none" stroke="currentColor" stroke-width="3" stroke-linecap="round" stroke-linejoin="round"><rect x="3" y="4" width="18" height="6" rx="1.5"/><rect x="3" y="14" width="18" height="6" rx="1.5"/><path d="M7 7h.01"/><path d="M7 17h.01"/></g>
    </symbol>
    <symbol id="icon-wifi" viewBox="0 0 24 24">
      <g fill="none" stroke="currentColor" stroke-width="3" stroke-linecap="round" stroke-linejoin="round"><path d="M2 9a16 16 0 0 1 20 0"/><path d="M5.5 13a11 11 0 0 1 13 0"/><path d="M9 17a6 6 0 0 1 6 0"/><path d="M12 21h.01"/></g>
    </symbol>
    <symbol id="icon-usb" viewBox="0 0 24 24">
      <g fill="none" stroke="currentColor" stroke-width="3" stroke-linecap="round" stroke-linejoin="round"><circle cx="12" cy="5" r="2"/><circle cx="6" cy="19" r="2"/><circle cx="18" cy="19" r="2"/><path d="M12 7v6"/><path d="M12 13 6 17"/><path d="M12 13l6 4"/></g>
    </symbol>
    <symbol id="icon-battery" viewBox="0 0 24 24">
      <g fill="none" stroke="currentColor" stroke-width="3" stroke-linecap="round" stroke-linejoin="round"><rect x="2" y="7" width="18" height="10" rx="2"/><path d="M22 10v4"/><path d="M6 9v6"/></g>
      <circle cx="19.5" cy="4.5" r="1.3" fill="currentColor"/>
    </symbol>
    <symbol id="icon-battery-charging" viewBox="0 0 24 24">
      <g fill="none" stroke="currentColor" stroke-width="3" stroke-linecap="round" stroke-linejoin="round"><path d="M16 7h1a2 2 0 0 1 2 2v.5a.5 .5 0 0 0 .5 .5a.5 .5 0 0 1 .5 .5v3a.5 .5 0 0 1 -.5 .5a.5 .5 0 0 0 -.5 .5v.5a2 2 0 0 1 -2 2h-2" /><path d="M8 7h-2a2 2 0 0 0 -2 2v6a2 2 0 0 0 2 2h1" /><path d="M12 8l-2 4h3l-2 4" /></g>
      <circle cx="19.5" cy="4.5" r="1.3" fill="currentColor"/>
    </symbol>
    <symbol id="icon-power" viewBox="0 0 24 24">
      <g fill="none" stroke="currentColor" stroke-width="3" stroke-linecap="round" stroke-linejoin="round"><path d="M12 3v8"/><path d="M6.5 6.5a8 8 0 1 0 11 0"/></g>
    </symbol>
    <symbol id="icon-terminal" viewBox="0 0 24 24">
      <g fill="none" stroke="currentColor" stroke-width="3" stroke-linecap="round" stroke-linejoin="round"><path d="m5 7 5 5-5 5"/><path d="M13 17h6"/></g>
    </symbol>
    <symbol id="icon-network" viewBox="0 0 24 24">
      <g fill="none" stroke="currentColor" stroke-width="3" stroke-linecap="round" stroke-linejoin="round"><path d="M6 9a6 6 0 1 0 12 0a6 6 0 0 0 -12 0" /><path d="M12 3c1.333 .333 2 2.333 2 6s-.667 5.667 -2 6" /><path d="M12 3c-1.333 .333 -2 2.333 -2 6s.667 5.667 2 6" /><path d="M6 9h12" /><path d="M3 20h7" /><path d="M14 20h7" /><path d="M10 20a2 2 0 1 0 4 0a2 2 0 0 0 -4 0" /><path d="M12 15v3" /></g>
    </symbol>
    <symbol id="icon-device-speaker" viewBox="0 0 24 24">
      <g fill="none" stroke="currentColor" stroke-width="3" stroke-linecap="round" stroke-linejoin="round"><path d="M5 5a2 2 0 0 1 2 -2h10a2 2 0 0 1 2 2v14a2 2 0 0 1 -2 2h-10a2 2 0 0 1 -2 -2l0 -14" /><path d="M9 14a3 3 0 1 0 6 0a3 3 0 1 0 -6 0" /><path d="M12 7l0 .01" /></g>
      <circle cx="19.5" cy="4.5" r="1.3" fill="currentColor"/>
    </symbol>
    <symbol id="icon-message" viewBox="0 0 24 24">
      <g fill="none" stroke="currentColor" stroke-width="3" stroke-linecap="round" stroke-linejoin="round"><path d="M8 9h8" /><path d="M8 13h6" /><path d="M18 4a3 3 0 0 1 3 3v8a3 3 0 0 1 -3 3h-5l-5 3v-3h-2a3 3 0 0 1 -3 -3v-8a3 3 0 0 1 3 -3h12" /></g>
    </symbol>
    <symbol id="icon-message-circle" viewBox="0 0 24 24">
      <g fill="none" stroke="currentColor" stroke-width="3" stroke-linecap="round" stroke-linejoin="round"><path d="M3 20l1.3 -3.9c-2.324 -3.437 -1.426 -7.872 2.1 -10.374c3.526 -2.501 8.59 -2.296 11.845 .48c3.255 2.777 3.695 7.266 1.029 10.501c-2.666 3.235 -7.615 4.215 -11.574 2.293l-4.7 1" /></g>
    </symbol>
    <symbol id="icon-phone" viewBox="0 0 24 24">
      <g fill="none" stroke="currentColor" stroke-width="3" stroke-linecap="round" stroke-linejoin="round"><path d="M5 4h4l1.5 4.5L8 10.5a12 12 0 0 0 5.5 5.5l2-2.5L20 15v4a1.5 1.5 0 0 1-1.6 1.5A16 16 0 0 1 4 5.6 1.5 1.5 0 0 1 5 4z"/></g>
    </symbol>
    <symbol id="icon-mailbox" viewBox="0 0 24 24">
      <g fill="none" stroke="currentColor" stroke-width="3" stroke-linecap="round" stroke-linejoin="round"><path d="M10 21v-6.5a3.5 3.5 0 0 0 -7 0v6.5h18v-6a4 4 0 0 0 -4 -4h-10.5" /><path d="M12 11v-8h4l2 2l-2 2h-4" /><path d="M6 15h1" /></g>
    </symbol>
    <symbol id="icon-share" viewBox="0 0 24 24">
      <g fill="none" stroke="currentColor" stroke-width="3" stroke-linecap="round" stroke-linejoin="round"><circle cx="18" cy="5" r="2.2"/><circle cx="6" cy="12" r="2.2"/><circle cx="18" cy="19" r="2.2"/><path d="m8 10.8 8-4.6"/><path d="m8 13.2 8 4.6"/></g>
    </symbol>
    <symbol id="icon-link" viewBox="0 0 24 24">
      <g fill="none" stroke="currentColor" stroke-width="3" stroke-linecap="round" stroke-linejoin="round"><path d="M9 15 15 9"/><path d="M7 12 4.5 14.5a3.5 3.5 0 0 0 5 5L12 17"/><path d="M17 12l2.5-2.5a3.5 3.5 0 0 0-5-5L12 7"/></g>
    </symbol>
    <symbol id="icon-shopping-cart" viewBox="0 0 24 24">
      <g fill="none" stroke="currentColor" stroke-width="3" stroke-linecap="round" stroke-linejoin="round"><circle cx="9" cy="20" r="1.3"/><circle cx="17" cy="20" r="1.3"/><path d="M2 3h2l2.6 12.4a2 2 0 0 0 2 1.6h8.8a2 2 0 0 0 2-1.6L21 8H6"/></g>
    </symbol>
    <symbol id="icon-shopping-bag" viewBox="0 0 24 24">
      <g fill="none" stroke="currentColor" stroke-width="3" stroke-linecap="round" stroke-linejoin="round"><path d="M6.331 8h11.339a2 2 0 0 1 1.977 2.304l-1.255 8.152a3 3 0 0 1 -2.966 2.544h-6.852a3 3 0 0 1 -2.965 -2.544l-1.255 -8.152a2 2 0 0 1 1.977 -2.304" /><path d="M9 11v-5a3 3 0 0 1 6 0v5" /></g>
    </symbol>
    <symbol id="icon-credit-card" viewBox="0 0 24 24">
      <g fill="none" stroke="currentColor" stroke-width="3" stroke-linecap="round" stroke-linejoin="round"><path d="M3 8a3 3 0 0 1 3 -3h12a3 3 0 0 1 3 3v8a3 3 0 0 1 -3 3h-12a3 3 0 0 1 -3 -3l0 -8" /><path d="M3 10l18 0" /><path d="M7 15l.01 0" /><path d="M11 15l2 0" /></g>
    </symbol>
    <symbol id="icon-cash" viewBox="0 0 24 24">
      <g fill="none" stroke="currentColor" stroke-width="3" stroke-linecap="round" stroke-linejoin="round"><path d="M7 15h-3a1 1 0 0 1 -1 -1v-8a1 1 0 0 1 1 -1h12a1 1 0 0 1 1 1v3" /><path d="M7 10a1 1 0 0 1 1 -1h12a1 1 0 0 1 1 1v8a1 1 0 0 1 -1 1h-12a1 1 0 0 1 -1 -1l0 -8" /><path d="M12 14a2 2 0 1 0 4 0a2 2 0 0 0 -4 0" /></g>
    </symbol>
    <symbol id="icon-coin" viewBox="0 0 24 24">
      <g fill="none" stroke="currentColor" stroke-width="3" stroke-linecap="round" stroke-linejoin="round"><path d="M3 12a9 9 0 1 0 18 0a9 9 0 1 0 -18 0" /><path d="M14.8 9a2 2 0 0 0 -1.8 -1h-2a2 2 0 1 0 0 4h2a2 2 0 1 1 0 4h-2a2 2 0 0 1 -1.8 -1" /><path d="M12 7v10" /></g>
      <circle cx="19.5" cy="4.5" r="1.3" fill="currentColor"/>
    </symbol>
    <symbol id="icon-coins" viewBox="0 0 24 24">
      <g fill="none" stroke="currentColor" stroke-width="3" stroke-linecap="round" stroke-linejoin="round"><path d="M9 14c0 1.657 2.686 3 6 3s6 -1.343 6 -3s-2.686 -3 -6 -3s-6 1.343 -6 3" /><path d="M9 14v4c0 1.656 2.686 3 6 3s6 -1.344 6 -3v-4" /><path d="M3 6c0 1.072 1.144 2.062 3 2.598s4.144 .536 6 0c1.856 -.536 3 -1.526 3 -2.598c0 -1.072 -1.144 -2.062 -3 -2.598s-4.144 -.536 -6 0c-1.856 .536 -3 1.526 -3 2.598" /><path d="M3 6v10c0 .888 .772 1.45 2 2" /><path d="M3 11c0 .888 .772 1.45 2 2" /></g>
      <circle cx="19.5" cy="4.5" r="1.3" fill="currentColor"/>
    </symbol>
    <symbol id="icon-receipt" viewBox="0 0 24 24">
      <g fill="none" stroke="currentColor" stroke-width="3" stroke-linecap="round" stroke-linejoin="round"><path d="M5 21v-16a2 2 0 0 1 2 -2h10a2 2 0 0 1 2 2v16l-3 -2l-2 2l-2 -2l-2 2l-2 -2l-3 2m4 -14h6m-6 4h6m-2 4h2" /></g>
    </symbol>
    <symbol id="icon-tag" viewBox="0 0 24 24">
      <g fill="none" stroke="currentColor" stroke-width="3" stroke-linecap="round" stroke-linejoin="round"><path d="M20 12 12 20 4 12V4h8z"/><circle cx="8" cy="8" r="1.5"/></g>
      <circle cx="19.5" cy="4.5" r="1.3" fill="currentColor"/>
    </symbol>
    <symbol id="icon-discount" viewBox="0 0 24 24">
      <g fill="none" stroke="currentColor" stroke-width="3" stroke-linecap="round" stroke-linejoin="round"><path d="M9 15l6 -6" /><path d="M9 9.5a.5 .5 0 1 0 1 0a.5 .5 0 1 0 -1 0" fill="currentColor" /><path d="M14 14.5a.5 .5 0 1 0 1 0a.5 .5 0 1 0 -1 0" fill="currentColor" /><path d="M3 12a9 9 0 1 0 18 0a9 9 0 1 0 -18 0" /></g>
    </symbol>
    <symbol id="icon-gift" viewBox="0 0 24 24">
      <g fill="none" stroke="currentColor" stroke-width="3" stroke-linecap="round" stroke-linejoin="round"><path d="M3 9a1 1 0 0 1 1 -1h16a1 1 0 0 1 1 1v2a1 1 0 0 1 -1 1h-16a1 1 0 0 1 -1 -1l0 -2" /><path d="M12 8l0 13" /><path d="M19 12v7a2 2 0 0 1 -2 2h-10a2 2 0 0 1 -2 -2v-7" /><path d="M7.5 8a2.5 2.5 0 0 1 0 -5a4.8 8 0 0 1 4.5 5a4.8 8 0 0 1 4.5 -5a2.5 2.5 0 0 1 0 5" /></g>
      <circle cx="19.5" cy="4.5" r="1.3" fill="currentColor"/>
    </symbol>
    <symbol id="icon-sun" viewBox="0 0 24 24">
      <g fill="none" stroke="currentColor" stroke-width="3" stroke-linecap="round" stroke-linejoin="round"><path d="M8 12a4 4 0 1 0 8 0a4 4 0 1 0 -8 0" /><path d="M3 12h1m8 -9v1m8 8h1m-9 8v1m-6.4 -15.4l.7 .7m12.1 -.7l-.7 .7m0 11.4l.7 .7m-12.1 -.7l-.7 .7" /></g>
    </symbol>
    <symbol id="icon-moon" viewBox="0 0 24 24">
      <g fill="none" stroke="currentColor" stroke-width="3" stroke-linecap="round" stroke-linejoin="round"><path d="M12 3c.132 0 .263 0 .393 0a7.5 7.5 0 0 0 7.92 12.446a9 9 0 1 1 -8.313 -12.454l0 .008" /></g>
    </symbol>
    <symbol id="icon-cloud" viewBox="0 0 24 24">
      <g fill="none" stroke="currentColor" stroke-width="3" stroke-linecap="round" stroke-linejoin="round"><path d="M7 18a4 4 0 0 1-1-7.87A5.5 5.5 0 0 1 16.5 9 4.5 4.5 0 0 1 18 18z"/></g>
    </symbol>
    <symbol id="icon-cloud-rain" viewBox="0 0 24 24">
      <g fill="none" stroke="currentColor" stroke-width="3" stroke-linecap="round" stroke-linejoin="round"><path d="M7 18a4.6 4.4 0 0 1 0 -9a5 4.5 0 0 1 11 2h1a3.5 3.5 0 0 1 0 7" /><path d="M11 13v2m0 3v2m4 -5v2m0 3v2" /></g>
    </symbol>
    <symbol id="icon-cloud-snow" viewBox="0 0 24 24">
      <g fill="none" stroke="currentColor" stroke-width="3" stroke-linecap="round" stroke-linejoin="round"><path d="M7 18a4.6 4.4 0 0 1 0 -9a5 4.5 0 0 1 11 2h1a3.5 3.5 0 0 1 0 7" /><path d="M11 15v.01m0 3v.01m0 3v.01m4 -4v.01m0 3v.01" /></g>
    </symbol>
    <symbol id="icon-storm" viewBox="0 0 24 24">
      <g fill="none" stroke="currentColor" stroke-width="3" stroke-linecap="round" stroke-linejoin="round"><path d="M9 12a3 3 0 1 0 6 0a3 3 0 1 0 -6 0" /><path d="M5 12a7 7 0 1 0 14 0a7 7 0 1 0 -14 0" /><path d="M5.369 14.236c-1.839 -3.929 -1.561 -7.616 -.704 -11.236" /><path d="M18.63 9.76c1.837 3.928 1.561 7.615 .703 11.236" /></g>
    </symbol>
    <symbol id="icon-rainbow" viewBox="0 0 24 24">
      <g fill="none" stroke="currentColor" stroke-width="3" stroke-linecap="round" stroke-linejoin="round"><path d="M22 17c0 -5.523 -4.477 -10 -10 -10c-5.523 0 -10 4.477 -10 10" /><path d="M18 17a6 6 0 1 0 -12 0" /><path d="M14 17a2 2 0 1 0 -4 0" /></g>
    </symbol>
    <symbol id="icon-snowflake" viewBox="0 0 24 24">
      <g fill="none" stroke="currentColor" stroke-width="3" stroke-linecap="round" stroke-linejoin="round"><path d="M10 4l2 1l2 -1" /><path d="M12 2v6.5l3 1.72" /><path d="M17.928 6.268l.134 2.232l1.866 1.232" /><path d="M20.66 7l-5.629 3.25l.01 3.458" /><path d="M19.928 14.268l-1.866 1.232l-.134 2.232" /><path d="M20.66 17l-5.629 -3.25l-2.99 1.738" /><path d="M14 20l-2 -1l-2 1" /><path d="M12 22v-6.5l-3 -1.72" /><path d="M6.072 17.732l-.134 -2.232l-1.866 -1.232" /><path d="M3.34 17l5.629 -3.25l-.01 -3.458" /><path d="M4.072 9.732l1.866 -1.232l.134 -2.232" /><path d="M3.34 7l5.629 3.25l2.99 -1.738" /></g>
    </symbol>
    <symbol id="icon-temperature" viewBox="0 0 24 24">
      <g fill="none" stroke="currentColor" stroke-width="3" stroke-linecap="round" stroke-linejoin="round"><path d="M10 13.5a4 4 0 1 0 4 0v-8.5a2 2 0 0 0 -4 0v8.5" /><path d="M10 9l4 0" /></g>
    </symbol>
    <symbol id="icon-map" viewBox="0 0 24 24">
      <g fill="none" stroke="currentColor" stroke-width="3" stroke-linecap="round" stroke-linejoin="round"><path d="M3 7l6 -3l6 3l6 -3v13l-6 3l-6 -3l-6 3v-13" /><path d="M9 4v13" /><path d="M15 7v13" /></g>
    </symbol>
    <symbol id="icon-map-pin" viewBox="0 0 24 24">
      <g fill="none" stroke="currentColor" stroke-width="3" stroke-linecap="round" stroke-linejoin="round"><path d="M12 21s7-6.5 7-12a7 7 0 0 0-14 0c0 5.5 7 12 7 12z"/><circle cx="12" cy="9" r="2.5"/></g>
    </symbol>
    <symbol id="icon-compass" viewBox="0 0 24 24">
      <g fill="none" stroke="currentColor" stroke-width="3" stroke-linecap="round" stroke-linejoin="round"><circle cx="12" cy="12" r="9"/><path d="m15 9-2 6-6 2 2-6z"/></g>
    </symbol>
    <symbol id="icon-globe" viewBox="0 0 24 24">
      <g fill="none" stroke="currentColor" stroke-width="3" stroke-linecap="round" stroke-linejoin="round"><circle cx="12" cy="12" r="9"/><path d="M3 12h18"/><path d="M12 3a14 14 0 0 1 0 18"/><path d="M12 3a14 14 0 0 0 0 18"/></g>
    </symbol>
    <symbol id="icon-road" viewBox="0 0 24 24">
      <g fill="none" stroke="currentColor" stroke-width="3" stroke-linecap="round" stroke-linejoin="round"><path d="M4 19l4 -14" /><path d="M16 5l4 14" /><path d="M12 8v-2" /><path d="M12 13v-2" /><path d="M12 18v-2" /></g>
    </symbol>
    <symbol id="icon-parking" viewBox="0 0 24 24">
      <g fill="none" stroke="currentColor" stroke-width="3" stroke-linecap="round" stroke-linejoin="round"><path d="M3 5a2 2 0 0 1 2 -2h14a2 2 0 0 1 2 2v14a2 2 0 0 1 -2 2h-14a2 2 0 0 1 -2 -2v-14" /><path d="M10 16v-8h2.667c.736 0 1.333 .895 1.333 2s-.597 2 -1.333 2h-2.667" /></g>
    </symbol>
    <symbol id="icon-plane" viewBox="0 0 24 24">
      <g fill="none" stroke="currentColor" stroke-width="3" stroke-linecap="round" stroke-linejoin="round"><path d="M16 10h4a2 2 0 0 1 0 4h-4l-4 7h-3l2 -7h-4l-2 2h-3l2 -4l-2 -4h3l2 2h4l-2 -7h3l4 7" /></g>
    </symbol>
    <symbol id="icon-bus" viewBox="0 0 24 24">
      <g fill="none" stroke="currentColor" stroke-width="3" stroke-linecap="round" stroke-linejoin="round"><path d="M4 17a2 2 0 1 0 4 0a2 2 0 1 0 -4 0" /><path d="M16 17a2 2 0 1 0 4 0a2 2 0 1 0 -4 0" /><path d="M4 17h-2v-11a1 1 0 0 1 1 -1h14a5 7 0 0 1 5 7v5h-2m-4 0h-8" /><path d="M16 5l1.5 7l4.5 0" /><path d="M2 10l15 0" /><path d="M7 5l0 5" /><path d="M12 5l0 5" /></g>
    </symbol>
    <symbol id="icon-car" viewBox="0 0 24 24">
      <g fill="none" stroke="currentColor" stroke-width="3" stroke-linecap="round" stroke-linejoin="round"><path d="M5 17a2 2 0 1 0 4 0a2 2 0 1 0 -4 0" /><path d="M15 17a2 2 0 1 0 4 0a2 2 0 1 0 -4 0" /><path d="M5 17h-2v-6l2 -5h9l4 5h1a2 2 0 0 1 2 2v4h-2m-4 0h-6m-6 -6h15m-6 0v-5" /></g>
    </symbol>
    <symbol id="icon-bike" viewBox="0 0 24 24">
      <g fill="none" stroke="currentColor" stroke-width="3" stroke-linecap="round" stroke-linejoin="round"><path d="M2 18a3 3 0 1 0 6 0a3 3 0 0 0 -6 0" /><path d="M16 18a3 3 0 1 0 6 0a3 3 0 0 0 -6 0" /><path d="M12 19v-4l-3 -3l5 -4l2 3h3" /><path d="M13.007 5a2 2 0 1 0 4 0a2 2 0 1 0 -4 0" /></g>
    </symbol>
    <symbol id="icon-rocket" viewBox="0 0 24 24">
      <g fill="none" stroke="currentColor" stroke-width="3" stroke-linecap="round" stroke-linejoin="round"><path d="M4 13a8 8 0 0 1 7 7a6 6 0 0 0 3 -5a9 9 0 0 0 6 -8a3 3 0 0 0 -3 -3a9 9 0 0 0 -8 6a6 6 0 0 0 -5 3" /><path d="M7 14a6 6 0 0 0 -3 6a6 6 0 0 0 6 -3" /><path d="M14 9a1 1 0 1 0 2 0a1 1 0 1 0 -2 0" /></g>
    </symbol>
    <symbol id="icon-accessible" viewBox="0 0 24 24">
      <g fill="none" stroke="currentColor" stroke-width="3" stroke-linecap="round" stroke-linejoin="round"><path d="M3 12a9 9 0 1 0 18 0a9 9 0 1 0 -18 0" /><path d="M10 16.5l2 -3l2 3m-2 -3v-2l3 -1m-6 0l3 1" /><path d="M11.5 7.5a.5 .5 0 1 0 1 0a.5 .5 0 1 0 -1 0" fill="currentColor" /></g>
    </symbol>
    <symbol id="icon-eye" viewBox="0 0 24 24">
      <g fill="none" stroke="currentColor" stroke-width="3" stroke-linecap="round" stroke-linejoin="round"><path d="M2 12s4-7 10-7 10 7 10 7-4 7-10 7-10-7-10-7z"/><circle cx="12" cy="12" r="3"/></g>
    </symbol>
    <symbol id="icon-bar-chart" viewBox="0 0 24 24">
      <g fill="none" stroke="currentColor" stroke-width="3" stroke-linecap="round" stroke-linejoin="round"><path d="M4 20V10"/><path d="M12 20V4"/><path d="M20 20v-7"/></g>
    </symbol>
    <symbol id="icon-pie-chart" viewBox="0 0 24 24">
      <g fill="none" stroke="currentColor" stroke-width="3" stroke-linecap="round" stroke-linejoin="round"><path d="M12 3a9 9 0 1 0 9 9H12z"/></g>
    </symbol>
    <symbol id="icon-table" viewBox="0 0 24 24">
      <g fill="none" stroke="currentColor" stroke-width="3" stroke-linecap="round" stroke-linejoin="round"><rect x="3" y="4" width="18" height="16" rx="1.5"/><path d="M3 10h18"/><path d="M9 4v16"/></g>
    </symbol>
    <symbol id="icon-activity" viewBox="0 0 24 24">
      <g fill="none" stroke="currentColor" stroke-width="3" stroke-linecap="round" stroke-linejoin="round"><path d="M3 12h4l2-7 4 14 2-7h6"/></g>
    </symbol>
    <symbol id="icon-trending-up" viewBox="0 0 24 24">
      <g fill="none" stroke="currentColor" stroke-width="3" stroke-linecap="round" stroke-linejoin="round"><path d="m3 17 6-6 4 4 8-8"/><path d="M17 7h4v4"/></g>
    </symbol>
    <symbol id="icon-database" viewBox="0 0 24 24">
      <g fill="none" stroke="currentColor" stroke-width="3" stroke-linecap="round" stroke-linejoin="round"><path d="M4 6a8 3 0 1 0 16 0a8 3 0 1 0 -16 0" /><path d="M4 6v6a8 3 0 0 0 16 0v-6" /><path d="M4 12v6a8 3 0 0 0 16 0v-6" /></g>
    </symbol>
    <symbol id="icon-layers" viewBox="0 0 24 24">
      <g fill="none" stroke="currentColor" stroke-width="3" stroke-linecap="round" stroke-linejoin="round"><path d="m12 3 9 5-9 5-9-5z"/><path d="m3 13 9 5 9-5"/></g>
    </symbol>
    <symbol id="icon-layout" viewBox="0 0 24 24">
      <g fill="none" stroke="currentColor" stroke-width="3" stroke-linecap="round" stroke-linejoin="round"><rect x="3" y="3" width="18" height="18" rx="2"/><path d="M3 9h18"/><path d="M9 9v12"/></g>
    </symbol>
    <symbol id="icon-zoom-in" viewBox="0 0 24 24">
      <g fill="none" stroke="currentColor" stroke-width="3" stroke-linecap="round" stroke-linejoin="round"><circle cx="11" cy="11" r="7"/><path d="m21 21-4.3-4.3"/><path d="M11 8v6"/><path d="M8 11h6"/></g>
    </symbol>
    <symbol id="icon-zoom-out" viewBox="0 0 24 24">
      <g fill="none" stroke="currentColor" stroke-width="3" stroke-linecap="round" stroke-linejoin="round"><circle cx="11" cy="11" r="7"/><path d="m21 21-4.3-4.3"/><path d="M8 11h6"/></g>
    </symbol>
    <symbol id="icon-maximize" viewBox="0 0 24 24">
      <g fill="none" stroke="currentColor" stroke-width="3" stroke-linecap="round" stroke-linejoin="round"><path d="M8 3H5a2 2 0 0 0-2 2v3"/><path d="M16 3h3a2 2 0 0 1 2 2v3"/><path d="M21 16v3a2 2 0 0 1-2 2h-3"/><path d="M8 21H5a2 2 0 0 1-2-2v-3"/></g>
    </symbol>
    <symbol id="icon-shield" viewBox="0 0 24 24">
      <g fill="none" stroke="currentColor" stroke-width="3" stroke-linecap="round" stroke-linejoin="round"><path d="M12 3 4 6v6c0 5 3.5 8 8 9 4.5-1 8-4 8-9V6z"/></g>
    </symbol>
    <symbol id="icon-key" viewBox="0 0 24 24">
      <g fill="none" stroke="currentColor" stroke-width="3" stroke-linecap="round" stroke-linejoin="round"><circle cx="8" cy="15" r="4"/><path d="m11 12 8-8"/><path d="m16 7 3 3"/><path d="m14 9 2.5 2.5"/></g>
      <circle cx="19.5" cy="4.5" r="1.3" fill="currentColor"/>
    </symbol>
    <symbol id="icon-fingerprint" viewBox="0 0 24 24">
      <g fill="none" stroke="currentColor" stroke-width="3" stroke-linecap="round" stroke-linejoin="round"><path d="M12 3a7 7 0 0 0-7 7v2c0 3.5 1 6 2 8"/><path d="M12 3a7 7 0 0 1 7 7v2c0 1-.1 2-.3 3"/><path d="M8 21a13 13 0 0 0 1-5v-6a3 3 0 0 1 6 0v6"/><path d="M12 10v6a5 5 0 0 0 2 4"/></g>
    </symbol>
    <symbol id="icon-code" viewBox="0 0 24 24">
      <g fill="none" stroke="currentColor" stroke-width="3" stroke-linecap="round" stroke-linejoin="round"><path d="m9 8-5 4 5 4"/><path d="m15 8 5 4-5 4"/></g>
    </symbol>
    <symbol id="icon-caret-down" viewBox="0 0 24 24">
      <g fill="none" stroke="currentColor" stroke-width="3" stroke-linecap="round" stroke-linejoin="round"><path d="M6 10l6 6l6 -6h-12" /></g>
    </symbol>
    <symbol id="icon-caret-up" viewBox="0 0 24 24">
      <g fill="none" stroke="currentColor" stroke-width="3" stroke-linecap="round" stroke-linejoin="round"><path d="M18 14l-6 -6l-6 6h12" /></g>
    </symbol>
    <symbol id="icon-caret-left" viewBox="0 0 24 24">
      <g fill="none" stroke="currentColor" stroke-width="3" stroke-linecap="round" stroke-linejoin="round"><path d="M14 6l-6 6l6 6v-12" /></g>
    </symbol>
    <symbol id="icon-caret-right" viewBox="0 0 24 24">
      <g fill="none" stroke="currentColor" stroke-width="3" stroke-linecap="round" stroke-linejoin="round"><path d="M10 18l6 -6l-6 -6v12" /></g>
    </symbol>
    <symbol id="icon-palette" viewBox="0 0 24 24">
      <g fill="none" stroke="currentColor" stroke-width="3" stroke-linecap="round" stroke-linejoin="round"><path d="M12 3a9 9 0 1 0 0 18c1 0 1.8-.8 1.8-1.8 0-.5-.2-.9-.5-1.2-.3-.3-.5-.7-.5-1.2 0-1 .8-1.8 1.8-1.8H16a4 4 0 0 0 4-4c0-4.4-3.6-8-8-8z"/><circle cx="7.5" cy="10.5" r="1.2"/><circle cx="11" cy="7" r="1.2"/><circle cx="15" cy="8" r="1.2"/></g>
    </symbol>
  </defs>
</svg>
