<svg xmlns="http://www.w3.org/2000/svg" style="display:none">
  <!-- Vaporwave: retro-futuristic geometric line work — thin uniform
       strokes (currentColor, fill:none, no baked stroke-width, sized via
       the shared icon stroke-width token like the generic set), rounded
       caps/joins for a sleek 80s-digital feel. A handful of icons carry a
       small pair of short parallel diagonal lines as a subtle nod to the
       theme's perspective-grid horizon — never on every icon, only where
       a ground-plane or motion cue fits naturally. Ids not listed here
       fall back to the generic outline sprite. -->
  <defs>
    <symbol id="icon-home" viewBox="0 0 24 24">
      <path d="M3 11.5 12 4l9 7.5"/>
      <path d="M5.5 10v9a1 1 0 0 0 1 1H9a1 1 0 0 0 1-1v-4a1 1 0 0 1 1-1h2a1 1 0 0 1 1 1v4a1 1 0 0 0 1 1h2.5a1 1 0 0 0 1-1v-9"/>
      <path d="M2 22.5l4-2.4M18 20.1l4 2.4" stroke-width="1"/>
    </symbol>
    <symbol id="icon-settings" viewBox="0 0 24 24">
      <circle cx="12" cy="12" r="3.2"/>
      <path d="M12 3v2.4M12 18.6V21M21 12h-2.4M5.4 12H3M18.1 5.9l-1.7 1.7M7.6 16.4l-1.7 1.7M18.1 18.1l-1.7-1.7M7.6 7.6 5.9 5.9"/>
    </symbol>
    <symbol id="icon-search" viewBox="0 0 24 24">
      <circle cx="11" cy="11" r="7"/>
      <path d="m21 21-4.3-4.3"/>
    </symbol>
    <symbol id="icon-close" viewBox="0 0 24 24">
      <path d="M18 6 6 18"/>
      <path d="M6 6l12 12"/>
    </symbol>
    <symbol id="icon-menu" viewBox="0 0 24 24">
      <path d="M3 6h18"/>
      <path d="M3 12h18"/>
      <path d="M3 18h18"/>
    </symbol>
    <symbol id="icon-check" viewBox="0 0 24 24">
      <path d="m4 12.5 5.5 5.5L20 6.5"/>
    </symbol>
    <symbol id="icon-plus" viewBox="0 0 24 24">
      <path d="M12 4v16"/>
      <path d="M4 12h16"/>
    </symbol>
    <symbol id="icon-minus" viewBox="0 0 24 24">
      <path d="M4 12h16"/>
    </symbol>
    <symbol id="icon-arrow-left" viewBox="0 0 24 24">
      <path d="M20 12H4"/>
      <path d="m10 18-6-6 6-6"/>
    </symbol>
    <symbol id="icon-arrow-right" viewBox="0 0 24 24">
      <path d="M4 12h16"/>
      <path d="m14 6 6 6-6 6"/>
    </symbol>
    <symbol id="icon-arrow-up" viewBox="0 0 24 24">
      <path d="M12 20V4"/>
      <path d="m6 10 6-6 6 6"/>
    </symbol>
    <symbol id="icon-arrow-down" viewBox="0 0 24 24">
      <path d="M12 4v16"/>
      <path d="m6 14 6 6 6-6"/>
    </symbol>
    <symbol id="icon-chevron-left" viewBox="0 0 24 24">
      <path d="m15 5-7 7 7 7"/>
    </symbol>
    <symbol id="icon-chevron-right" viewBox="0 0 24 24">
      <path d="m9 5 7 7-7 7"/>
    </symbol>
    <symbol id="icon-chevron-up" viewBox="0 0 24 24">
      <path d="m5 15 7-7 7 7"/>
    </symbol>
    <symbol id="icon-chevron-down" viewBox="0 0 24 24">
      <path d="m5 9 7 7 7-7"/>
    </symbol>
    <symbol id="icon-play" viewBox="0 0 24 24">
      <path d="M6 4v16l14-8z"/>
    </symbol>
    <symbol id="icon-pause" viewBox="0 0 24 24">
      <path d="M8 4v16"/>
      <path d="M16 4v16"/>
    </symbol>
    <symbol id="icon-stop" viewBox="0 0 24 24">
      <rect x="5" y="5" width="14" height="14" rx="1"/>
    </symbol>
    <symbol id="icon-mail" viewBox="0 0 24 24">
      <rect x="3" y="5" width="18" height="14" rx="1.5"/>
      <path d="m3 7 9 6 9-6"/>
    </symbol>
    <symbol id="icon-calendar" viewBox="0 0 24 24">
      <rect x="3" y="5" width="18" height="16" rx="1.5"/>
      <path d="M3 9.5h18"/>
      <path d="M8 3v4"/>
      <path d="M16 3v4"/>
    </symbol>
    <symbol id="icon-clock" viewBox="0 0 24 24">
      <circle cx="12" cy="12" r="9"/>
      <path d="M12 7v5l4 2"/>
    </symbol>
    <symbol id="icon-folder" viewBox="0 0 24 24">
      <path d="M3 7a2 2 0 0 1 2-2h4l2 2h8a2 2 0 0 1 2 2v8a2 2 0 0 1-2 2H5a2 2 0 0 1-2-2z"/>
      <path d="M2 22.2 6 20M18 20l4 2.2" stroke-width="1"/>
    </symbol>
    <symbol id="icon-file" viewBox="0 0 24 24">
      <path d="M6 3h8l4 4v14a1 1 0 0 1-1 1H6a1 1 0 0 1-1-1V4a1 1 0 0 1 1-1z"/>
      <path d="M14 3v4h4"/>
    </symbol>
    <symbol id="icon-trash" viewBox="0 0 24 24">
      <path d="M4 7h16"/>
      <path d="M9 7V4h6v3"/>
      <path d="M6 7l1 13h10l1-13"/>
    </symbol>
    <symbol id="icon-edit" viewBox="0 0 24 24">
      <path d="M4 20h4l11-11-4-4L4 16z"/>
      <path d="M13.5 6.5l4 4"/>
    </symbol>
    <symbol id="icon-download" viewBox="0 0 24 24">
      <path d="M12 3v13"/>
      <path d="m6 11 6 6 6-6"/>
      <path d="M4 21h16"/>
    </symbol>
    <symbol id="icon-upload" viewBox="0 0 24 24">
      <path d="M12 21V8"/>
      <path d="m6 13 6-6 6 6"/>
      <path d="M4 21h16"/>
    </symbol>
    <symbol id="icon-star" viewBox="0 0 24 24">
      <path d="m12 3 2.7 5.9 6.3.6-4.8 4.3 1.4 6.2L12 16.9 6.4 20l1.4-6.2L3 9.5l6.3-.6z"/>
      <path d="M4 22.2 7 20M17 20l3 2.2" stroke-width="1"/>
    </symbol>
    <symbol id="icon-lock" viewBox="0 0 24 24">
      <rect x="4" y="11" width="16" height="10" rx="1.5"/>
      <path d="M8 11V7a4 4 0 0 1 8 0v4"/>
    </symbol>
    <symbol id="icon-unlock" viewBox="0 0 24 24">
      <rect x="4" y="11" width="16" height="10" rx="1.5"/>
      <path d="M8 11V7a4 4 0 0 1 7.5-2"/>
    </symbol>
    <symbol id="icon-phone" viewBox="0 0 24 24">
      <path d="M5 4h4l1.5 4.5L8 10.5a12 12 0 0 0 5.5 5.5l2-2.5L20 15v4a1.5 1.5 0 0 1-1.6 1.5A16 16 0 0 1 4 5.6 1.5 1.5 0 0 1 5 4z"/>
    </symbol>
    <symbol id="icon-wifi" viewBox="0 0 24 24">
      <path d="M2 9a16 16 0 0 1 20 0"/>
      <path d="M5.5 13a11 11 0 0 1 13 0"/>
      <path d="M9 17a6 6 0 0 1 6 0"/>
      <path d="M12 21h.01"/>
    </symbol>
    <symbol id="icon-battery" viewBox="0 0 24 24">
      <rect x="2" y="7" width="18" height="10" rx="2"/>
      <path d="M22 10v4"/>
      <path d="M6 9v6"/>
    </symbol>
    <symbol id="icon-power" viewBox="0 0 24 24">
      <path d="M12 3v8"/>
      <path d="M6.5 6.5a8 8 0 1 0 11 0"/>
    </symbol>
    <symbol id="icon-volume" viewBox="0 0 24 24">
      <path d="M4 9v6h4l5 4V5L8 9z"/>
      <path d="M17 8a5 5 0 0 1 0 8"/>
      <path d="M19.5 5.5a9 9 0 0 1 0 13"/>
    </symbol>
    <symbol id="icon-info" viewBox="0 0 24 24">
      <circle cx="12" cy="12" r="9"/>
      <path d="M12 11v6"/>
      <path d="M12 7h.01"/>
    </symbol>
    <symbol id="icon-warning" viewBox="0 0 24 24">
      <path d="M12 3 2 20h20z"/>
      <path d="M12 10v4"/>
      <path d="M12 17h.01"/>
    </symbol>
    <symbol id="icon-help-circle" viewBox="0 0 24 24">
      <circle cx="12" cy="12" r="9"/>
      <path d="M9.5 9a2.5 2.5 0 1 1 3.4 2.3c-.9.4-1.4 1-1.4 2"/>
      <path d="M12 17h.01"/>
    </symbol>
    <symbol id="icon-logout" viewBox="0 0 24 24">
      <path d="M9 21H5a2 2 0 0 1-2-2V5a2 2 0 0 1 2-2h4"/>
      <path d="m16 17 5-5-5-5"/>
      <path d="M21 12H9"/>
      <path d="M2 22.2 5 20" stroke-width="1"/>
    </symbol>
    <symbol id="icon-refresh" viewBox="0 0 24 24">
      <path d="M20 11A8 8 0 1 0 8.5 19.36"/>
      <path d="M20 5v6h-6"/>
      <path d="M3 22l3-2M18 20l3 2" stroke-width="1"/>
    </symbol>
    <symbol id="icon-user" viewBox="0 0 24 24">
      <circle cx="12" cy="8" r="4"/>
      <path d="M4 21c0-4 3.6-7 8-7s8 3 8 7"/>
    </symbol>
    <symbol id="icon-bell" viewBox="0 0 24 24">
      <path d="M6 10a6 6 0 0 1 12 0c0 5 2 6 2 6H4s2-1 2-6"/>
      <path d="M10 20a2 2 0 0 0 4 0"/>
    </symbol>
    <!-- Extension batch 2: broader coverage, same thin uniform-stroke
         convention. A handful (travel/nature concepts) carry the short
         parallel diagonal "grid horizon" accent lines. -->
    <symbol id="icon-file-text" viewBox="0 0 24 24">
      <path d="M14 3v4a1 1 0 0 0 1 1h4"/>
      <path d="M17 21h-10a2 2 0 0 1 -2 -2v-14a2 2 0 0 1 2 -2h7l5 5v11a2 2 0 0 1 -2 2"/>
      <path d="M9 13h6"/><path d="M9 17h6"/>
    </symbol>
    <symbol id="icon-file-code" viewBox="0 0 24 24">
      <path d="M14 3v4a1 1 0 0 0 1 1h4"/>
      <path d="M17 21h-10a2 2 0 0 1 -2 -2v-14a2 2 0 0 1 2 -2h7l5 5v11a2 2 0 0 1 -2 2"/>
      <path d="M10 13l-1 2l1 2"/><path d="M14 13l1 2l-1 2"/>
    </symbol>
    <symbol id="icon-file-zip" viewBox="0 0 24 24">
      <path d="M6 20.7a2 2 0 0 1 -1 -1.7v-14a2 2 0 0 1 2 -2h7l5 5v11a2 2 0 0 1 -2 2h-1"/>
      <path d="M11 17a2 2 0 0 1 2 2v2a1 1 0 0 1 -1 1h-2a1 1 0 0 1 -1 -1v-2a2 2 0 0 1 2 -2"/>
      <path d="M11 5h1M11 9h1M11 13h1"/>
    </symbol>
    <symbol id="icon-file-music" viewBox="0 0 24 24">
      <path d="M14 3v4a1 1 0 0 0 1 1h4"/>
      <path d="M17 21h-10a2 2 0 0 1 -2 -2v-14a2 2 0 0 1 2 -2h7l5 5v11a2 2 0 0 1 -2 2"/>
      <circle cx="11" cy="16" r="1"/><path d="M12 16v-5l2 1"/>
    </symbol>
    <symbol id="icon-file-spreadsheet" viewBox="0 0 24 24">
      <path d="M14 3v4a1 1 0 0 0 1 1h4"/>
      <path d="M17 21h-10a2 2 0 0 1 -2 -2v-14a2 2 0 0 1 2 -2h7l5 5v11a2 2 0 0 1 -2 2"/>
      <path d="M8 11h8v7h-8z"/><path d="M8 15h8"/><path d="M11 11v7"/>
    </symbol>
    <symbol id="icon-file-check" viewBox="0 0 24 24">
      <path d="M14 3v4a1 1 0 0 0 1 1h4"/>
      <path d="M17 21h-10a2 2 0 0 1 -2 -2v-14a2 2 0 0 1 2 -2h7l5 5v11a2 2 0 0 1 -2 2"/>
      <path d="M9 15l2 2l4 -4"/>
    </symbol>
    <symbol id="icon-file-plus" viewBox="0 0 24 24">
      <path d="M14 3v4a1 1 0 0 0 1 1h4"/>
      <path d="M17 21h-10a2 2 0 0 1 -2 -2v-14a2 2 0 0 1 2 -2h7l5 5v11a2 2 0 0 1 -2 2"/>
      <path d="M12 11v6"/><path d="M9 14h6"/>
    </symbol>
    <symbol id="icon-files" viewBox="0 0 24 24">
      <path d="M15 3v4a1 1 0 0 0 1 1h4"/>
      <path d="M18 17h-7a2 2 0 0 1 -2 -2v-10a2 2 0 0 1 2 -2h4l5 5v7a2 2 0 0 1 -2 2"/>
      <path d="M16 17v2a2 2 0 0 1 -2 2h-7a2 2 0 0 1 -2 -2v-10a2 2 0 0 1 2 -2h2"/>
    </symbol>
    <symbol id="icon-cpu" viewBox="0 0 24 24">
      <rect x="5" y="5" width="14" height="14" rx="1"/>
      <rect x="9" y="9" width="6" height="6"/>
      <path d="M3 10h2M3 14h2M10 3v2M14 3v2M21 10h-2M21 14h-2M14 21v-2M10 21v-2"/>
    </symbol>
    <symbol id="icon-server" viewBox="0 0 24 24">
      <rect x="3" y="4" width="18" height="6" rx="1.5"/>
      <rect x="3" y="14" width="18" height="6" rx="1.5"/>
      <path d="M7 7h.01"/><path d="M7 17h.01"/>
    </symbol>
    <symbol id="icon-hard-drive" viewBox="0 0 24 24">
      <rect x="2" y="10" width="20" height="8" rx="2"/>
      <path d="M6 14h.01"/><path d="M10 14h4"/><path d="m4 10 3-6h10l3 6"/>
    </symbol>
    <symbol id="icon-usb" viewBox="0 0 24 24">
      <circle cx="12" cy="5" r="2"/><circle cx="6" cy="19" r="2"/><circle cx="18" cy="19" r="2"/>
      <path d="M12 7v6"/><path d="M12 13 6 17"/><path d="M12 13l6 4"/>
    </symbol>
    <symbol id="icon-bluetooth" viewBox="0 0 24 24">
      <path d="M7 7 17 17l-5 5V2l5 5L7 17"/>
    </symbol>
    <symbol id="icon-keyboard" viewBox="0 0 24 24">
      <rect x="2" y="6" width="20" height="12" rx="2"/>
      <path d="M6 10h.01M10 10h.01M14 10h.01M18 10h.01M6 14h.01M18 14h.01M10 14h4"/>
    </symbol>
    <symbol id="icon-mouse" viewBox="0 0 24 24">
      <path d="M6 7a4 4 0 0 1 4 -4h4a4 4 0 0 1 4 4v10a4 4 0 0 1 -4 4h-4a4 4 0 0 1 -4 -4z"/>
      <path d="M12 7v4"/>
    </symbol>
    <symbol id="icon-print" viewBox="0 0 24 24">
      <path d="M6 9V3h12v6"/><rect x="4" y="9" width="16" height="8" rx="1.5"/><path d="M6 17v4h12v-4"/>
    </symbol>
    <symbol id="icon-device-desktop" viewBox="0 0 24 24">
      <rect x="3" y="4" width="18" height="12" rx="1"/><path d="M7 20h10"/><path d="M9 16v4"/><path d="M15 16v4"/>
    </symbol>
    <symbol id="icon-device-laptop" viewBox="0 0 24 24">
      <path d="M3 19h18"/><rect x="5" y="6" width="14" height="9" rx="1"/>
    </symbol>
    <symbol id="icon-device-mobile" viewBox="0 0 24 24">
      <rect x="6" y="3" width="12" height="18" rx="2"/><path d="M11 4h2"/><path d="M12 17v.01"/>
    </symbol>
    <symbol id="icon-device-tablet" viewBox="0 0 24 24">
      <rect x="5" y="3" width="14" height="18" rx="1"/><circle cx="12" cy="17" r="1"/>
    </symbol>
    <symbol id="icon-device-watch" viewBox="0 0 24 24">
      <rect x="6" y="6" width="12" height="12" rx="3"/><path d="M9 18v3h6v-3"/><path d="M9 6v-3h6v3"/>
    </symbol>
    <symbol id="icon-device-gamepad" viewBox="0 0 24 24">
      <rect x="2" y="6" width="20" height="12" rx="3"/>
      <path d="M6 12h4"/><path d="M8 10v4"/><circle cx="15" cy="11" r=".6" fill="currentColor" stroke="none"/><circle cx="18" cy="13" r=".6" fill="currentColor" stroke="none"/>
    </symbol>
    <symbol id="icon-headphones" viewBox="0 0 24 24">
      <path d="M4 14v-2a8 8 0 0 1 16 0v2"/><rect x="2" y="14" width="5" height="7" rx="1.5"/><rect x="17" y="14" width="5" height="7" rx="1.5"/>
    </symbol>
    <symbol id="icon-microphone" viewBox="0 0 24 24">
      <rect x="9" y="2" width="6" height="11" rx="3"/><path d="M5 10a7 7 0 0 0 14 0"/><path d="M8 21h8"/><path d="M12 17v4"/>
    </symbol>
    <symbol id="icon-message" viewBox="0 0 24 24">
      <path d="M18 4a3 3 0 0 1 3 3v8a3 3 0 0 1 -3 3h-5l-5 3v-3h-2a3 3 0 0 1 -3 -3v-8a3 3 0 0 1 3 -3z"/>
      <path d="M8 9h8"/><path d="M8 13h6"/>
    </symbol>
    <symbol id="icon-message-circle" viewBox="0 0 24 24">
      <path d="M3 20l1.3 -3.9c-2.3 -3.4 -1.4 -7.9 2.1 -10.4c3.5 -2.5 8.6 -2.3 11.8 .5c3.3 2.8 3.7 7.3 1 10.5c-2.7 3.2-7.6 4.2-11.6 2.3z"/>
    </symbol>
    <symbol id="icon-share" viewBox="0 0 24 24">
      <circle cx="18" cy="5" r="2.2"/><circle cx="6" cy="12" r="2.2"/><circle cx="18" cy="19" r="2.2"/>
      <path d="m8 10.8 8-4.6"/><path d="m8 13.2 8 4.6"/>
    </symbol>
    <symbol id="icon-external-link" viewBox="0 0 24 24">
      <path d="M14 4h6v6"/><path d="M20 4 10 14"/><path d="M18 14v6H4V6h6"/>
    </symbol>
    <symbol id="icon-link" viewBox="0 0 24 24">
      <path d="M9 15 15 9"/><path d="M7 12 4.5 14.5a3.5 3.5 0 0 0 5 5L12 17"/><path d="M17 12l2.5-2.5a3.5 3.5 0 0 0-5-5L12 7"/>
    </symbol>
    <symbol id="icon-copy" viewBox="0 0 24 24">
      <rect x="9" y="9" width="12" height="12" rx="1.5"/><path d="M5 15H4a1 1 0 0 1-1-1V4a1 1 0 0 1 1-1h10a1 1 0 0 1 1 1v1"/>
    </symbol>
    <symbol id="icon-clipboard" viewBox="0 0 24 24">
      <rect x="6" y="4" width="12" height="17" rx="1.5"/><rect x="9" y="2" width="6" height="4" rx="1"/>
    </symbol>
    <symbol id="icon-credit-card" viewBox="0 0 24 24">
      <rect x="3" y="5" width="18" height="14" rx="2"/><path d="M3 10h18"/><path d="M7 15h.01"/><path d="M11 15h2"/>
    </symbol>
    <symbol id="icon-shopping-cart" viewBox="0 0 24 24">
      <circle cx="9" cy="20" r="1.3"/><circle cx="17" cy="20" r="1.3"/>
      <path d="M2 3h2l2.6 12.4a2 2 0 0 0 2 1.6h8.8a2 2 0 0 0 2-1.6L21 8H6"/>
    </symbol>
    <symbol id="icon-shopping-bag" viewBox="0 0 24 24">
      <path d="M6.3 8h11.3a2 2 0 0 1 2 2.3l-1.3 8.2a3 3 0 0 1 -3 2.5h-6.9a3 3 0 0 1 -3 -2.5l-1.2 -8.2a2 2 0 0 1 2 -2.3z"/>
      <path d="M9 11v-5a3 3 0 0 1 6 0v5"/>
    </symbol>
    <symbol id="icon-receipt" viewBox="0 0 24 24">
      <path d="M5 21v-16a2 2 0 0 1 2 -2h10a2 2 0 0 1 2 2v16l-3 -2l-2 2l-2 -2l-2 2l-2 -2z"/>
      <path d="M9 7h6"/><path d="M9 11h6"/><path d="M11 15h2"/>
    </symbol>
    <symbol id="icon-coin" viewBox="0 0 24 24">
      <circle cx="12" cy="12" r="9"/>
      <path d="M14.8 9a2 2 0 0 0 -1.8 -1h-2a2 2 0 1 0 0 4h2a2 2 0 1 1 0 4h-2a2 2 0 0 1 -1.8 -1"/>
      <path d="M12 7v10"/>
    </symbol>
    <symbol id="icon-cash" viewBox="0 0 24 24">
      <path d="M7 15h-3a1 1 0 0 1 -1 -1v-8a1 1 0 0 1 1 -1h12a1 1 0 0 1 1 1v3"/>
      <rect x="7" y="9" width="14" height="9" rx="1"/><circle cx="14" cy="14" r="2"/>
    </symbol>
    <symbol id="icon-tag" viewBox="0 0 24 24">
      <path d="M20 12 12 20 4 12V4h8z"/><circle cx="8" cy="8" r="1.5"/>
    </symbol>
    <symbol id="icon-gift" viewBox="0 0 24 24">
      <rect x="3" y="9" width="18" height="4" rx="1"/><path d="M12 8v13"/>
      <path d="M19 12v7a2 2 0 0 1 -2 2h-10a2 2 0 0 1 -2 -2v-7"/>
      <path d="M7.5 8a2.5 2.5 0 0 1 0 -5a5 8 0 0 1 4.5 5a5 8 0 0 1 4.5 -5a2.5 2.5 0 0 1 0 5"/>
    </symbol>
    <symbol id="icon-cloud" viewBox="0 0 24 24">
      <path d="M7 18a4 4 0 0 1-1-7.87A5.5 5.5 0 0 1 16.5 9 4.5 4.5 0 0 1 18 18z"/>
      <path d="M2 22.4 5.5 20M18.5 20l3.5 2.4" stroke-width="1"/>
    </symbol>
    <symbol id="icon-cloud-rain" viewBox="0 0 24 24">
      <path d="M7 18a4.6 4.4 0 0 1 0 -9a5 4.5 0 0 1 11 2h1a3.5 3.5 0 0 1 0 7"/>
      <path d="M11 20v2m4-2v2"/>
    </symbol>
    <symbol id="icon-cloud-snow" viewBox="0 0 24 24">
      <path d="M7 18a4.6 4.4 0 0 1 0 -9a5 4.5 0 0 1 11 2h1a3.5 3.5 0 0 1 0 7"/>
      <path d="M11 21v.01M15 21v.01M11 18v.01M15 18v.01"/>
    </symbol>
    <symbol id="icon-sun" viewBox="0 0 24 24">
      <circle cx="12" cy="12" r="4"/>
      <path d="M3 12h1m8-9v1m8 8h1m-9 8v1M6 6l.7.7M18 6l-.7.7M18 18l-.7-.7M6 18l.7-.7"/>
    </symbol>
    <symbol id="icon-moon" viewBox="0 0 24 24">
      <path d="M12 3a7.5 7.5 0 0 0 7.9 12.4A9 9 0 1 1 12 3z"/>
    </symbol>
    <symbol id="icon-sun-moon" viewBox="0 0 24 24">
      <path d="M9.2 14.8a4 4 0 1 1 5.6-5.6"/>
      <path d="M11.3 12.7A7.5 7.5 0 0 0 20 15.4a9 9 0 1 1-14.7 3"/>
      <path d="M3 12h1M12 3v1M5.6 5.6l.7.7"/>
    </symbol>
    <symbol id="icon-snowflake" viewBox="0 0 24 24">
      <path d="M12 2v20"/><path d="M4 7l16 10"/><path d="M20 7 4 17"/>
      <path d="M10 4l2 1l2-1M14 20l-2-1l-2 1M6.3 8.7l-.1 2.2-1.9 1.2M17.7 15.3l.1-2.2 1.9-1.2M17.7 8.7l.1 2.2 1.9 1.2M6.3 15.3l-.1-2.2-1.9-1.2"/>
    </symbol>
    <symbol id="icon-temperature" viewBox="0 0 24 24">
      <path d="M10 13.5a4 4 0 1 0 4 0v-8.5a2 2 0 0 0 -4 0z"/><path d="M10 9h4"/>
    </symbol>
    <symbol id="icon-map" viewBox="0 0 24 24">
      <path d="M3 7l6 -3l6 3l6 -3v13l-6 3l-6 -3l-6 3z"/><path d="M9 4v13"/><path d="M15 7v13"/>
      <path d="M2 21.4 4 20M20 20l2 1.4" stroke-width="1"/>
    </symbol>
    <symbol id="icon-map-pin" viewBox="0 0 24 24">
      <path d="M12 21s7-6.5 7-12a7 7 0 0 0-14 0c0 5.5 7 12 7 12z"/><circle cx="12" cy="9" r="2.5"/>
    </symbol>
    <symbol id="icon-compass" viewBox="0 0 24 24">
      <circle cx="12" cy="12" r="9"/><path d="m15 9-2 6-6 2 2-6z"/>
    </symbol>
    <symbol id="icon-globe" viewBox="0 0 24 24">
      <circle cx="12" cy="12" r="9"/><path d="M3 12h18"/><path d="M12 3a14 14 0 0 1 0 18"/><path d="M12 3a14 14 0 0 0 0 18"/>
      <path d="M2 22.4 5 20.2M19 20.2l3 2.2" stroke-width="1"/>
    </symbol>
    <symbol id="icon-plane" viewBox="0 0 24 24">
      <path d="M16 10h4a2 2 0 0 1 0 4h-4l-4 7h-3l2 -7h-4l-2 2h-3l2 -4l-2 -4h3l2 2h4l-2 -7h3z"/>
      <path d="M2 22.4 6 20M17 19.9l4.5 2.5" stroke-width="1"/>
    </symbol>
    <symbol id="icon-car" viewBox="0 0 24 24">
      <path d="M5 17a2 2 0 1 0 4 0a2 2 0 1 0 -4 0"/><path d="M15 17a2 2 0 1 0 4 0a2 2 0 1 0 -4 0"/>
      <path d="M5 17h-2v-6l2 -5h9l4 5h1a2 2 0 0 1 2 2v4h-2m-4 0h-6m-6 -6h15"/>
      <path d="M1 22.4 4 20.5M20 20.5l3 1.9" stroke-width="1"/>
    </symbol>
    <symbol id="icon-rocket" viewBox="0 0 24 24">
      <path d="M4 13a8 8 0 0 1 7 7a6 6 0 0 0 3 -5a9 9 0 0 0 6 -8a3 3 0 0 0 -3 -3a9 9 0 0 0 -8 6a6 6 0 0 0 -5 3"/>
      <path d="M7 14a6 6 0 0 0 -3 6a6 6 0 0 0 6 -3"/><circle cx="15" cy="9" r="1"/>
    </symbol>
    <symbol id="icon-shield" viewBox="0 0 24 24">
      <path d="M12 3 4 6v6c0 5 3.5 8 8 9 4.5-1 8-4 8-9V6z"/>
    </symbol>
    <symbol id="icon-key" viewBox="0 0 24 24">
      <circle cx="8" cy="15" r="4"/><path d="m11 12 8-8"/><path d="m16 7 3 3"/><path d="m14 9 2.5 2.5"/>
    </symbol>
    <symbol id="icon-fingerprint" viewBox="0 0 24 24">
      <path d="M12 3a7 7 0 0 0-7 7v2c0 3.5 1 6 2 8"/><path d="M12 3a7 7 0 0 1 7 7v2c0 1-.1 2-.3 3"/>
      <path d="M8 21a13 13 0 0 0 1-5v-6a3 3 0 0 1 6 0v6"/><path d="M12 10v6a5 5 0 0 0 2 4"/>
    </symbol>
    <symbol id="icon-eye" viewBox="0 0 24 24">
      <path d="M2 12s4-7 10-7 10 7 10 7-4 7-10 7-10-7-10-7z"/><circle cx="12" cy="12" r="3"/>
    </symbol>
    <symbol id="icon-eye-off" viewBox="0 0 24 24">
      <path d="M3 3l18 18"/><path d="M10.6 5.2A10.6 10.6 0 0 1 12 5c6 0 10 7 10 7a17 17 0 0 1-3.2 4"/>
      <path d="M6.6 6.6C4 8.3 2 12 2 12s4 7 10 7a9.6 9.6 0 0 0 4.4-1"/><path d="M9.5 9.5a3 3 0 0 0 4.2 4.2"/>
    </symbol>
    <symbol id="icon-code" viewBox="0 0 24 24">
      <path d="m9 8-5 4 5 4"/><path d="m15 8 5 4-5 4"/>
    </symbol>
    <symbol id="icon-terminal" viewBox="0 0 24 24">
      <path d="m5 7 5 5-5 5"/><path d="M13 17h6"/>
    </symbol>
    <symbol id="icon-database" viewBox="0 0 24 24">
      <path d="M4 6a8 3 0 1 0 16 0a8 3 0 1 0 -16 0"/><path d="M4 6v6a8 3 0 0 0 16 0v-6"/><path d="M4 12v6a8 3 0 0 0 16 0v-6"/>
    </symbol>
    <symbol id="icon-layout" viewBox="0 0 24 24">
      <rect x="3" y="3" width="18" height="18" rx="2"/><path d="M3 9h18"/><path d="M9 9v12"/>
    </symbol>
    <symbol id="icon-layers" viewBox="0 0 24 24">
      <path d="m12 3 9 5-9 5-9-5z"/><path d="m3 13 9 5 9-5"/>
    </symbol>
    <symbol id="icon-bar-chart" viewBox="0 0 24 24">
      <path d="M4 20V10"/><path d="M12 20V4"/><path d="M20 20v-7"/>
    </symbol>
    <symbol id="icon-table" viewBox="0 0 24 24">
      <rect x="3" y="4" width="18" height="16" rx="1.5"/><path d="M3 10h18"/><path d="M9 4v16"/>
    </symbol>
    <symbol id="icon-trending-up" viewBox="0 0 24 24">
      <path d="m3 17 6-6 4 4 8-8"/><path d="M17 7h4v4"/>
    </symbol>
    <symbol id="icon-activity" viewBox="0 0 24 24">
      <path d="M3 12h4l2-7 4 14 2-7h6"/>
    </symbol>
    <symbol id="icon-heart" viewBox="0 0 24 24">
      <path d="M19.5 12.6l-7.5 7.4-7.5-7.4a5 5 0 1 1 7.5-6.6a5 5 0 1 1 7.5 6.6"/>
    </symbol>
    <symbol id="icon-accessible" viewBox="0 0 24 24">
      <circle cx="12" cy="12" r="9"/>
      <path d="M10 16.5l2-3 2 3m-2-3v-2l3-1m-6 0l3 1"/>
      <circle cx="12" cy="7.5" r=".6" fill="currentColor" stroke="none"/>
    </symbol>
    <symbol id="icon-bookmark" viewBox="0 0 24 24">
      <path d="M6 3h12v18l-6-4-6 4z"/>
    </symbol>
    <symbol id="icon-pin" viewBox="0 0 24 24">
      <path d="M12 2v6"/><path d="M8 8h8l-1 5H9z"/><path d="M12 13v9"/>
    </symbol>
    <symbol id="icon-palette" viewBox="0 0 24 24">
      <path d="M12 3a9 9 0 1 0 0 18c1 0 1.8-.8 1.8-1.8 0-.5-.2-.9-.5-1.2-.3-.3-.5-.7-.5-1.2 0-1 .8-1.8 1.8-1.8H16a4 4 0 0 0 4-4c0-4.4-3.6-8-8-8z"/>
      <circle cx="7.5" cy="10.5" r="1.2"/><circle cx="11" cy="7" r="1.2"/><circle cx="15" cy="8" r="1.2"/>
    </symbol>
    <symbol id="icon-filter" viewBox="0 0 24 24">
      <path d="M4 4h16l-6 8v6l-4 2v-8z"/>
    </symbol>
    <symbol id="icon-zoom-in" viewBox="0 0 24 24">
      <circle cx="11" cy="11" r="7"/><path d="m21 21-4.3-4.3"/><path d="M11 8v6"/><path d="M8 11h6"/>
    </symbol>
    <symbol id="icon-zoom-out" viewBox="0 0 24 24">
      <circle cx="11" cy="11" r="7"/><path d="m21 21-4.3-4.3"/><path d="M8 11h6"/>
    </symbol>
    <symbol id="icon-maximize" viewBox="0 0 24 24">
      <path d="M8 3H5a2 2 0 0 0-2 2v3"/><path d="M16 3h3a2 2 0 0 1 2 2v3"/><path d="M21 16v3a2 2 0 0 1-2 2h-3"/><path d="M8 21H5a2 2 0 0 1-2-2v-3"/>
    </symbol>
    <symbol id="icon-list" viewBox="0 0 24 24">
      <path d="M8 6h13"/><path d="M8 12h13"/><path d="M8 18h13"/><path d="M3 6h.01"/><path d="M3 12h.01"/><path d="M3 18h.01"/>
    </symbol>
    <symbol id="icon-archive" viewBox="0 0 24 24">
      <rect x="3" y="4" width="18" height="4" rx="1"/><path d="M5 8v10a2 2 0 0 0 2 2h10a2 2 0 0 0 2 -2v-10"/><path d="M10 12h4"/>
    </symbol>
    <symbol id="icon-at-sign" viewBox="0 0 24 24">
      <circle cx="12" cy="12" r="4"/><path d="M16 12v1.5a2.5 2.5 0 0 0 5 0V12a9 9 0 1 0-4 7.5"/>
    </symbol>
  </defs>
</svg>
