<svg xmlns="http://www.w3.org/2000/svg" style="display:none">
  <!-- Aqua: pillowy Snow Leopard candy-UI silhouettes — generous corner
       radii everywhere plus a bolder inner "gloss" arc riding the top of
       each rounded shape, echoing the traffic-light button highlight. The
       thin outer contour stays at the inherited stroke-width; only the
       gloss accent sets its own (heavier) stroke-width explicitly. Caps
       stay the inherited round default — no square/miter overrides. Color
       and base weight still come entirely from the ftl-icon-fill /
       ftl-icon-stroke-width tokens. Ids not listed here fall back to the
       generic sprite. -->
  <defs>
    <symbol id="icon-home" viewBox="0 0 24 24">
      <path d="M3 11.5 12 4l9 7.5"/>
      <path d="M5.5 10.5v8a1.5 1.5 0 0 0 1.5 1.5H9a1 1 0 0 0 1-1v-3a2 2 0 0 1 4 0v3a1 1 0 0 0 1 1h2a1.5 1.5 0 0 0 1.5-1.5v-8"/>
      <path d="M8 8.2a6 6 0 0 1 5-3" stroke-width="3"/>
    </symbol>
    <symbol id="icon-settings" viewBox="0 0 24 24">
      <circle cx="12" cy="12" r="8"/>
      <circle cx="12" cy="12" r="3"/>
      <path d="M8.5 8a5 5 0 0 1 3-1.7" stroke-width="3"/>
    </symbol>
    <symbol id="icon-search" viewBox="0 0 24 24">
      <circle cx="11" cy="11" r="7"/>
      <path d="m21 21-4.3-4.3"/>
      <path d="M7 8.5a5 5 0 0 1 4-2" stroke-width="3"/>
    </symbol>
    <symbol id="icon-close" viewBox="0 0 24 24">
      <path d="M17 7 7 17"/>
      <path d="M7 7l10 10"/>
    </symbol>
    <symbol id="icon-menu" viewBox="0 0 24 24">
      <path d="M4 6.5h16" stroke-width="3"/>
      <path d="M4 12h16"/>
      <path d="M4 17.5h16"/>
    </symbol>
    <symbol id="icon-check" viewBox="0 0 24 24"><path d="m5 12 5 5 9-10"/></symbol>
    <symbol id="icon-warning" viewBox="0 0 24 24">
      <path d="M12 3.5 3 20.5h18z" stroke-linejoin="round"/>
      <path d="M12 10v4"/>
      <path d="M12 17h.01"/>
      <path d="M9.5 8a4 4 0 0 1 2.5-1.2" stroke-width="3"/>
    </symbol>
    <symbol id="icon-info" viewBox="0 0 24 24">
      <circle cx="12" cy="12" r="9"/>
      <path d="M12 11v6"/>
      <path d="M12 7h.01"/>
      <path d="M8.5 8a5 5 0 0 1 3.5-2" stroke-width="3"/>
    </symbol>
    <symbol id="icon-chevron-down" viewBox="0 0 24 24"><path d="m6 9 6 6 6-6"/></symbol>
    <symbol id="icon-chevron-up" viewBox="0 0 24 24"><path d="m18 15-6-6-6 6"/></symbol>
    <symbol id="icon-chevron-left" viewBox="0 0 24 24"><path d="m15 18-6-6 6-6"/></symbol>
    <symbol id="icon-chevron-right" viewBox="0 0 24 24"><path d="m9 18 6-6-6-6"/></symbol>
    <symbol id="icon-play" viewBox="0 0 24 24"><path d="M6.5 4.5v15l13-7.5z" stroke-linejoin="round"/></symbol>
    <symbol id="icon-pause" viewBox="0 0 24 24">
      <rect x="6.5" y="4.5" width="4" height="15" rx="2"/>
      <rect x="13.5" y="4.5" width="4" height="15" rx="2"/>
    </symbol>
    <symbol id="icon-stop" viewBox="0 0 24 24"><rect x="4.5" y="4.5" width="15" height="15" rx="4"/></symbol>
    <symbol id="icon-refresh" viewBox="0 0 24 24">
      <path d="M20 11A8 8 0 1 0 8.5 19.36"/>
      <path d="M20 5v6h-6"/>
      <path d="M13 5.7a8 8 0 0 1 4.4 2" stroke-width="3"/>
    </symbol>
    <symbol id="icon-download" viewBox="0 0 24 24">
      <path d="M12 3v13"/>
      <path d="m6 11 6 6 6-6"/>
      <path d="M5 21h14" stroke-linecap="round"/>
    </symbol>
    <symbol id="icon-upload" viewBox="0 0 24 24">
      <path d="M12 21V8"/>
      <path d="m6 13 6-6 6 6"/>
      <path d="M5 21h14" stroke-linecap="round"/>
    </symbol>
    <symbol id="icon-user" viewBox="0 0 24 24">
      <circle cx="12" cy="8" r="4"/>
      <path d="M4 21c0-4 3.6-7 8-7s8 3 8 7"/>
      <path d="M9 5.3a4 4 0 0 1 3-1.1" stroke-width="3"/>
    </symbol>
    <symbol id="icon-bell" viewBox="0 0 24 24">
      <path d="M6 10a6 6 0 0 1 12 0c0 5 2 6 2 6H4s2-1 2-6"/>
      <path d="M10 20a2 2 0 0 0 4 0"/>
      <path d="M8.3 6.3a6 6 0 0 1 4-2" stroke-width="3"/>
    </symbol>
    <symbol id="icon-star" viewBox="0 0 24 24"><path d="m12 3 2.7 5.9 6.3.6-4.8 4.3 1.4 6.2L12 16.9 6.4 20l1.4-6.2L3 9.5l6.3-.6z" stroke-linejoin="round"/></symbol>
    <symbol id="icon-trash" viewBox="0 0 24 24">
      <path d="M4 7h16" stroke-linecap="round"/>
      <path d="M9 7V5a1 1 0 0 1 1-1h4a1 1 0 0 1 1 1v2"/>
      <path d="M6.5 7l.8 12a1.5 1.5 0 0 0 1.5 1.4h6.4a1.5 1.5 0 0 0 1.5-1.4l.8-12" stroke-linejoin="round"/>
    </symbol>
    <symbol id="icon-edit" viewBox="0 0 24 24">
      <path d="M4.5 19.5h4L19 5 15 1.5 4.5 15.5z" stroke-linejoin="round"/>
      <path d="M13.5 6.5l4 4"/>
    </symbol>
    <symbol id="icon-plus" viewBox="0 0 24 24">
      <path d="M12 5v14" stroke-linecap="round"/>
      <path d="M5 12h14" stroke-linecap="round"/>
    </symbol>
    <symbol id="icon-minus" viewBox="0 0 24 24"><path d="M5 12h14" stroke-linecap="round"/></symbol>
    <symbol id="icon-arrow-left" viewBox="0 0 24 24">
      <path d="M19 12H5"/>
      <path d="m11 18-6-6 6-6"/>
    </symbol>
    <symbol id="icon-arrow-right" viewBox="0 0 24 24">
      <path d="M5 12h14"/>
      <path d="m13 6 6 6-6 6"/>
    </symbol>
    <symbol id="icon-arrow-up" viewBox="0 0 24 24">
      <path d="M12 19V5"/>
      <path d="m6 11 6-6 6 6"/>
    </symbol>
    <symbol id="icon-arrow-down" viewBox="0 0 24 24">
      <path d="M12 5v14"/>
      <path d="m18 13-6 6-6-6"/>
    </symbol>
    <symbol id="icon-external-link" viewBox="0 0 24 24">
      <path d="M14 4h6v6"/>
      <path d="M20 4 10 14"/>
      <path d="M18 14v5a1 1 0 0 1-1 1H5a1 1 0 0 1-1-1V7a1 1 0 0 1 1-1h5"/>
    </symbol>
    <symbol id="icon-calendar" viewBox="0 0 24 24">
      <rect x="3" y="5" width="18" height="16" rx="4"/>
      <path d="M3 9.5h18"/>
      <path d="M8 3v4" stroke-linecap="round"/>
      <path d="M16 3v4" stroke-linecap="round"/>
    </symbol>
    <symbol id="icon-clock" viewBox="0 0 24 24">
      <circle cx="12" cy="12" r="9"/>
      <path d="M12 7v5l4 2"/>
      <path d="M8.5 8a5 5 0 0 1 3.5-2" stroke-width="3"/>
    </symbol>
    <symbol id="icon-mail" viewBox="0 0 24 24">
      <rect x="3" y="5" width="18" height="14" rx="4"/>
      <path d="m3.5 7.5 8.5 6 8.5-6"/>
    </symbol>
    <symbol id="icon-filter" viewBox="0 0 24 24"><path d="M4 5h16l-6 8v6l-4 2v-8z" stroke-linejoin="round"/></symbol>
    <symbol id="icon-folder" viewBox="0 0 24 24"><path d="M3 8a2 2 0 0 1 2-2h4l2 2h8a2 2 0 0 1 2 2v6a3 3 0 0 1-3 3H6a3 3 0 0 1-3-3z"/></symbol>
    <symbol id="icon-file" viewBox="0 0 24 24">
      <path d="M6 4a1 1 0 0 1 1-1h6l5 5v13a1 1 0 0 1-1 1H7a1 1 0 0 1-1-1z"/>
      <path d="M13 3v4a1 1 0 0 0 1 1h4"/>
    </symbol>
    <symbol id="icon-lock" viewBox="0 0 24 24">
      <rect x="4" y="11" width="16" height="10" rx="3.5"/>
      <path d="M8 11V7a4 4 0 0 1 8 0v4"/>
      <path d="M9 8a3 3 0 0 1 2-1.5" stroke-width="3"/>
    </symbol>
    <symbol id="icon-unlock" viewBox="0 0 24 24">
      <rect x="4" y="11" width="16" height="10" rx="3.5"/>
      <path d="M8 11V7a4 4 0 0 1 7.5-2"/>
    </symbol>
    <symbol id="icon-shield" viewBox="0 0 24 24"><path d="M12 3 4 6v6c0 5 3.5 8 8 9 4.5-1 8-4 8-9V6z" stroke-linejoin="round"/></symbol>
    <symbol id="icon-globe" viewBox="0 0 24 24">
      <circle cx="12" cy="12" r="9"/>
      <path d="M3 12h18"/>
      <path d="M12 3a14 14 0 0 1 0 18"/>
      <path d="M12 3a14 14 0 0 0 0 18"/>
      <path d="M7.5 6.5a10 10 0 0 1 5-2" stroke-width="3"/>
    </symbol>
    <symbol id="icon-save" viewBox="0 0 24 24">
      <path d="M5 4a1 1 0 0 1 1-1h9l4 4v15a1 1 0 0 1-1 1H6a1 1 0 0 1-1-1z"/>
      <path d="M8 3v6h8V3"/>
      <path d="M8 21v-7h8v7"/>
    </symbol>
  </defs>
</svg>
