<svg xmlns="http://www.w3.org/2000/svg" style="display:none">
  <!-- ftl-themes: dist/icons/xbmc.svg — generated by scripts/build_icons.py.
       Do not edit; edit assets/icons/icons.svg and/or
       themes/xbmc/icons.svg instead.
       Overrides: icon-arrow-down, icon-arrow-left, icon-arrow-right, icon-arrow-up, icon-battery, icon-bell, icon-bluetooth, icon-calendar, icon-check, icon-chevron-down, icon-chevron-left, icon-chevron-right, icon-chevron-up, icon-clock, icon-close, icon-copy, icon-download, icon-edit, icon-file, icon-filter, icon-folder, icon-grid, icon-hard-drive, icon-help-circle, icon-home, icon-image, icon-info, icon-key, icon-layout, icon-list, icon-lock, icon-mail, icon-menu, icon-minus, icon-music-note, icon-pause, icon-play, icon-plus, icon-power, icon-refresh, icon-repeat, icon-save, icon-search, icon-server, icon-settings, icon-share, icon-shield, icon-shuffle, icon-sidebar, icon-skip-back, icon-skip-forward, icon-star, icon-stop, icon-trash, icon-upload, icon-user, icon-video, icon-volume, icon-volume-mute, icon-warning, icon-wifi -->
  <defs>
    <symbol id="icon-home" viewBox="0 0 24 24" stroke-linecap="square" stroke-linejoin="miter">
      <path d="M4 11.5 12 4l8 7.5"/>
      <rect x="6" y="11.5" width="12" height="8.5"/>
      <rect x="10" y="14.5" width="4" height="5.5"/>
      <rect x="6" y="21.4" width="12" height="1" fill="currentColor" stroke="none"/>
    </symbol>
    <symbol id="icon-settings" viewBox="0 0 24 24" stroke-linecap="square" stroke-linejoin="miter">
      <path d="M3 6h18"/>
      <rect x="7" y="4.5" width="3" height="3" fill="currentColor" stroke="none"/>
      <path d="M3 12h18"/>
      <rect x="14" y="10.5" width="3" height="3" fill="currentColor" stroke="none"/>
      <path d="M3 18h18"/>
      <rect x="9" y="16.5" width="3" height="3" fill="currentColor" stroke="none"/>
    </symbol>
    <symbol id="icon-search" viewBox="0 0 24 24" stroke-linecap="square" stroke-linejoin="miter">
      <rect x="3" y="3" width="12" height="12"/>
      <path d="M13 13 21 21"/>
    </symbol>
    <symbol id="icon-close" viewBox="0 0 24 24" stroke-linecap="square" stroke-linejoin="miter">
      <path d="M5 5 19 19"/>
      <path d="M19 5 5 19"/>
    </symbol>
    <symbol id="icon-menu" viewBox="0 0 24 24" stroke-linecap="square" stroke-linejoin="miter">
      <rect x="4" y="5" width="16" height="2" fill="currentColor" stroke="none"/>
      <rect x="4" y="11" width="16" height="2" fill="currentColor" stroke="none"/>
      <rect x="4" y="17" width="16" height="2" fill="currentColor" stroke="none"/>
    </symbol>
    <symbol id="icon-check" viewBox="0 0 24 24" stroke-linecap="square" stroke-linejoin="miter">
      <path d="M4 13l5 5L20 6"/>
    </symbol>
    <symbol id="icon-warning" viewBox="0 0 24 24" stroke-linecap="square" stroke-linejoin="miter">
      <path d="M12 3 3 20h18z"/>
      <path d="M12 9v5"/>
      <rect x="11.25" y="16" width="1.5" height="1.5" fill="currentColor" stroke="none"/>
    </symbol>
    <symbol id="icon-info" viewBox="0 0 24 24" stroke-linecap="square" stroke-linejoin="miter">
      <rect x="3" y="3" width="18" height="18"/>
      <path d="M12 11v6"/>
      <rect x="11.25" y="7" width="1.5" height="1.5" fill="currentColor" stroke="none"/>
    </symbol>
    <symbol id="icon-chevron-down" viewBox="0 0 24 24" stroke-linecap="square" stroke-linejoin="miter">
      <path d="M5 9l7 7 7-7"/>
    </symbol>
    <symbol id="icon-chevron-up" viewBox="0 0 24 24" stroke-linecap="square" stroke-linejoin="miter">
      <path d="M5 15l7-7 7 7"/>
    </symbol>
    <symbol id="icon-chevron-left" viewBox="0 0 24 24" stroke-linecap="square" stroke-linejoin="miter">
      <path d="M15 5l-7 7 7 7"/>
    </symbol>
    <symbol id="icon-chevron-right" viewBox="0 0 24 24" stroke-linecap="square" stroke-linejoin="miter">
      <path d="M9 5l7 7-7 7"/>
    </symbol>
    <symbol id="icon-play" viewBox="0 0 24 24" stroke-linecap="square" stroke-linejoin="miter">
      <path d="M6 4v16l14-8z"/>
      <rect x="6" y="21.4" width="12" height="1" fill="currentColor" stroke="none"/>
    </symbol>
    <symbol id="icon-pause" viewBox="0 0 24 24" stroke-linecap="square" stroke-linejoin="miter">
      <rect x="7" y="4" width="4" height="16" fill="currentColor" stroke="none"/>
      <rect x="13" y="4" width="4" height="16" fill="currentColor" stroke="none"/>
    </symbol>
    <symbol id="icon-stop" viewBox="0 0 24 24" stroke-linecap="square" stroke-linejoin="miter">
      <rect x="5" y="5" width="14" height="14" fill="currentColor" stroke="none"/>
    </symbol>
    <symbol id="icon-refresh" viewBox="0 0 24 24" stroke-linecap="square" stroke-linejoin="miter">
      <path d="M5 5h10"/>
      <path d="M15 5v4"/>
      <path d="M13 7l2 2 2-2"/>
      <path d="M19 19H9"/>
      <path d="M9 19v-4"/>
      <path d="M11 17l-2 2-2-2"/>
    </symbol>
    <symbol id="icon-download" viewBox="0 0 24 24" stroke-linecap="square" stroke-linejoin="miter">
      <path d="M12 3v12"/>
      <path d="M7 11l5 5 5-5"/>
      <rect x="5" y="19" width="14" height="2" fill="currentColor" stroke="none"/>
    </symbol>
    <symbol id="icon-upload" viewBox="0 0 24 24" stroke-linecap="square" stroke-linejoin="miter">
      <path d="M12 21V9"/>
      <path d="M7 13l5-5 5 5"/>
      <rect x="5" y="19" width="14" height="2" fill="currentColor" stroke="none"/>
    </symbol>
    <symbol id="icon-user" viewBox="0 0 24 24" stroke-linecap="square" stroke-linejoin="miter">
      <rect x="9" y="4" width="6" height="6"/>
      <path d="M4 21l2-5h12l2 5z"/>
      <rect x="6" y="22.3" width="12" height="1" fill="currentColor" stroke="none"/>
    </symbol>
    <symbol id="icon-bell" viewBox="0 0 24 24" stroke-linecap="square" stroke-linejoin="miter">
      <path d="M6 15V9h12v6l2 2H4z"/>
      <rect x="10" y="19" width="4" height="2" fill="currentColor" stroke="none"/>
      <rect x="7" y="22.3" width="10" height="1" fill="currentColor" stroke="none"/>
    </symbol>
    <symbol id="icon-star" viewBox="0 0 24 24" stroke-linecap="square" stroke-linejoin="miter">
      <path d="m12 3 2.7 5.9 6.3.6-4.8 4.3 1.4 6.2L12 16.9 6.4 20l1.4-6.2L3 9.5l6.3-.6z"/>
      <rect x="6" y="21.6" width="12" height="1" fill="currentColor" stroke="none"/>
    </symbol>
    <symbol id="icon-trash" viewBox="0 0 24 24" stroke-linecap="square" stroke-linejoin="miter">
      <rect x="4" y="5" width="16" height="2" fill="currentColor" stroke="none"/>
      <rect x="9" y="3" width="6" height="2" fill="currentColor" stroke="none"/>
      <path d="M6 7h12l-1 13H7z"/>
    </symbol>
    <symbol id="icon-edit" viewBox="0 0 24 24" stroke-linecap="square" stroke-linejoin="miter">
      <path d="M4 20h4l11-11-4-4L4 16z"/>
      <path d="M13 6l4 4"/>
    </symbol>
    <symbol id="icon-plus" viewBox="0 0 24 24" stroke-linecap="square" stroke-linejoin="miter">
      <path d="M12 4v16"/>
      <path d="M4 12h16"/>
    </symbol>
    <symbol id="icon-minus" viewBox="0 0 24 24" stroke-linecap="square" stroke-linejoin="miter">
      <path d="M4 12h16"/>
    </symbol>
    <symbol id="icon-arrow-right" viewBox="0 0 24 24" stroke-linecap="square" stroke-linejoin="miter">
      <path d="M4 12h16"/>
      <path d="M14 6l6 6-6 6"/>
    </symbol>
    <symbol id="icon-external-link" viewBox="0 0 24 24"><path d="M14 4h6v6"/><path d="M20 4 10 14"/><path d="M18 14v6H4V6h6"/></symbol>
    <symbol id="icon-calendar" viewBox="0 0 24 24" stroke-linecap="square" stroke-linejoin="miter">
      <rect x="3" y="5" width="18" height="16"/>
      <path d="M3 10h18"/>
      <rect x="7" y="3" width="2" height="4" fill="currentColor" stroke="none"/>
      <rect x="15" y="3" width="2" height="4" fill="currentColor" stroke="none"/>
      <rect x="7" y="22.3" width="10" height="1" fill="currentColor" stroke="none"/>
    </symbol>
    <symbol id="icon-clock" viewBox="0 0 24 24" stroke-linecap="square" stroke-linejoin="miter">
      <rect x="4" y="4" width="16" height="16"/>
      <path d="M12 8v5l4 2"/>
    </symbol>
    <symbol id="icon-mail" viewBox="0 0 24 24" stroke-linecap="square" stroke-linejoin="miter">
      <rect x="3" y="5" width="18" height="14"/>
      <path d="M3 7l9 6 9-6"/>
    </symbol>
    <symbol id="icon-filter" viewBox="0 0 24 24" stroke-linecap="square" stroke-linejoin="miter">
      <path d="M4 4h16l-6 8v7l-4 2v-9z"/>
    </symbol>
    <symbol id="icon-folder" viewBox="0 0 24 24" stroke-linecap="square" stroke-linejoin="miter">
      <path d="M3 6h7l2 2h9v9H3z"/>
      <rect x="4" y="19" width="16" height="1" fill="currentColor" stroke="none"/>
    </symbol>
    <symbol id="icon-file" viewBox="0 0 24 24" stroke-linecap="square" stroke-linejoin="miter">
      <path d="M6 3h9l4 4v14H6z"/>
      <path d="M15 3v4h4"/>
    </symbol>
    <symbol id="icon-image" viewBox="0 0 24 24" stroke-linecap="square" stroke-linejoin="miter">
      <rect x="3" y="4" width="18" height="16"/>
      <rect x="7" y="8" width="3" height="3" fill="currentColor" stroke="none"/>
      <path d="M4 17 9 11l4 4 3-3 4 5"/>
    </symbol>
    <symbol id="icon-cloud" viewBox="0 0 24 24"><path d="M7 18a4 4 0 0 1-1-7.87A5.5 5.5 0 0 1 16.5 9 4.5 4.5 0 0 1 18 18z"/></symbol>
    <symbol id="icon-tag" viewBox="0 0 24 24"><path d="M20 12 12 20 4 12V4h8z"/><circle cx="8" cy="8" r="1.5"/></symbol>
    <symbol id="icon-link" viewBox="0 0 24 24"><path d="M9 15 15 9"/><path d="M7 12 4.5 14.5a3.5 3.5 0 0 0 5 5L12 17"/><path d="M17 12l2.5-2.5a3.5 3.5 0 0 0-5-5L12 7"/></symbol>
    <symbol id="icon-copy" viewBox="0 0 24 24" stroke-linecap="square" stroke-linejoin="miter">
      <rect x="9" y="9" width="11" height="11"/>
      <path d="M5 15H4V4h11v1"/>
    </symbol>
    <symbol id="icon-more-horizontal" viewBox="0 0 24 24"><circle cx="5" cy="12" r="1.6"/><circle cx="12" cy="12" r="1.6"/><circle cx="19" cy="12" r="1.6"/></symbol>
    <symbol id="icon-help-circle" viewBox="0 0 24 24" stroke-linecap="square" stroke-linejoin="miter">
      <rect x="3" y="3" width="18" height="18"/>
      <path d="M9.5 9a2.5 2.5 0 1 1 3.4 2.3c-.9.4-1.4 1-1.4 2"/>
      <rect x="11.25" y="16" width="1.5" height="1.5" fill="currentColor" stroke="none"/>
    </symbol>
    <symbol id="icon-arrow-left" viewBox="0 0 24 24" stroke-linecap="square" stroke-linejoin="miter">
      <path d="M20 12H4"/>
      <path d="M10 6l-6 6 6 6"/>
    </symbol>
    <symbol id="icon-arrow-up" viewBox="0 0 24 24" stroke-linecap="square" stroke-linejoin="miter">
      <path d="M12 20V4"/>
      <path d="M6 10l6-6 6 6"/>
    </symbol>
    <symbol id="icon-arrow-down" viewBox="0 0 24 24" stroke-linecap="square" stroke-linejoin="miter">
      <path d="M12 4v16"/>
      <path d="M18 14l-6 6-6-6"/>
    </symbol>
    <symbol id="icon-logout" viewBox="0 0 24 24"><path d="M9 21H5a2 2 0 0 1-2-2V5a2 2 0 0 1 2-2h4"/><path d="m16 17 5-5-5-5"/><path d="M21 12H9"/></symbol>
    <symbol id="icon-clipboard" viewBox="0 0 24 24"><rect x="6" y="4" width="12" height="17" rx="1.5"/><rect x="9" y="2" width="6" height="4" rx="1"/></symbol>
    <symbol id="icon-lock" viewBox="0 0 24 24" stroke-linecap="square" stroke-linejoin="miter">
      <rect x="4" y="11" width="16" height="10"/>
      <path d="M8 11V6h8v5"/>
    </symbol>
    <symbol id="icon-unlock" viewBox="0 0 24 24"><rect x="4" y="11" width="16" height="10" rx="1.5"/><path d="M8 11V7a4 4 0 0 1 7.5-2"/></symbol>
    <symbol id="icon-phone" viewBox="0 0 24 24"><path d="M5 4h4l1.5 4.5L8 10.5a12 12 0 0 0 5.5 5.5l2-2.5L20 15v4a1.5 1.5 0 0 1-1.6 1.5A16 16 0 0 1 4 5.6 1.5 1.5 0 0 1 5 4z"/></symbol>
    <symbol id="icon-shopping-cart" viewBox="0 0 24 24"><circle cx="9" cy="20" r="1.3"/><circle cx="17" cy="20" r="1.3"/><path d="M2 3h2l2.6 12.4a2 2 0 0 0 2 1.6h8.8a2 2 0 0 0 2-1.6L21 8H6"/></symbol>
    <symbol id="icon-sort" viewBox="0 0 24 24"><path d="M6 4v16"/><path d="m3 7 3-3 3 3"/><path d="M18 20V4"/><path d="m21 17-3 3-3-3"/></symbol>
    <symbol id="icon-grid" viewBox="0 0 24 24" stroke-linecap="square" stroke-linejoin="miter">
      <rect x="3" y="3" width="8" height="8"/>
      <rect x="13" y="3" width="8" height="8"/>
      <rect x="3" y="13" width="8" height="8"/>
      <rect x="13" y="13" width="8" height="8"/>
    </symbol>
    <symbol id="icon-list" viewBox="0 0 24 24" stroke-linecap="square" stroke-linejoin="miter">
      <rect x="3" y="5" width="3" height="3" fill="currentColor" stroke="none"/>
      <rect x="3" y="11" width="3" height="3" fill="currentColor" stroke="none"/>
      <rect x="3" y="17" width="3" height="3" fill="currentColor" stroke="none"/>
      <path d="M9 6.5h12"/>
      <path d="M9 12.5h12"/>
      <path d="M9 18.5h12"/>
    </symbol>
    <symbol id="icon-print" viewBox="0 0 24 24"><path d="M6 9V3h12v6"/><rect x="4" y="9" width="16" height="8" rx="1.5"/><path d="M6 17v4h12v-4"/></symbol>
    <symbol id="icon-share" viewBox="0 0 24 24" stroke-linecap="square" stroke-linejoin="miter">
      <rect x="16" y="3" width="4" height="4"/>
      <rect x="4" y="10" width="4" height="4"/>
      <rect x="16" y="17" width="4" height="4"/>
      <path d="M8 11 16 6"/>
      <path d="M8 13 16 18"/>
    </symbol>
    <symbol id="icon-save" viewBox="0 0 24 24" stroke-linecap="square" stroke-linejoin="miter">
      <path d="M4 4h11l5 5v11H4z"/>
      <rect x="7" y="13" width="10" height="6"/>
      <rect x="8" y="5" width="5" height="4" fill="currentColor" stroke="none"/>
    </symbol>
    <symbol id="icon-volume" viewBox="0 0 24 24" stroke-linecap="square" stroke-linejoin="miter">
      <rect x="4" y="9" width="4" height="6" fill="currentColor" stroke="none"/>
      <path d="M8 9l6-4v14l-6-4z"/>
      <path d="M17 9v6"/>
      <path d="M20 7v10"/>
    </symbol>
    <symbol id="icon-volume-mute" viewBox="0 0 24 24" stroke-linecap="square" stroke-linejoin="miter">
      <rect x="4" y="9" width="4" height="6" fill="currentColor" stroke="none"/>
      <path d="M8 9l6-4v14l-6-4z"/>
      <path d="M17 9l5 6"/>
      <path d="M22 9l-5 6"/>
    </symbol>
    <symbol id="icon-shuffle" viewBox="0 0 24 24" stroke-linecap="square" stroke-linejoin="miter">
      <path d="M16 3h5v5"/>
      <path d="M4 20 21 3"/>
      <path d="M21 16v5h-5"/>
      <path d="m15 15 6 6"/>
      <path d="M4 4l5 5"/>
    </symbol>
    <symbol id="icon-repeat" viewBox="0 0 24 24" stroke-linecap="square" stroke-linejoin="miter">
      <path d="M4 8V6h14v6"/>
      <path d="M15 4l3 2-3 2"/>
      <path d="M20 16v2H6v-6"/>
      <path d="M9 20l-3-2 3-2"/>
    </symbol>
    <symbol id="icon-skip-forward" viewBox="0 0 24 24" stroke-linecap="square" stroke-linejoin="miter">
      <path d="M5 4v16l11-8z"/>
      <rect x="18" y="4" width="2" height="16" fill="currentColor" stroke="none"/>
    </symbol>
    <symbol id="icon-skip-back" viewBox="0 0 24 24" stroke-linecap="square" stroke-linejoin="miter">
      <path d="M19 4v16L8 12z"/>
      <rect x="4" y="4" width="2" height="16" fill="currentColor" stroke="none"/>
    </symbol>
    <symbol id="icon-music-note" viewBox="0 0 24 24" stroke-linecap="square" stroke-linejoin="miter">
      <rect x="6" y="16" width="4" height="4" fill="currentColor" stroke="none"/>
      <rect x="15" y="14" width="4" height="4" fill="currentColor" stroke="none"/>
      <path d="M10 16V5l9-2v11"/>
    </symbol>
    <symbol id="icon-album" viewBox="0 0 24 24"><circle cx="12" cy="12" r="9"/><circle cx="12" cy="12" r="3"/></symbol>
    <symbol id="icon-video" viewBox="0 0 24 24" stroke-linecap="square" stroke-linejoin="miter">
      <rect x="2" y="6" width="14" height="12"/>
      <path d="M16 10l6-3v10l-6-3z"/>
    </symbol>
    <symbol id="icon-headphones" viewBox="0 0 24 24"><path d="M4 14v-2a8 8 0 0 1 16 0v2"/><rect x="2" y="14" width="5" height="7" rx="1.5"/><rect x="17" y="14" width="5" height="7" rx="1.5"/></symbol>
    <symbol id="icon-power" viewBox="0 0 24 24" stroke-linecap="square" stroke-linejoin="miter">
      <path d="M12 3v8"/>
      <path d="M6 6h1"/>
      <path d="M17 6h1"/>
      <rect x="5" y="6" width="14" height="14"/>
    </symbol>
    <symbol id="icon-wifi" viewBox="0 0 24 24" stroke-linecap="square" stroke-linejoin="miter">
      <rect x="4" y="16" width="3" height="4" fill="currentColor" stroke="none"/>
      <rect x="10.5" y="11" width="3" height="9" fill="currentColor" stroke="none"/>
      <rect x="17" y="6" width="3" height="14" fill="currentColor" stroke="none"/>
    </symbol>
    <symbol id="icon-bluetooth" viewBox="0 0 24 24" stroke-linecap="square" stroke-linejoin="miter">
      <path d="M7 7 17 17l-5 5V2l5 5L7 17"/>
    </symbol>
    <symbol id="icon-usb" viewBox="0 0 24 24"><circle cx="12" cy="5" r="2"/><circle cx="6" cy="19" r="2"/><circle cx="18" cy="19" r="2"/><path d="M12 7v6"/><path d="M12 13 6 17"/><path d="M12 13l6 4"/></symbol>
    <symbol id="icon-hard-drive" viewBox="0 0 24 24" stroke-linecap="square" stroke-linejoin="miter">
      <rect x="3" y="4" width="18" height="16"/>
      <path d="M3 12h18"/>
      <rect x="6" y="15" width="1.5" height="1.5" fill="currentColor" stroke="none"/>
      <rect x="10" y="15" width="6" height="1.5" fill="currentColor" stroke="none"/>
    </symbol>
    <symbol id="icon-terminal" viewBox="0 0 24 24"><path d="m5 7 5 5-5 5"/><path d="M13 17h6"/></symbol>
    <symbol id="icon-server" viewBox="0 0 24 24" stroke-linecap="square" stroke-linejoin="miter">
      <rect x="3" y="4" width="18" height="6"/>
      <rect x="3" y="14" width="18" height="6"/>
      <rect x="6" y="6.25" width="1.5" height="1.5" fill="currentColor" stroke="none"/>
      <rect x="6" y="16.25" width="1.5" height="1.5" fill="currentColor" stroke="none"/>
    </symbol>
    <symbol id="icon-battery" viewBox="0 0 24 24" stroke-linecap="square" stroke-linejoin="miter">
      <rect x="2" y="7" width="17" height="10"/>
      <rect x="20" y="10" width="2" height="4" fill="currentColor" stroke="none"/>
      <rect x="5" y="10" width="8" height="4" fill="currentColor" stroke="none"/>
    </symbol>
    <symbol id="icon-shield" viewBox="0 0 24 24" stroke-linecap="square" stroke-linejoin="miter">
      <path d="M12 3 4 6v6c0 5 3.5 8 8 9 4.5-1 8-4 8-9V6z"/>
    </symbol>
    <symbol id="icon-key" viewBox="0 0 24 24" stroke-linecap="square" stroke-linejoin="miter">
      <rect x="3" y="9" width="6" height="6"/>
      <path d="M9 12h11"/>
      <path d="M16 12v4"/>
      <path d="M19 12v3"/>
    </symbol>
    <symbol id="icon-fingerprint" viewBox="0 0 24 24"><path d="M12 3a7 7 0 0 0-7 7v2c0 3.5 1 6 2 8"/><path d="M12 3a7 7 0 0 1 7 7v2c0 1-.1 2-.3 3"/><path d="M8 21a13 13 0 0 0 1-5v-6a3 3 0 0 1 6 0v6"/><path d="M12 10v6a5 5 0 0 0 2 4"/></symbol>
    <symbol id="icon-globe" viewBox="0 0 24 24"><circle cx="12" cy="12" r="9"/><path d="M3 12h18"/><path d="M12 3a14 14 0 0 1 0 18"/><path d="M12 3a14 14 0 0 0 0 18"/></symbol>
    <symbol id="icon-map-pin" viewBox="0 0 24 24"><path d="M12 21s7-6.5 7-12a7 7 0 0 0-14 0c0 5.5 7 12 7 12z"/><circle cx="12" cy="9" r="2.5"/></symbol>
    <symbol id="icon-compass" viewBox="0 0 24 24"><circle cx="12" cy="12" r="9"/><path d="m15 9-2 6-6 2 2-6z"/></symbol>
    <symbol id="icon-layers" viewBox="0 0 24 24"><path d="m12 3 9 5-9 5-9-5z"/><path d="m3 13 9 5 9-5"/></symbol>
    <symbol id="icon-layout" viewBox="0 0 24 24" stroke-linecap="square" stroke-linejoin="miter">
      <rect x="3" y="3" width="18" height="18"/>
      <path d="M3 9h18"/>
      <path d="M9 9v12"/>
    </symbol>
    <symbol id="icon-sidebar" viewBox="0 0 24 24" stroke-linecap="square" stroke-linejoin="miter">
      <rect x="3" y="3" width="18" height="18"/>
      <path d="M9 3v18"/>
    </symbol>
    <symbol id="icon-columns" viewBox="0 0 24 24"><rect x="3" y="4" width="18" height="16" rx="1.5"/><path d="M9 4v16"/><path d="M15 4v16"/></symbol>
    <symbol id="icon-maximize" viewBox="0 0 24 24"><path d="M8 3H5a2 2 0 0 0-2 2v3"/><path d="M16 3h3a2 2 0 0 1 2 2v3"/><path d="M21 16v3a2 2 0 0 1-2 2h-3"/><path d="M8 21H5a2 2 0 0 1-2-2v-3"/></symbol>
    <symbol id="icon-minimize" viewBox="0 0 24 24"><path d="M8 3v3a2 2 0 0 1-2 2H3"/><path d="M16 3v3a2 2 0 0 0 2 2h3"/><path d="M21 16h-3a2 2 0 0 0-2 2v3"/><path d="M3 16h3a2 2 0 0 1 2 2v3"/></symbol>
    <symbol id="icon-zoom-in" viewBox="0 0 24 24"><circle cx="11" cy="11" r="7"/><path d="m21 21-4.3-4.3"/><path d="M11 8v6"/><path d="M8 11h6"/></symbol>
    <symbol id="icon-zoom-out" viewBox="0 0 24 24"><circle cx="11" cy="11" r="7"/><path d="m21 21-4.3-4.3"/><path d="M8 11h6"/></symbol>
    <symbol id="icon-activity" viewBox="0 0 24 24"><path d="M3 12h4l2-7 4 14 2-7h6"/></symbol>
    <symbol id="icon-trending-up" viewBox="0 0 24 24"><path d="m3 17 6-6 4 4 8-8"/><path d="M17 7h4v4"/></symbol>
    <symbol id="icon-bar-chart" viewBox="0 0 24 24"><path d="M4 20V10"/><path d="M12 20V4"/><path d="M20 20v-7"/></symbol>
    <symbol id="icon-pie-chart" viewBox="0 0 24 24"><path d="M12 3a9 9 0 1 0 9 9H12z"/></symbol>
    <symbol id="icon-table" viewBox="0 0 24 24"><rect x="3" y="4" width="18" height="16" rx="1.5"/><path d="M3 10h18"/><path d="M9 4v16"/></symbol>
    <symbol id="icon-bookmark" viewBox="0 0 24 24"><path d="M6 3h12v18l-6-4-6 4z"/></symbol>
    <symbol id="icon-pin" viewBox="0 0 24 24"><path d="M12 2v6"/><path d="M8 8h8l-1 5H9z"/><path d="M12 13v9"/></symbol>
    <symbol id="icon-eye" viewBox="0 0 24 24"><path d="M2 12s4-7 10-7 10 7 10 7-4 7-10 7-10-7-10-7z"/><circle cx="12" cy="12" r="3"/></symbol>
    <symbol id="icon-eye-off" viewBox="0 0 24 24"><path d="M3 3l18 18"/><path d="M10.6 5.2A10.6 10.6 0 0 1 12 5c6 0 10 7 10 7a17 17 0 0 1-3.2 4"/><path d="M6.6 6.6C4 8.3 2 12 2 12s4 7 10 7a9.6 9.6 0 0 0 4.4-1"/><path d="M9.5 9.5a3 3 0 0 0 4.2 4.2"/></symbol>
    <symbol id="icon-code" viewBox="0 0 24 24"><path d="m9 8-5 4 5 4"/><path d="m15 8 5 4-5 4"/></symbol>
    <symbol id="icon-palette" viewBox="0 0 24 24"><path d="M12 3a9 9 0 1 0 0 18c1 0 1.8-.8 1.8-1.8 0-.5-.2-.9-.5-1.2-.3-.3-.5-.7-.5-1.2 0-1 .8-1.8 1.8-1.8H16a4 4 0 0 0 4-4c0-4.4-3.6-8-8-8z"/><circle cx="7.5" cy="10.5" r="1.2"/><circle cx="11" cy="7" r="1.2"/><circle cx="15" cy="8" r="1.2"/></symbol>
    <symbol id="icon-at-sign" viewBox="0 0 24 24"><circle cx="12" cy="12" r="4"/><path d="M16 12v1.5a2.5 2.5 0 0 0 5 0V12a9 9 0 1 0-4 7.5"/></symbol>
    <symbol id="icon-hash" viewBox="0 0 24 24"><path d="M5 9h14"/><path d="M5 15h14"/><path d="M10 4 8 20"/><path d="M16 4l-2 16"/></symbol>
  </defs>
</svg>
